VotoSerifGX-ExtendedBoldText.ufo
<glyph name="Q" format="2">
  <advance width="956"/>
  <unicode hex="0051"/>
  <anchor x="478" y="-243" name="bottom"/>
  <anchor x="478" y="714" name="top"/>
  <anchor x="936" y="714" name="topright"/>
  <outline>
    <contour>
      <point x="688" y="-243" type="curve" smooth="yes"/>
      <point x="796" y="-243" type="line"/>
      <point x="796" y="-172" type="line"/>
      <point x="777" y="-172" type="line" smooth="yes"/>
      <point x="713" y="-172"/>
      <point x="626" y="-154"/>
      <point x="613" y="5" type="curve"/>
      <point x="795" y="54"/>
      <point x="893" y="181"/>
      <point x="893" y="358" type="curve" smooth="yes"/>
      <point x="893" y="580"/>
      <point x="745" y="725"/>
      <point x="480" y="725" type="curve" smooth="yes"/>
      <point x="200" y="725"/>
      <point x="63" y="580"/>
      <point x="63" y="359" type="curve" smooth="yes"/>
      <point x="63" y="174"/>
      <point x="163" y="40"/>
      <point x="370" y="1" type="curve"/>
      <point x="385" y="-166"/>
      <point x="537" y="-243"/>
    </contour>
    <contour>
      <point x="479" y="68" type="curve" smooth="yes"/>
      <point x="354" y="68"/>
      <point x="307" y="175"/>
      <point x="307" y="358" type="curve" smooth="yes"/>
      <point x="307" y="541"/>
      <point x="354" y="647"/>
      <point x="480" y="647" type="curve" smooth="yes"/>
      <point x="604" y="647"/>
      <point x="648" y="541"/>
      <point x="648" y="358" type="curve" smooth="yes"/>
      <point x="648" y="175"/>
      <point x="604" y="68"/>
    </contour>
  </outline>
</glyph>
<glyph name="T" format="2">
  <advance width="795"/>
  <unicode hex="0054"/>
  <anchor x="397" y="0" name="bottom"/>
  <anchor x="397" y="357" name="center"/>
  <anchor x="397" y="714" name="top"/>
  <anchor x="775" y="714" name="topright"/>
  <outline>
    <contour>
      <point x="172" y="0" type="line"/>
      <point x="626" y="0" type="line"/>
      <point x="626" y="66" type="line"/>
      <point x="589" y="66" type="line" smooth="yes"/>
      <point x="546" y="66"/>
      <point x="516" y="73"/>
      <point x="516" y="123" type="curve" smooth="yes"/>
      <point x="516" y="640" type="line"/>
      <point x="596" y="640" type="line" smooth="yes"/>
      <point x="666" y="640"/>
      <point x="688" y="626"/>
      <point x="693" y="582" type="curve" smooth="yes"/>
      <point x="702" y="497" type="line"/>
      <point x="793" y="497" type="line"/>
      <point x="787" y="714" type="line"/>
      <point x="10" y="714" type="line"/>
      <point x="4" y="497" type="line"/>
      <point x="95" y="497" type="line"/>
      <point x="105" y="582" type="line" smooth="yes"/>
      <point x="110" y="626"/>
      <point x="132" y="640"/>
      <point x="202" y="640" type="curve" smooth="yes"/>
      <point x="281" y="640" type="line"/>
      <point x="281" y="129" type="line" smooth="yes"/>
      <point x="281" y="74"/>
      <point x="254" y="66"/>
      <point x="209" y="66" type="curve" smooth="yes"/>
      <point x="172" y="66" type="line"/>
    </contour>
  </outline>
</glyph>
<glyph name="asciicircum" format="2">
  <advance width="713"/>
  <unicode hex="005E"/>
  <outline>
    <contour>
      <point x="59" y="217" type="line"/>
      <point x="160" y="217" type="line"/>
      <point x="355" y="584" type="line"/>
      <point x="551" y="217" type="line"/>
      <point x="651" y="217" type="line"/>
      <point x="384" y="714" type="line"/>
      <point x="327" y="714" type="line"/>
    </contour>
  </outline>
</glyph>
<glyph name="c" format="2">
  <advance width="645"/>
  <unicode hex="0063"/>
  <anchor x="343" y="0" name="bottom"/>
  <anchor x="343" y="536" name="top"/>
  <anchor x="625" y="536" name="topright"/>
  <outline>
    <contour>
      <point x="354" y="-10" type="curve" smooth="yes"/>
      <point x="514" y="-10"/>
      <point x="599" y="61"/>
      <point x="599" y="117" type="curve" smooth="yes"/>
      <point x="599" y="132"/>
      <point x="596" y="161"/>
      <point x="571" y="174" type="curve"/>
      <point x="544" y="124"/>
      <point x="471" y="79"/>
      <point x="375" y="79" type="curve" smooth="yes"/>
      <point x="307" y="79"/>
      <point x="276" y="142"/>
      <point x="276" y="269" type="curve" smooth="yes"/>
      <point x="276" y="430"/>
      <point x="309" y="478"/>
      <point x="361" y="478" type="curve" smooth="yes"/>
      <point x="405" y="478"/>
      <point x="419" y="408"/>
      <point x="419" y="333" type="curve"/>
      <point x="579" y="333"/>
      <point x="604" y="404"/>
      <point x="604" y="444" type="curve" smooth="yes"/>
      <point x="604" y="493"/>
      <point x="542" y="552"/>
      <point x="352" y="552" type="curve" smooth="yes"/>
      <point x="182" y="552"/>
      <point x="48" y="485"/>
      <point x="48" y="268" type="curve" smooth="yes"/>
      <point x="48" y="51"/>
      <point x="171" y="-10"/>
    </contour>
  </outline>
</glyph>
<glyph name="h" format="2">
  <advance width="806"/>
  <unicode hex="0068"/>
  <anchor x="404" y="0" name="bottom"/>
  <anchor x="404" y="268" name="center"/>
  <anchor x="404" y="760" name="top"/>
  <anchor x="731" y="760" name="topright"/>
  <outline>
    <contour>
      <point x="24" y="0" type="line"/>
      <point x="415" y="0" type="line"/>
      <point x="415" y="66" type="line"/>
      <point x="410" y="66" type="line" smooth="yes"/>
      <point x="359" y="66"/>
      <point x="338" y="77"/>
      <point x="338" y="129" type="curve" smooth="yes"/>
      <point x="338" y="296" type="line" smooth="yes"/>
      <point x="338" y="358"/>
      <point x="346" y="443"/>
      <point x="409" y="443" type="curve" smooth="yes"/>
      <point x="459" y="443"/>
      <point x="476" y="394"/>
      <point x="476" y="309" type="curve" smooth="yes"/>
      <point x="476" y="0" type="line"/>
      <point x="777" y="0" type="line"/>
      <point x="777" y="66" type="line"/>
      <point x="772" y="66" type="line" smooth="yes"/>
      <point x="719" y="66"/>
      <point x="703" y="75"/>
      <point x="703" y="136" type="curve" smooth="yes"/>
      <point x="703" y="363" type="line" smooth="yes"/>
      <point x="703" y="496"/>
      <point x="643" y="552"/>
      <point x="514" y="552" type="curve" smooth="yes"/>
      <point x="413" y="552"/>
      <point x="368" y="519"/>
      <point x="340" y="484" type="curve"/>
      <point x="331" y="484" type="line"/>
      <point x="335" y="526"/>
      <point x="336" y="584"/>
      <point x="336" y="645" type="curve" smooth="yes"/>
      <point x="336" y="760" type="line"/>
      <point x="19" y="760" type="line"/>
      <point x="19" y="694" type="line"/>
      <point x="36" y="694" type="line" smooth="yes"/>
      <point x="55" y="694"/>
      <point x="110" y="687"/>
      <point x="110" y="641" type="curve" smooth="yes"/>
      <point x="110" y="132" type="line" smooth="yes"/>
      <point x="110" y="75"/>
      <point x="75" y="66"/>
      <point x="29" y="66" type="curve" smooth="yes"/>
      <point x="24" y="66" type="line"/>
    </contour>
  </outline>
</glyph>
<glyph name="x" format="2">
  <advance width="812"/>
  <unicode hex="0078"/>
  <anchor x="406" y="0" name="bottom"/>
  <anchor x="406" y="536" name="top"/>
  <anchor x="792" y="536" name="topright"/>
  <outline>
    <contour>
      <point x="18" y="0" type="line"/>
      <point x="328" y="0" type="line"/>
      <point x="328" y="66" type="line"/>
      <point x="323" y="66" type="line" smooth="yes"/>
      <point x="272" y="66"/>
      <point x="252" y="77"/>
      <point x="252" y="99" type="curve" smooth="yes"/>
      <point x="252" y="111"/>
      <point x="265" y="126"/>
      <point x="279" y="139" type="curve" smooth="yes"/>
      <point x="352" y="212" type="line"/>
      <point x="410" y="168" type="line" smooth="yes"/>
      <point x="451" y="131"/>
      <point x="455" y="114"/>
      <point x="455" y="99" type="curve" smooth="yes"/>
      <point x="455" y="77"/>
      <point x="431" y="66"/>
      <point x="385" y="66" type="curve" smooth="yes"/>
      <point x="379" y="66" type="line"/>
      <point x="379" y="0" type="line"/>
      <point x="801" y="0" type="line"/>
      <point x="801" y="66" type="line"/>
      <point x="786" y="66" type="line" smooth="yes"/>
      <point x="757" y="66"/>
      <point x="729" y="83"/>
      <point x="692" y="119" type="curve" smooth="yes"/>
      <point x="521" y="294" type="line"/>
      <point x="643" y="403" type="line" smooth="yes"/>
      <point x="696" y="452"/>
      <point x="713" y="470"/>
      <point x="759" y="470" type="curve" smooth="yes"/>
      <point x="770" y="470" type="line"/>
      <point x="770" y="536" type="line"/>
      <point x="495" y="536" type="line"/>
      <point x="495" y="470" type="line"/>
      <point x="499" y="470" type="line" smooth="yes"/>
      <point x="530" y="470"/>
      <point x="550" y="462"/>
      <point x="550" y="438" type="curve" smooth="yes"/>
      <point x="550" y="420"/>
      <point x="536" y="405"/>
      <point x="516" y="388" type="curve" smooth="yes"/>
      <point x="471" y="354" type="line"/>
      <point x="415" y="395" type="line" smooth="yes"/>
      <point x="393" y="413"/>
      <point x="387" y="427"/>
      <point x="387" y="441" type="curve" smooth="yes"/>
      <point x="387" y="457"/>
      <point x="399" y="470"/>
      <point x="445" y="470" type="curve" smooth="yes"/>
      <point x="450" y="470" type="line"/>
      <point x="450" y="536" type="line"/>
      <point x="40" y="536" type="line"/>
      <point x="40" y="470" type="line"/>
      <point x="55" y="470" type="line" smooth="yes"/>
      <point x="90" y="470"/>
      <point x="122" y="452"/>
      <point x="156" y="417" type="curve" smooth="yes"/>
      <point x="302" y="268" type="line"/>
      <point x="154" y="130" type="line" smooth="yes"/>
      <point x="105" y="85"/>
      <point x="84" y="66"/>
      <point x="28" y="66" type="curve" smooth="yes"/>
      <point x="18" y="66" type="line"/>
    </contour>
  </outline>
</glyph>
<glyph name="plusminus" format="2">
  <advance width="713"/>
  <unicode hex="00B1"/>
  <outline>
    <contour>
      <point x="86" y="0" type="line"/>
      <point x="627" y="0" type="line"/>
      <point x="627" y="85" type="line"/>
      <point x="86" y="85" type="line"/>
    </contour>
    <component base="plus"/>
  </outline>
</glyph>
<glyph name="threesuperior" format="2">
  <advance width="467"/>
  <unicode hex="00B3"/>
  <outline>
    <contour>
      <point x="205" y="380" type="curve" smooth="yes"/>
      <point x="366" y="380"/>
      <point x="442" y="435"/>
      <point x="442" y="512" type="curve" smooth="yes"/>
      <point x="442" y="575"/>
      <point x="375" y="603"/>
      <point x="305" y="612" type="curve"/>
      <point x="305" y="618" type="line"/>
      <point x="366" y="630"/>
      <point x="422" y="663"/>
      <point x="422" y="720" type="curve" smooth="yes"/>
      <point x="422" y="782"/>
      <point x="367" y="824"/>
      <point x="229" y="824" type="curve" smooth="yes"/>
      <point x="91" y="824"/>
      <point x="35" y="787"/>
      <point x="35" y="735" type="curve" smooth="yes"/>
      <point x="35" y="699"/>
      <point x="75" y="686"/>
      <point x="149" y="686" type="curve"/>
      <point x="149" y="730"/>
      <point x="154" y="765"/>
      <point x="204" y="765" type="curve" smooth="yes"/>
      <point x="238" y="765"/>
      <point x="258" y="743"/>
      <point x="258" y="713" type="curve" smooth="yes"/>
      <point x="258" y="665"/>
      <point x="232" y="639"/>
      <point x="174" y="639" type="curve" smooth="yes"/>
      <point x="131" y="639" type="line"/>
      <point x="131" y="576" type="line"/>
      <point x="174" y="576" type="line" smooth="yes"/>
      <point x="247" y="576"/>
      <point x="272" y="550"/>
      <point x="272" y="515" type="curve" smooth="yes"/>
      <point x="272" y="463"/>
      <point x="236" y="448"/>
      <point x="190" y="448" type="curve" smooth="yes"/>
      <point x="139" y="448"/>
      <point x="113" y="473"/>
      <point x="113" y="528" type="curve"/>
      <point x="51" y="528"/>
      <point x="16" y="508"/>
      <point x="16" y="473" type="curve" smooth="yes"/>
      <point x="16" y="424"/>
      <point x="74" y="380"/>
    </contour>
  </outline>
</glyph>
<glyph name="micro" format="2">
  <advance width="818"/>
  <unicode hex="00B5"/>
  <outline>
    <contour>
      <point x="211" y="-240" type="curve" smooth="yes"/>
      <point x="284" y="-240"/>
      <point x="336" y="-201"/>
      <point x="336" y="-147" type="curve"/>
      <point x="210" y="-135"/>
      <point x="188" y="-51"/>
      <point x="190" y="47" type="curve"/>
      <point x="220" y="12"/>
      <point x="265" y="-10"/>
      <point x="328" y="-10" type="curve" smooth="yes"/>
      <point x="409" y="-10"/>
      <point x="449" y="27"/>
      <point x="485" y="91" type="curve"/>
      <point x="492" y="91" type="line"/>
      <point x="515" y="41"/>
      <point x="581" y="0"/>
      <point x="671" y="0" type="curve" smooth="yes"/>
      <point x="801" y="0" type="line"/>
      <point x="801" y="66" type="line"/>
      <point x="789" y="66" type="line" smooth="yes"/>
      <point x="721" y="66"/>
      <point x="706" y="87"/>
      <point x="706" y="152" type="curve" smooth="yes"/>
      <point x="706" y="536" type="line"/>
      <point x="479" y="536" type="line"/>
      <point x="479" y="247" type="line" smooth="yes"/>
      <point x="479" y="158"/>
      <point x="448" y="100"/>
      <point x="398" y="100" type="curve" smooth="yes"/>
      <point x="344" y="100"/>
      <point x="331" y="161"/>
      <point x="331" y="216" type="curve" smooth="yes"/>
      <point x="331" y="536" type="line"/>
      <point x="104" y="536" type="line"/>
      <point x="104" y="225" type="line" smooth="yes"/>
      <point x="100" y="58"/>
      <point x="90" y="-14"/>
      <point x="90" y="-94" type="curve" smooth="yes"/>
      <point x="90" y="-202"/>
      <point x="145" y="-240"/>
    </contour>
  </outline>
</glyph>
<glyph name="periodcentered" format="2">
  <advance width="379"/>
  <unicode hex="00B7"/>
  <outline>
    <contour>
      <point x="190" y="258" type="curve" smooth="yes"/>
      <point x="249" y="258"/>
      <point x="301" y="282"/>
      <point x="301" y="353" type="curve" smooth="yes"/>
      <point x="301" y="427"/>
      <point x="249" y="449"/>
      <point x="190" y="449" type="curve" smooth="yes"/>
      <point x="127" y="449"/>
      <point x="78" y="427"/>
      <point x="78" y="353" type="curve" smooth="yes"/>
      <point x="78" y="282"/>
      <point x="127" y="258"/>
    </contour>
  </outline>
</glyph>
<glyph name="guillemotright" format="2">
  <advance width="680"/>
  <unicode hex="00BB"/>
  <outline>
    <contour>
      <point x="327" y="58" type="line"/>
      <point x="426" y="58" type="line"/>
      <point x="605" y="232" type="line"/>
      <point x="605" y="308" type="line"/>
      <point x="426" y="482" type="line"/>
      <point x="327" y="482" type="line"/>
      <point x="445" y="270" type="line"/>
    </contour>
    <contour>
      <point x="76" y="58" type="line"/>
      <point x="175" y="58" type="line"/>
      <point x="354" y="232" type="line"/>
      <point x="354" y="308" type="line"/>
      <point x="175" y="482" type="line"/>
      <point x="76" y="482" type="line"/>
      <point x="194" y="270" type="line"/>
    </contour>
  </outline>
</glyph>
<glyph name="divide" format="2">
  <advance width="713"/>
  <unicode hex="00F7"/>
  <outline>
    <contour>
      <point x="86" y="315" type="line"/>
      <point x="627" y="315" type="line"/>
      <point x="627" y="400" type="line"/>
      <point x="86" y="400" type="line"/>
    </contour>
    <contour>
      <point x="357" y="80" type="curve" smooth="yes"/>
      <point x="395" y="80"/>
      <point x="424" y="98"/>
      <point x="424" y="148" type="curve" smooth="yes"/>
      <point x="424" y="199"/>
      <point x="395" y="216"/>
      <point x="357" y="216" type="curve" smooth="yes"/>
      <point x="318" y="216"/>
      <point x="289" y="199"/>
      <point x="289" y="148" type="curve" smooth="yes"/>
      <point x="289" y="98"/>
      <point x="318" y="80"/>
    </contour>
    <contour>
      <point x="357" y="499" type="curve" smooth="yes"/>
      <point x="395" y="499"/>
      <point x="424" y="517"/>
      <point x="424" y="567" type="curve" smooth="yes"/>
      <point x="424" y="618"/>
      <point x="395" y="635"/>
      <point x="357" y="635" type="curve" smooth="yes"/>
      <point x="318" y="635"/>
      <point x="289" y="618"/>
      <point x="289" y="567" type="curve" smooth="yes"/>
      <point x="289" y="517"/>
      <point x="318" y="499"/>
    </contour>
  </outline>
</glyph>
<glyph name="Tbar" format="2">
  <advance width="795"/>
  <unicode hex="0166"/>
  <anchor x="397" y="0" name="bottom"/>
  <anchor x="397" y="714" name="top"/>
  <outline>
    <contour>
      <point x="183" y="0" type="line"/>
      <point x="615" y="0" type="line"/>
      <point x="615" y="66" type="line"/>
      <point x="549" y="66" type="line" smooth="yes"/>
      <point x="529" y="66"/>
      <point x="516" y="73"/>
      <point x="516" y="123" type="curve" smooth="yes"/>
      <point x="516" y="329" type="line"/>
      <point x="664" y="329" type="line"/>
      <point x="664" y="388" type="line"/>
      <point x="516" y="388" type="line"/>
      <point x="516" y="640" type="line"/>
      <point x="596" y="640" type="line" smooth="yes"/>
      <point x="666" y="640"/>
      <point x="687" y="626"/>
      <point x="693" y="582" type="curve" smooth="yes"/>
      <point x="702" y="497" type="line"/>
      <point x="793" y="497" type="line"/>
      <point x="787" y="714" type="line"/>
      <point x="10" y="714" type="line"/>
      <point x="4" y="497" type="line"/>
      <point x="95" y="497" type="line"/>
      <point x="105" y="582" type="line" smooth="yes"/>
      <point x="111" y="626"/>
      <point x="132" y="640"/>
      <point x="202" y="640" type="curve" smooth="yes"/>
      <point x="281" y="640" type="line"/>
      <point x="281" y="388" type="line"/>
      <point x="133" y="388" type="line"/>
      <point x="133" y="329" type="line"/>
      <point x="281" y="329" type="line"/>
      <point x="281" y="129" type="line" smooth="yes"/>
      <point x="281" y="74"/>
      <point x="270" y="66"/>
      <point x="248" y="66" type="curve" smooth="yes"/>
      <point x="183" y="66" type="line"/>
    </contour>
  </outline>
</glyph>
<glyph name="uni0181" format="2">
  <advance width="1043"/>
  <unicode hex="0181"/>
  <anchor x="502" y="0" name="bottom"/>
  <anchor x="502" y="714" name="top"/>
  <outline>
    <contour>
      <point x="228" y="0" type="line"/>
      <point x="645" y="0" type="line" smooth="yes"/>
      <point x="890" y="0"/>
      <point x="1008" y="67"/>
      <point x="1008" y="199" type="curve" smooth="yes"/>
      <point x="1008" y="303"/>
      <point x="921" y="356"/>
      <point x="799" y="376" type="curve"/>
      <point x="799" y="381" type="line"/>
      <point x="892" y="400"/>
      <point x="974" y="445"/>
      <point x="974" y="540" type="curve" smooth="yes"/>
      <point x="974" y="667"/>
      <point x="846" y="714"/>
      <point x="610" y="714" type="curve" smooth="yes"/>
      <point x="274" y="714" type="line" smooth="yes"/>
      <point x="85" y="714"/>
      <point x="9" y="629"/>
      <point x="9" y="533" type="curve" smooth="yes"/>
      <point x="9" y="469"/>
      <point x="45" y="420"/>
      <point x="110" y="420" type="curve" smooth="yes"/>
      <point x="144" y="420"/>
      <point x="167" y="431"/>
      <point x="187" y="446" type="curve"/>
      <point x="164" y="474"/>
      <point x="149" y="499"/>
      <point x="149" y="535" type="curve" smooth="yes"/>
      <point x="149" y="629"/>
      <point x="195" y="648"/>
      <point x="254" y="648" type="curve" smooth="yes"/>
      <point x="324" y="648"/>
      <point x="335" y="616"/>
      <point x="335" y="538" type="curve" smooth="yes"/>
      <point x="335" y="117" type="line" smooth="yes"/>
      <point x="335" y="91"/>
      <point x="322" y="66"/>
      <point x="289" y="66" type="curve" smooth="yes"/>
      <point x="228" y="66" type="line"/>
    </contour>
    <contour>
      <point x="567" y="74" type="line"/>
      <point x="567" y="336" type="line"/>
      <point x="630" y="336" type="line" smooth="yes"/>
      <point x="717" y="336"/>
      <point x="760" y="294"/>
      <point x="760" y="202" type="curve" smooth="yes"/>
      <point x="760" y="107"/>
      <point x="711" y="74"/>
      <point x="628" y="74" type="curve" smooth="yes"/>
    </contour>
    <contour>
      <point x="567" y="410" type="line"/>
      <point x="567" y="640" type="line"/>
      <point x="598" y="640" type="line" smooth="yes"/>
      <point x="683" y="640"/>
      <point x="732" y="611"/>
      <point x="732" y="529" type="curve" smooth="yes"/>
      <point x="732" y="442"/>
      <point x="688" y="410"/>
      <point x="600" y="410" type="curve" smooth="yes"/>
    </contour>
  </outline>
</glyph>
<glyph name="uni0184" format="2">
  <advance width="843"/>
  <unicode hex="0184"/>
  <anchor x="422" y="0" name="bottom"/>
  <anchor x="422" y="714" name="top"/>
  <outline>
    <contour>
      <point x="432" y="-10" type="curve" smooth="yes"/>
      <point x="686" y="-10"/>
      <point x="793" y="69"/>
      <point x="793" y="210" type="curve" smooth="yes"/>
      <point x="793" y="370"/>
      <point x="656" y="413"/>
      <point x="453" y="413" type="curve" smooth="yes"/>
      <point x="361" y="413" type="line"/>
      <point x="361" y="585" type="line" smooth="yes"/>
      <point x="361" y="634"/>
      <point x="379" y="648"/>
      <point x="423" y="648" type="curve" smooth="yes"/>
      <point x="470" y="648" type="line"/>
      <point x="470" y="714" type="line"/>
      <point x="21" y="714" type="line"/>
      <point x="21" y="648" type="line"/>
      <point x="69" y="648" type="line" smooth="yes"/>
      <point x="104" y="648"/>
      <point x="128" y="636"/>
      <point x="128" y="596" type="curve" smooth="yes"/>
      <point x="128" y="248" type="line" smooth="yes"/>
      <point x="128" y="86"/>
      <point x="203" y="-10"/>
    </contour>
    <contour>
      <point x="451" y="57" type="curve"/>
      <point x="383" y="57"/>
      <point x="360" y="97"/>
      <point x="360" y="200" type="curve" smooth="yes"/>
      <point x="360" y="335" type="line"/>
      <point x="400" y="335" type="line" smooth="yes"/>
      <point x="499" y="335"/>
      <point x="543" y="303"/>
      <point x="543" y="203" type="curve" smooth="yes"/>
      <point x="543" y="89"/>
      <point x="512" y="57"/>
    </contour>
  </outline>
</glyph>
<glyph name="uni0195" format="2">
  <advance width="1142"/>
  <unicode hex="0195"/>
  <anchor x="572" y="0" name="bottom"/>
  <anchor x="572" y="536" name="top"/>
  <outline>
    <contour>
      <point x="765" y="-8" type="curve" smooth="yes"/>
      <point x="958" y="-8"/>
      <point x="1056" y="62"/>
      <point x="1056" y="256" type="curve" smooth="yes"/>
      <point x="1056" y="536" type="line"/>
      <point x="760" y="536" type="line"/>
      <point x="760" y="470" type="line"/>
      <point x="763" y="470" type="line" smooth="yes"/>
      <point x="816" y="470"/>
      <point x="830" y="462"/>
      <point x="830" y="400" type="curve" smooth="yes"/>
      <point x="830" y="159" type="line" smooth="yes"/>
      <point x="830" y="86"/>
      <point x="804" y="77"/>
      <point x="765" y="77" type="curve" smooth="yes"/>
      <point x="722" y="77"/>
      <point x="703" y="93"/>
      <point x="703" y="150" type="curve" smooth="yes"/>
      <point x="703" y="363" type="line" smooth="yes"/>
      <point x="703" y="496"/>
      <point x="644" y="552"/>
      <point x="514" y="552" type="curve" smooth="yes"/>
      <point x="413" y="552"/>
      <point x="368" y="519"/>
      <point x="340" y="484" type="curve"/>
      <point x="328" y="484" type="line" smooth="yes"/>
      <point x="334" y="554"/>
      <point x="336" y="584"/>
      <point x="336" y="645" type="curve" smooth="yes"/>
      <point x="336" y="760" type="line"/>
      <point x="19" y="760" type="line"/>
      <point x="19" y="694" type="line"/>
      <point x="36" y="694" type="line" smooth="yes"/>
      <point x="55" y="694"/>
      <point x="110" y="687"/>
      <point x="110" y="641" type="curve" smooth="yes"/>
      <point x="110" y="132" type="line" smooth="yes"/>
      <point x="110" y="75"/>
      <point x="75" y="66"/>
      <point x="29" y="66" type="curve" smooth="yes"/>
      <point x="24" y="66" type="line"/>
      <point x="24" y="0" type="line"/>
      <point x="415" y="0" type="line"/>
      <point x="415" y="66" type="line"/>
      <point x="410" y="66" type="line" smooth="yes"/>
      <point x="359" y="66"/>
      <point x="338" y="77"/>
      <point x="338" y="129" type="curve" smooth="yes"/>
      <point x="338" y="296" type="line" smooth="yes"/>
      <point x="338" y="358"/>
      <point x="346" y="443"/>
      <point x="409" y="443" type="curve" smooth="yes"/>
      <point x="459" y="443"/>
      <point x="476" y="394"/>
      <point x="476" y="309" type="curve" smooth="yes"/>
      <point x="476" y="266" type="line" smooth="yes"/>
      <point x="476" y="71"/>
      <point x="557" y="-8"/>
    </contour>
  </outline>
</glyph>
<glyph name="uni0196" format="2">
  <advance width="496"/>
  <unicode hex="0196"/>
  <anchor x="248" y="0" name="bottom"/>
  <anchor x="248" y="714" name="top"/>
  <outline>
    <contour>
      <point x="326" y="-10" type="curve" smooth="yes"/>
      <point x="395" y="-10"/>
      <point x="442" y="2"/>
      <point x="463" y="8" type="curve"/>
      <point x="463" y="80" type="line"/>
      <point x="447" y="76"/>
      <point x="432" y="74"/>
      <point x="413" y="74" type="curve" smooth="yes"/>
      <point x="373" y="74"/>
      <point x="355" y="97"/>
      <point x="355" y="144" type="curve" smooth="yes"/>
      <point x="355" y="591" type="line" smooth="yes"/>
      <point x="355" y="641"/>
      <point x="385" y="648"/>
      <point x="411" y="648" type="curve" smooth="yes"/>
      <point x="463" y="648" type="line"/>
      <point x="463" y="714" type="line"/>
      <point x="16" y="714" type="line"/>
      <point x="16" y="648" type="line"/>
      <point x="71" y="648" type="line" smooth="yes"/>
      <point x="98" y="648"/>
      <point x="122" y="641"/>
      <point x="122" y="591" type="curve" smooth="yes"/>
      <point x="122" y="214" type="line" smooth="yes"/>
      <point x="122" y="46"/>
      <point x="190" y="-10"/>
    </contour>
  </outline>
</glyph>
<glyph name="uni019C" format="2">
  <advance width="1437"/>
  <unicode hex="019C"/>
  <anchor x="719" y="0" name="bottom"/>
  <anchor x="719" y="714" name="top"/>
  <outline>
    <contour>
      <point x="379" y="-10" type="curve" smooth="yes"/>
      <point x="515" y="-10"/>
      <point x="568" y="43"/>
      <point x="609" y="87" type="curve"/>
      <point x="644" y="35"/>
      <point x="702" y="-10"/>
      <point x="827" y="-10" type="curve" smooth="yes"/>
      <point x="931" y="-10"/>
      <point x="983" y="21"/>
      <point x="1032" y="57" type="curve"/>
      <point x="1036" y="57" type="line"/>
      <point x="1057" y="0" type="line"/>
      <point x="1349" y="0" type="line"/>
      <point x="1349" y="66" type="line"/>
      <point x="1301" y="66" type="line" smooth="yes"/>
      <point x="1271" y="66"/>
      <point x="1247" y="82"/>
      <point x="1247" y="128" type="curve" smooth="yes"/>
      <point x="1247" y="590" type="line" smooth="yes"/>
      <point x="1247" y="634"/>
      <point x="1265" y="648"/>
      <point x="1307" y="648" type="curve" smooth="yes"/>
      <point x="1349" y="648" type="line"/>
      <point x="1349" y="714" type="line"/>
      <point x="940" y="714" type="line"/>
      <point x="940" y="648" type="line"/>
      <point x="966" y="648" type="line" smooth="yes"/>
      <point x="1007" y="648"/>
      <point x="1027" y="634"/>
      <point x="1027" y="590" type="curve" smooth="yes"/>
      <point x="1027" y="248" type="line" smooth="yes"/>
      <point x="1027" y="136"/>
      <point x="985" y="81"/>
      <point x="905" y="81" type="curve" smooth="yes"/>
      <point x="834" y="81"/>
      <point x="800" y="122"/>
      <point x="800" y="238" type="curve" smooth="yes"/>
      <point x="800" y="590" type="line" smooth="yes"/>
      <point x="800" y="634"/>
      <point x="819" y="648"/>
      <point x="859" y="648" type="curve" smooth="yes"/>
      <point x="887" y="648" type="line"/>
      <point x="887" y="714" type="line"/>
      <point x="490" y="714" type="line"/>
      <point x="490" y="648" type="line"/>
      <point x="517" y="648" type="line" smooth="yes"/>
      <point x="556" y="648"/>
      <point x="580" y="634"/>
      <point x="580" y="594" type="curve" smooth="yes"/>
      <point x="580" y="265" type="line" smooth="yes"/>
      <point x="580" y="158"/>
      <point x="541" y="81"/>
      <point x="455" y="81" type="curve" smooth="yes"/>
      <point x="377" y="81"/>
      <point x="352" y="116"/>
      <point x="352" y="248" type="curve" smooth="yes"/>
      <point x="352" y="590" type="line" smooth="yes"/>
      <point x="352" y="634"/>
      <point x="372" y="648"/>
      <point x="412" y="648" type="curve" smooth="yes"/>
      <point x="437" y="648" type="line"/>
      <point x="437" y="714" type="line"/>
      <point x="29" y="714" type="line"/>
      <point x="29" y="648" type="line"/>
      <point x="71" y="648" type="line" smooth="yes"/>
      <point x="112" y="648"/>
      <point x="132" y="634"/>
      <point x="132" y="594" type="curve" smooth="yes"/>
      <point x="132" y="261" type="line" smooth="yes"/>
      <point x="132" y="78"/>
      <point x="193" y="-10"/>
    </contour>
  </outline>
</glyph>
<glyph name="uni019E" format="2">
  <advance width="797"/>
  <unicode hex="019E"/>
  <anchor x="399" y="-240" name="bottom"/>
  <anchor x="399" y="536" name="top"/>
  <outline>
    <contour>
      <point x="387" y="-240" type="line"/>
      <point x="769" y="-240" type="line"/>
      <point x="769" y="-174" type="line"/>
      <point x="764" y="-174" type="line" smooth="yes"/>
      <point x="712" y="-174"/>
      <point x="695" y="-160"/>
      <point x="695" y="-103" type="curve" smooth="yes"/>
      <point x="695" y="363" type="line" smooth="yes"/>
      <point x="695" y="501"/>
      <point x="624" y="552"/>
      <point x="506" y="552" type="curve" smooth="yes"/>
      <point x="429" y="552"/>
      <point x="363" y="528"/>
      <point x="330" y="477" type="curve"/>
      <point x="324" y="477" type="line"/>
      <point x="309" y="536" type="line"/>
      <point x="23" y="536" type="line"/>
      <point x="23" y="470" type="line"/>
      <point x="26" y="470" type="line" smooth="yes"/>
      <point x="77" y="470"/>
      <point x="102" y="461"/>
      <point x="102" y="408" type="curve" smooth="yes"/>
      <point x="102" y="132" type="line" smooth="yes"/>
      <point x="102" y="82"/>
      <point x="81" y="66"/>
      <point x="28" y="66" type="curve" smooth="yes"/>
      <point x="17" y="66" type="line"/>
      <point x="17" y="0" type="line"/>
      <point x="407" y="0" type="line"/>
      <point x="407" y="66" type="line"/>
      <point x="400" y="66" type="line" smooth="yes"/>
      <point x="349" y="66"/>
      <point x="329" y="77"/>
      <point x="329" y="129" type="curve" smooth="yes"/>
      <point x="329" y="296" type="line" smooth="yes"/>
      <point x="329" y="378"/>
      <point x="348" y="442"/>
      <point x="405" y="442" type="curve" smooth="yes"/>
      <point x="455" y="442"/>
      <point x="469" y="394"/>
      <point x="469" y="309" type="curve" smooth="yes"/>
      <point x="469" y="-105" type="line" smooth="yes"/>
      <point x="469" y="-161"/>
      <point x="450" y="-174"/>
      <point x="398" y="-174" type="curve" smooth="yes"/>
      <point x="387" y="-174" type="line"/>
    </contour>
  </outline>
</glyph>
<glyph name="uni01A2" format="2">
  <advance width="1460"/>
  <unicode hex="01A2"/>
  <anchor x="731" y="0" name="bottom"/>
  <anchor x="731" y="714" name="top"/>
  <outline>
    <contour>
      <point x="972" y="-240" type="line"/>
      <point x="1419" y="-240" type="line"/>
      <point x="1419" y="-174" type="line"/>
      <point x="1369" y="-174" type="line" smooth="yes"/>
      <point x="1324" y="-174"/>
      <point x="1313" y="-154"/>
      <point x="1313" y="-105" type="curve" smooth="yes"/>
      <point x="1313" y="408" type="line" smooth="yes"/>
      <point x="1313" y="656"/>
      <point x="1225" y="724"/>
      <point x="1004" y="724" type="curve" smooth="yes"/>
      <point x="874" y="724"/>
      <point x="793" y="675"/>
      <point x="754" y="618" type="curve"/>
      <point x="704" y="673"/>
      <point x="617" y="725"/>
      <point x="450" y="725" type="curve" smooth="yes"/>
      <point x="189" y="725"/>
      <point x="63" y="580"/>
      <point x="63" y="359" type="curve" smooth="yes"/>
      <point x="63" y="137"/>
      <point x="189" y="-10"/>
      <point x="464" y="-10" type="curve" smooth="yes"/>
      <point x="727" y="-10"/>
      <point x="827" y="125"/>
      <point x="824" y="335" type="curve" smooth="yes"/>
      <point x="823" y="445" type="line" smooth="yes"/>
      <point x="822" y="569"/>
      <point x="849" y="648"/>
      <point x="952" y="648" type="curve" smooth="yes"/>
      <point x="1049" y="648"/>
      <point x="1077" y="576"/>
      <point x="1077" y="460" type="curve" smooth="yes"/>
      <point x="1077" y="-115" type="line" smooth="yes"/>
      <point x="1077" y="-159"/>
      <point x="1050" y="-174"/>
      <point x="1010" y="-174" type="curve" smooth="yes"/>
      <point x="972" y="-174" type="line"/>
    </contour>
    <contour>
      <point x="464" y="68" type="curve" smooth="yes"/>
      <point x="346" y="68"/>
      <point x="307" y="151"/>
      <point x="307" y="358" type="curve" smooth="yes"/>
      <point x="307" y="541"/>
      <point x="346" y="647"/>
      <point x="461" y="647" type="curve" smooth="yes"/>
      <point x="575" y="647"/>
      <point x="605" y="556"/>
      <point x="605" y="437" type="curve" smooth="yes"/>
      <point x="605" y="226" type="line" smooth="yes"/>
      <point x="605" y="142"/>
      <point x="569" y="68"/>
    </contour>
  </outline>
</glyph>
<glyph name="uni01A3" format="2">
  <advance width="1180"/>
  <unicode hex="01A3"/>
  <anchor x="590" y="-240" name="bottom"/>
  <anchor x="590" y="536" name="top"/>
  <outline>
    <contour>
      <point x="843" y="-240" type="line"/>
      <point x="1143" y="-240" type="line"/>
      <point x="1143" y="-174" type="line"/>
      <point x="1140" y="-174" type="line" smooth="yes"/>
      <point x="1087" y="-174"/>
      <point x="1070" y="-165"/>
      <point x="1070" y="-104" type="curve" smooth="yes"/>
      <point x="1070" y="317" type="line" smooth="yes"/>
      <point x="1070" y="494"/>
      <point x="1005" y="552"/>
      <point x="850" y="552" type="curve" smooth="yes"/>
      <point x="731" y="552"/>
      <point x="670" y="506"/>
      <point x="642" y="433" type="curve"/>
      <point x="639" y="433" type="line"/>
      <point x="593" y="514"/>
      <point x="505" y="552"/>
      <point x="369" y="552" type="curve" smooth="yes"/>
      <point x="153" y="552"/>
      <point x="48" y="459"/>
      <point x="48" y="272" type="curve" smooth="yes"/>
      <point x="48" y="84"/>
      <point x="167" y="-10"/>
      <point x="363" y="-10" type="curve" smooth="yes"/>
      <point x="571" y="-10"/>
      <point x="681" y="85"/>
      <point x="681" y="273" type="curve" smooth="yes"/>
      <point x="681" y="310" type="line" smooth="yes"/>
      <point x="681" y="389"/>
      <point x="697" y="442"/>
      <point x="765" y="442" type="curve" smooth="yes"/>
      <point x="830" y="442"/>
      <point x="843" y="402"/>
      <point x="843" y="304" type="curve" smooth="yes"/>
    </contour>
    <contour>
      <point x="364" y="66" type="curve" smooth="yes"/>
      <point x="300" y="66"/>
      <point x="278" y="139"/>
      <point x="278" y="272" type="curve" smooth="yes"/>
      <point x="278" y="406"/>
      <point x="299" y="475"/>
      <point x="364" y="475" type="curve" smooth="yes"/>
      <point x="427" y="475"/>
      <point x="450" y="406"/>
      <point x="450" y="272" type="curve" smooth="yes"/>
      <point x="450" y="139"/>
      <point x="428" y="66"/>
    </contour>
  </outline>
</glyph>
<glyph name="uni01BE" format="2">
  <advance width="613"/>
  <unicode hex="01BE"/>
  <anchor x="306" y="0" name="bottom"/>
  <anchor x="306" y="662" name="top"/>
  <outline>
    <contour>
      <point x="296" y="-10" type="curve" smooth="yes"/>
      <point x="478" y="-10"/>
      <point x="570" y="70"/>
      <point x="570" y="189" type="curve" smooth="yes"/>
      <point x="570" y="299"/>
      <point x="493" y="321"/>
      <point x="432" y="342" type="curve" smooth="yes"/>
      <point x="387" y="357"/>
      <point x="369" y="382"/>
      <point x="369" y="424" type="curve" smooth="yes"/>
      <point x="369" y="452" type="line"/>
      <point x="516" y="452" type="line"/>
      <point x="516" y="536" type="line"/>
      <point x="369" y="536" type="line"/>
      <point x="369" y="662" type="line"/>
      <point x="241" y="662" type="line"/>
      <point x="230" y="624"/>
      <point x="209" y="588"/>
      <point x="188" y="570" type="curve" smooth="yes"/>
      <point x="165" y="550"/>
      <point x="122" y="518"/>
      <point x="56" y="518" type="curve"/>
      <point x="56" y="452" type="line"/>
      <point x="142" y="452" type="line"/>
      <point x="142" y="372" type="line" smooth="yes"/>
      <point x="142" y="277"/>
      <point x="214" y="240"/>
      <point x="291" y="214" type="curve" smooth="yes"/>
      <point x="349" y="195"/>
      <point x="401" y="172"/>
      <point x="401" y="124" type="curve" smooth="yes"/>
      <point x="401" y="95"/>
      <point x="371" y="61"/>
      <point x="294" y="61" type="curve" smooth="yes"/>
      <point x="202" y="61"/>
      <point x="161" y="97"/>
      <point x="161" y="194" type="curve"/>
      <point x="93" y="194"/>
      <point x="42" y="174"/>
      <point x="42" y="110" type="curve" smooth="yes"/>
      <point x="42" y="45"/>
      <point x="100" y="-10"/>
    </contour>
  </outline>
</glyph>
<glyph name="uni01C0" format="2">
  <advance width="434"/>
  <unicode hex="01C0"/>
  <anchor x="217" y="0" name="bottom"/>
  <anchor x="217" y="760" name="top"/>
  <outline>
    <contour>
      <point x="154" y="0" type="line"/>
      <point x="280" y="0" type="line"/>
      <point x="280" y="760" type="line"/>
      <point x="154" y="760" type="line"/>
    </contour>
  </outline>
</glyph>
<glyph name="uni01E4" format="2">
  <advance width="944"/>
  <unicode hex="01E4"/>
  <anchor x="472" y="0" name="bottom"/>
  <anchor x="472" y="714" name="top"/>
  <outline>
    <contour>
      <point x="513" y="-10" type="curve" smooth="yes"/>
      <point x="623" y="-10"/>
      <point x="720" y="11"/>
      <point x="821" y="54" type="curve"/>
      <point x="821" y="149" type="line"/>
      <point x="900" y="149" type="line"/>
      <point x="900" y="225" type="line"/>
      <point x="821" y="225" type="line"/>
      <point x="821" y="231" type="line" smooth="yes"/>
      <point x="821" y="275"/>
      <point x="832" y="303"/>
      <point x="882" y="303" type="curve" smooth="yes"/>
      <point x="892" y="303" type="line"/>
      <point x="892" y="369" type="line"/>
      <point x="492" y="369" type="line"/>
      <point x="492" y="303" type="line"/>
      <point x="515" y="303" type="line" smooth="yes"/>
      <point x="572" y="303"/>
      <point x="588" y="275"/>
      <point x="588" y="235" type="curve" smooth="yes"/>
      <point x="588" y="225" type="line"/>
      <point x="434" y="225" type="line"/>
      <point x="434" y="149" type="line"/>
      <point x="588" y="149" type="line"/>
      <point x="588" y="72" type="line"/>
      <point x="566" y="72"/>
      <point x="548" y="72"/>
      <point x="529" y="72" type="curve" smooth="yes"/>
      <point x="367" y="72"/>
      <point x="308" y="174"/>
      <point x="308" y="358" type="curve" smooth="yes"/>
      <point x="308" y="540"/>
      <point x="365" y="647"/>
      <point x="516" y="647" type="curve" smooth="yes"/>
      <point x="603" y="647"/>
      <point x="653" y="604"/>
      <point x="653" y="500" type="curve"/>
      <point x="778" y="500"/>
      <point x="834" y="551"/>
      <point x="834" y="603" type="curve" smooth="yes"/>
      <point x="834" y="670"/>
      <point x="726" y="724"/>
      <point x="518" y="724" type="curve" smooth="yes"/>
      <point x="220" y="724"/>
      <point x="63" y="574"/>
      <point x="63" y="358" type="curve" smooth="yes"/>
      <point x="63" y="137"/>
      <point x="210" y="-10"/>
    </contour>
  </outline>
</glyph>
<glyph name="uni0220" format="2">
  <advance width="1008"/>
  <unicode hex="0220"/>
  <anchor x="505" y="-240" name="bottom"/>
  <anchor x="505" y="714" name="top"/>
  <outline>
    <contour>
      <point x="517" y="-240" type="line"/>
      <point x="965" y="-240" type="line"/>
      <point x="965" y="-174" type="line"/>
      <point x="927" y="-174" type="line" smooth="yes"/>
      <point x="886" y="-174"/>
      <point x="858" y="-163"/>
      <point x="858" y="-118" type="curve" smooth="yes"/>
      <point x="858" y="509" type="line" smooth="yes"/>
      <point x="858" y="651"/>
      <point x="767" y="730"/>
      <point x="600" y="730" type="curve" smooth="yes"/>
      <point x="469" y="730"/>
      <point x="409" y="684"/>
      <point x="371" y="654" type="curve"/>
      <point x="364" y="654" type="line"/>
      <point x="349" y="714" type="line"/>
      <point x="24" y="714" type="line"/>
      <point x="24" y="648" type="line"/>
      <point x="63" y="648" type="line" smooth="yes"/>
      <point x="103" y="648"/>
      <point x="132" y="635"/>
      <point x="132" y="594" type="curve" smooth="yes"/>
      <point x="132" y="129" type="line" smooth="yes"/>
      <point x="132" y="79"/>
      <point x="105" y="66"/>
      <point x="63" y="66" type="curve" smooth="yes"/>
      <point x="24" y="66" type="line"/>
      <point x="24" y="0" type="line"/>
      <point x="473" y="0" type="line"/>
      <point x="473" y="66" type="line"/>
      <point x="433" y="66" type="line" smooth="yes"/>
      <point x="390" y="66"/>
      <point x="364" y="79"/>
      <point x="364" y="129" type="curve" smooth="yes"/>
      <point x="364" y="453" type="line" smooth="yes"/>
      <point x="364" y="561"/>
      <point x="400" y="625"/>
      <point x="498" y="625" type="curve" smooth="yes"/>
      <point x="588" y="625"/>
      <point x="625" y="571"/>
      <point x="625" y="448" type="curve" smooth="yes"/>
      <point x="625" y="-111" type="line" smooth="yes"/>
      <point x="625" y="-161"/>
      <point x="600" y="-174"/>
      <point x="558" y="-174" type="curve" smooth="yes"/>
      <point x="517" y="-174" type="line"/>
    </contour>
  </outline>
</glyph>
<glyph name="uni0225" format="2">
  <advance width="632"/>
  <unicode hex="0225"/>
  <anchor x="316" y="0" name="bottom"/>
  <anchor x="316" y="536" name="top"/>
  <outline>
    <contour>
      <point x="479" y="-223" type="curve"/>
      <point x="572" y="-222"/>
      <point x="646" y="-176"/>
      <point x="646" y="-81" type="curve" smooth="yes"/>
      <point x="646" y="35"/>
      <point x="563" y="84"/>
      <point x="417" y="84" type="curve" smooth="yes"/>
      <point x="253" y="84" type="line"/>
      <point x="602" y="491" type="line"/>
      <point x="602" y="536" type="line"/>
      <point x="56" y="536" type="line"/>
      <point x="41" y="349" type="line"/>
      <point x="126" y="349" type="line"/>
      <point x="138" y="395" type="line" smooth="yes"/>
      <point x="153" y="450"/>
      <point x="180" y="452"/>
      <point x="223" y="452" type="curve" smooth="yes"/>
      <point x="349" y="452" type="line"/>
      <point x="0" y="43" type="line"/>
      <point x="0" y="0" type="line"/>
      <point x="370" y="0" type="line" smooth="yes"/>
      <point x="459" y="0"/>
      <point x="506" y="-24"/>
      <point x="506" y="-114" type="curve" smooth="yes"/>
      <point x="506" y="-139"/>
      <point x="499" y="-172"/>
    </contour>
  </outline>
</glyph>
<glyph name="uni0242" format="2">
  <advance width="756"/>
  <unicode hex="0242"/>
  <anchor x="379" y="0" name="bottom"/>
  <anchor x="379" y="536" name="top"/>
  <outline>
    <contour>
      <point x="164" y="0" type="line"/>
      <point x="573" y="0" type="line"/>
      <point x="573" y="66" type="line"/>
      <point x="556" y="66" type="line" smooth="yes"/>
      <point x="535" y="66"/>
      <point x="482" y="74"/>
      <point x="482" y="129" type="curve" smooth="yes"/>
      <point x="482" y="138" type="line"/>
      <point x="514" y="150" type="line" smooth="yes"/>
      <point x="622" y="194"/>
      <point x="694" y="253"/>
      <point x="694" y="355" type="curve" smooth="yes"/>
      <point x="694" y="482"/>
      <point x="579" y="550"/>
      <point x="365" y="550" type="curve" smooth="yes"/>
      <point x="158" y="550"/>
      <point x="76" y="477"/>
      <point x="76" y="404" type="curve" smooth="yes"/>
      <point x="76" y="342"/>
      <point x="120" y="307"/>
      <point x="284" y="307" type="curve"/>
      <point x="284" y="444"/>
      <point x="309" y="481"/>
      <point x="376" y="481" type="curve" smooth="yes"/>
      <point x="420" y="481"/>
      <point x="449" y="456"/>
      <point x="449" y="402" type="curve" smooth="yes"/>
      <point x="449" y="317"/>
      <point x="377" y="273"/>
      <point x="314" y="245" type="curve" smooth="yes"/>
      <point x="256" y="220" type="line"/>
      <point x="256" y="129" type="line" smooth="yes"/>
      <point x="256" y="78"/>
      <point x="198" y="66"/>
      <point x="179" y="66" type="curve" smooth="yes"/>
      <point x="164" y="66" type="line"/>
    </contour>
  </outline>
</glyph>
<glyph name="uni0246" format="2">
  <advance width="787"/>
  <unicode hex="0246"/>
  <anchor x="394" y="0" name="bottom"/>
  <anchor x="394" y="714" name="top"/>
  <anchor x="767" y="714" name="topright"/>
  <outline>
    <contour>
      <point x="225" y="-104" type="line"/>
      <point x="325" y="-104" type="line"/>
      <point x="651" y="760" type="line"/>
      <point x="556" y="760" type="line"/>
    </contour>
    <component base="E"/>
  </outline>
</glyph>
<glyph name="uni0256" format="2">
  <advance width="787"/>
  <unicode hex="0256"/>
  <anchor x="394" y="-240" name="bottom"/>
  <anchor x="394" y="760" name="top"/>
  <outline>
    <contour>
      <point x="654" y="-240" type="curve" smooth="yes"/>
      <point x="751" y="-240"/>
      <point x="798" y="-232"/>
      <point x="836" y="-224" type="curve"/>
      <point x="836" y="-158" type="line"/>
      <point x="807" y="-162"/>
      <point x="777" y="-166"/>
      <point x="754" y="-166" type="curve" smooth="yes"/>
      <point x="701" y="-166"/>
      <point x="675" y="-140"/>
      <point x="675" y="-90" type="curve" smooth="yes"/>
      <point x="675" y="760" type="line"/>
      <point x="346" y="760" type="line"/>
      <point x="346" y="694" type="line"/>
      <point x="354" y="694" type="line" smooth="yes"/>
      <point x="406" y="694"/>
      <point x="448" y="689"/>
      <point x="448" y="639" type="curve" smooth="yes"/>
      <point x="448" y="604" type="line" smooth="yes"/>
      <point x="448" y="563"/>
      <point x="446" y="548"/>
      <point x="452" y="488" type="curve" smooth="yes"/>
      <point x="444" y="488" type="line"/>
      <point x="412" y="523"/>
      <point x="365" y="550"/>
      <point x="280" y="550" type="curve" smooth="yes"/>
      <point x="132" y="550"/>
      <point x="46" y="460"/>
      <point x="46" y="267" type="curve" smooth="yes"/>
      <point x="46" y="75"/>
      <point x="132" y="-10"/>
      <point x="283" y="-10" type="curve" smooth="yes"/>
      <point x="378" y="-10"/>
      <point x="419" y="11"/>
      <point x="453" y="44" type="curve"/>
      <point x="458" y="44" type="line"/>
      <point x="451" y="11"/>
      <point x="448" y="-11"/>
      <point x="448" y="-51" type="curve" smooth="yes"/>
      <point x="448" y="-62" type="line" smooth="yes"/>
      <point x="448" y="-181"/>
      <point x="500" y="-240"/>
    </contour>
    <contour>
      <point x="356" y="80" type="curve" smooth="yes"/>
      <point x="296" y="80"/>
      <point x="274" y="143"/>
      <point x="274" y="270" type="curve" smooth="yes"/>
      <point x="274" y="393"/>
      <point x="296" y="462"/>
      <point x="357" y="462" type="curve" smooth="yes"/>
      <point x="427" y="462"/>
      <point x="448" y="393"/>
      <point x="448" y="271" type="curve" smooth="yes"/>
      <point x="448" y="138"/>
      <point x="427" y="80"/>
    </contour>
  </outline>
</glyph>
<glyph name="uni0258" format="2">
  <advance width="697"/>
  <unicode hex="0258"/>
  <anchor x="348" y="0" name="bottom"/>
  <anchor x="348" y="536" name="top"/>
  <outline>
    <contour>
      <point x="329" y="-10" type="curve" smooth="yes"/>
      <point x="549" y="-10"/>
      <point x="654" y="91"/>
      <point x="654" y="267" type="curve" smooth="yes"/>
      <point x="654" y="455"/>
      <point x="541" y="552"/>
      <point x="343" y="552" type="curve" smooth="yes"/>
      <point x="160" y="552"/>
      <point x="48" y="470"/>
      <point x="48" y="310" type="curve" smooth="yes"/>
      <point x="48" y="251" type="line"/>
      <point x="426" y="251" type="line"/>
      <point x="422" y="133"/>
      <point x="371" y="81"/>
      <point x="271" y="81" type="curve" smooth="yes"/>
      <point x="191" y="81"/>
      <point x="147" y="121"/>
      <point x="121" y="177" type="curve"/>
      <point x="92" y="169"/>
      <point x="70" y="149"/>
      <point x="70" y="121" type="curve" smooth="yes"/>
      <point x="70" y="56"/>
      <point x="141" y="-10"/>
    </contour>
    <contour>
      <point x="270" y="328" type="line"/>
      <point x="270" y="425"/>
      <point x="290" y="473"/>
      <point x="337" y="473" type="curve" smooth="yes"/>
      <point x="388" y="473"/>
      <point x="424" y="424"/>
      <point x="423" y="328" type="curve"/>
    </contour>
  </outline>
</glyph>
<glyph name="uni0263" format="2">
  <advance width="730"/>
  <unicode hex="0263"/>
  <anchor x="365" y="-240" name="bottom"/>
  <anchor x="365" y="536" name="top"/>
  <outline>
    <contour>
      <point x="321" y="-240" type="curve" smooth="yes"/>
      <point x="440" y="-240"/>
      <point x="506" y="-192"/>
      <point x="506" y="-82" type="curve" smooth="yes"/>
      <point x="506" y="1"/>
      <point x="472" y="67"/>
      <point x="436" y="140" type="curve"/>
      <point x="560" y="395" type="line" smooth="yes"/>
      <point x="577" y="432"/>
      <point x="607" y="466"/>
      <point x="668" y="470" type="curve" smooth="yes"/>
      <point x="654" y="470" type="line"/>
      <point x="654" y="536" type="line"/>
      <point x="399" y="536" type="line"/>
      <point x="399" y="470" type="line"/>
      <point x="392" y="470" type="line" smooth="yes"/>
      <point x="445" y="466"/>
      <point x="467" y="467"/>
      <point x="467" y="433" type="curve" smooth="yes"/>
      <point x="467" y="421"/>
      <point x="453" y="395"/>
      <point x="445" y="378" type="curve" smooth="yes"/>
      <point x="394" y="263" type="line" smooth="yes"/>
      <point x="394" y="262"/>
      <point x="386" y="243"/>
      <point x="379" y="231" type="curve"/>
      <point x="367" y="245"/>
      <point x="361" y="255"/>
      <point x="357" y="261" type="curve" smooth="yes"/>
      <point x="300" y="386" type="line" smooth="yes"/>
      <point x="294" y="400"/>
      <point x="284" y="424"/>
      <point x="284" y="434" type="curve" smooth="yes"/>
      <point x="284" y="459"/>
      <point x="305" y="470"/>
      <point x="366" y="470" type="curve" smooth="yes"/>
      <point x="347" y="470" type="line"/>
      <point x="347" y="536" type="line"/>
      <point x="-12" y="536" type="line"/>
      <point x="-12" y="470" type="line"/>
      <point x="24" y="470"/>
      <point x="30" y="467"/>
      <point x="54" y="428" type="curve" smooth="yes"/>
      <point x="255" y="75" type="line"/>
      <point x="202" y="-10"/>
      <point x="184" y="-40"/>
      <point x="184" y="-109" type="curve" smooth="yes"/>
      <point x="184" y="-197"/>
      <point x="246" y="-240"/>
    </contour>
    <contour>
      <point x="309" y="-170" type="curve" smooth="yes"/>
      <point x="288" y="-170"/>
      <point x="274" y="-152"/>
      <point x="274" y="-121" type="curve" smooth="yes"/>
      <point x="274" y="-86"/>
      <point x="283" y="-50"/>
      <point x="305" y="-9" type="curve"/>
      <point x="327" y="-55"/>
      <point x="340" y="-96"/>
      <point x="340" y="-123" type="curve" smooth="yes"/>
      <point x="340" y="-145"/>
      <point x="331" y="-170"/>
    </contour>
  </outline>
</glyph>
<glyph name="uni0268" format="2">
  <advance width="439"/>
  <unicode hex="0268"/>
  <anchor x="219" y="0" name="bottom"/>
  <anchor x="219" y="783" name="top"/>
  <outline>
    <contour>
      <point x="14" y="0" type="line"/>
      <point x="414" y="0" type="line"/>
      <point x="414" y="66" type="line"/>
      <point x="401" y="66" type="line" smooth="yes"/>
      <point x="358" y="66"/>
      <point x="328" y="85"/>
      <point x="328" y="135" type="curve" smooth="yes"/>
      <point x="328" y="229" type="line"/>
      <point x="433" y="229" type="line"/>
      <point x="433" y="300" type="line"/>
      <point x="328" y="300" type="line"/>
      <point x="328" y="536" type="line"/>
      <point x="6" y="536" type="line"/>
      <point x="6" y="470" type="line"/>
      <point x="28" y="470" type="line" smooth="yes"/>
      <point x="70" y="470"/>
      <point x="102" y="451"/>
      <point x="102" y="405" type="curve" smooth="yes"/>
      <point x="102" y="300" type="line"/>
      <point x="4" y="300" type="line"/>
      <point x="4" y="229" type="line"/>
      <point x="102" y="229" type="line"/>
      <point x="102" y="141" type="line" smooth="yes"/>
      <point x="102" y="86"/>
      <point x="72" y="66"/>
      <point x="28" y="66" type="curve" smooth="yes"/>
      <point x="14" y="66" type="line"/>
    </contour>
    <contour>
      <point x="209" y="613" type="curve" smooth="yes"/>
      <point x="275" y="613"/>
      <point x="334" y="645"/>
      <point x="334" y="698" type="curve" smooth="yes"/>
      <point x="334" y="755"/>
      <point x="275" y="783"/>
      <point x="209" y="783" type="curve" smooth="yes"/>
      <point x="139" y="783"/>
      <point x="85" y="755"/>
      <point x="85" y="698" type="curve" smooth="yes"/>
      <point x="85" y="645"/>
      <point x="139" y="613"/>
    </contour>
  </outline>
</glyph>
<glyph name="uni0271" format="2">
  <advance width="1185"/>
  <unicode hex="0271"/>
  <anchor x="592" y="-228" name="bottom"/>
  <anchor x="592" y="536" name="top"/>
  <outline>
    <contour>
      <point x="791" y="-228" type="curve" smooth="yes"/>
      <point x="980" y="-228"/>
      <point x="1083" y="-108"/>
      <point x="1083" y="57" type="curve" smooth="yes"/>
      <point x="1083" y="363" type="line" smooth="yes"/>
      <point x="1083" y="496"/>
      <point x="1010" y="552"/>
      <point x="882" y="552" type="curve" smooth="yes"/>
      <point x="780" y="552"/>
      <point x="722" y="512"/>
      <point x="696" y="478" type="curve"/>
      <point x="690" y="478" type="line"/>
      <point x="663" y="526"/>
      <point x="608" y="552"/>
      <point x="521" y="552" type="curve" smooth="yes"/>
      <point x="408" y="552"/>
      <point x="359" y="512"/>
      <point x="328" y="477" type="curve"/>
      <point x="323" y="477" type="line"/>
      <point x="308" y="536" type="line"/>
      <point x="17" y="536" type="line"/>
      <point x="17" y="476" type="line"/>
      <point x="22" y="476" type="line" smooth="yes"/>
      <point x="73" y="476"/>
      <point x="101" y="467"/>
      <point x="101" y="415" type="curve" smooth="yes"/>
      <point x="101" y="132" type="line" smooth="yes"/>
      <point x="101" y="75"/>
      <point x="74" y="66"/>
      <point x="21" y="66" type="curve" smooth="yes"/>
      <point x="17" y="66" type="line"/>
      <point x="17" y="0" type="line"/>
      <point x="407" y="0" type="line"/>
      <point x="407" y="66" type="line"/>
      <point x="402" y="66" type="line" smooth="yes"/>
      <point x="351" y="66"/>
      <point x="327" y="77"/>
      <point x="327" y="129" type="curve" smooth="yes"/>
      <point x="327" y="296" type="line" smooth="yes"/>
      <point x="327" y="373"/>
      <point x="349" y="443"/>
      <point x="408" y="443" type="curve" smooth="yes"/>
      <point x="462" y="443"/>
      <point x="477" y="394"/>
      <point x="477" y="309" type="curve" smooth="yes"/>
      <point x="477" y="0" type="line"/>
      <point x="776" y="0" type="line"/>
      <point x="776" y="66" type="line"/>
      <point x="772" y="66" type="line" smooth="yes"/>
      <point x="719" y="66"/>
      <point x="703" y="75"/>
      <point x="703" y="136" type="curve" smooth="yes"/>
      <point x="703" y="306" type="line" smooth="yes"/>
      <point x="703" y="380"/>
      <point x="727" y="443"/>
      <point x="785" y="443" type="curve" smooth="yes"/>
      <point x="837" y="443"/>
      <point x="856" y="394"/>
      <point x="856" y="309" type="curve" smooth="yes"/>
      <point x="856" y="-21" type="line" smooth="yes"/>
      <point x="856" y="-114"/>
      <point x="830" y="-153"/>
      <point x="786" y="-153" type="curve" smooth="yes"/>
      <point x="752" y="-153"/>
      <point x="734" y="-125"/>
      <point x="736" y="-41" type="curve"/>
      <point x="632" y="-44"/>
      <point x="589" y="-73"/>
      <point x="589" y="-127" type="curve" smooth="yes"/>
      <point x="589" y="-199"/>
      <point x="679" y="-228"/>
    </contour>
  </outline>
</glyph>
<glyph name="uni02A2" format="2">
  <advance width="637"/>
  <unicode hex="02A2"/>
  <anchor x="318" y="0" name="bottom"/>
  <anchor x="318" y="766" name="top"/>
  <outline>
    <contour>
      <point x="133" y="0" type="line"/>
      <point x="515" y="0" type="line"/>
      <point x="515" y="61" type="line"/>
      <point x="504" y="61" type="line" smooth="yes"/>
      <point x="453" y="61"/>
      <point x="427" y="78"/>
      <point x="427" y="131" type="curve" smooth="yes"/>
      <point x="427" y="177" type="line"/>
      <point x="552" y="177" type="line"/>
      <point x="552" y="247" type="line"/>
      <point x="427" y="247" type="line"/>
      <point x="427" y="378" type="line"/>
      <point x="296" y="409"/>
      <point x="269" y="504"/>
      <point x="269" y="607" type="curve" smooth="yes"/>
      <point x="269" y="664"/>
      <point x="286" y="699"/>
      <point x="342" y="699" type="curve" smooth="yes"/>
      <point x="410" y="699"/>
      <point x="420" y="655"/>
      <point x="420" y="530" type="curve"/>
      <point x="567" y="530"/>
      <point x="609" y="559"/>
      <point x="609" y="623" type="curve" smooth="yes"/>
      <point x="609" y="704"/>
      <point x="547" y="766"/>
      <point x="339" y="766" type="curve" smooth="yes"/>
      <point x="163" y="766"/>
      <point x="44" y="720"/>
      <point x="44" y="564" type="curve" smooth="yes"/>
      <point x="44" y="454"/>
      <point x="95" y="383"/>
      <point x="222" y="314" type="curve"/>
      <point x="222" y="247" type="line"/>
      <point x="98" y="247" type="line"/>
      <point x="98" y="177" type="line"/>
      <point x="222" y="177" type="line"/>
      <point x="222" y="131" type="line" smooth="yes"/>
      <point x="222" y="78"/>
      <point x="193" y="61"/>
      <point x="144" y="61" type="curve" smooth="yes"/>
      <point x="133" y="61" type="line"/>
    </contour>
  </outline>
</glyph>
<glyph name="uni02A4" format="2">
  <advance width="1207"/>
  <unicode hex="02A4"/>
  <anchor x="603" y="-240" name="bottom"/>
  <anchor x="603" y="760" name="top"/>
  <outline>
    <contour>
      <point x="829" y="-240" type="curve" smooth="yes"/>
      <point x="1000" y="-240"/>
      <point x="1173" y="-176"/>
      <point x="1173" y="-2" type="curve" smooth="yes"/>
      <point x="1173" y="139"/>
      <point x="1051" y="208"/>
      <point x="896" y="216" type="curve"/>
      <point x="1150" y="427" type="line"/>
      <point x="1150" y="536" type="line"/>
      <point x="675" y="536" type="line"/>
      <point x="675" y="760" type="line"/>
      <point x="346" y="760" type="line"/>
      <point x="346" y="694" type="line"/>
      <point x="354" y="694" type="line" smooth="yes"/>
      <point x="406" y="694"/>
      <point x="448" y="689"/>
      <point x="448" y="639" type="curve" smooth="yes"/>
      <point x="448" y="604" type="line" smooth="yes"/>
      <point x="448" y="563"/>
      <point x="446" y="548"/>
      <point x="452" y="488" type="curve" smooth="yes"/>
      <point x="444" y="488" type="line"/>
      <point x="412" y="523"/>
      <point x="365" y="550"/>
      <point x="280" y="550" type="curve" smooth="yes"/>
      <point x="132" y="550"/>
      <point x="46" y="460"/>
      <point x="46" y="267" type="curve" smooth="yes"/>
      <point x="46" y="75"/>
      <point x="132" y="-10"/>
      <point x="283" y="-10" type="curve" smooth="yes"/>
      <point x="375" y="-10"/>
      <point x="429" y="18"/>
      <point x="464" y="63" type="curve"/>
      <point x="471" y="63" type="line"/>
      <point x="512" y="0" type="line"/>
      <point x="768" y="0" type="line"/>
      <point x="768" y="66" type="line"/>
      <point x="759" y="66" type="line" smooth="yes"/>
      <point x="702" y="66"/>
      <point x="675" y="87"/>
      <point x="675" y="151" type="curve" smooth="yes"/>
      <point x="675" y="397" type="line"/>
      <point x="993" y="397" type="line"/>
      <point x="747" y="186" type="line"/>
      <point x="747" y="145" type="line"/>
      <point x="788" y="145" type="line" smooth="yes"/>
      <point x="885" y="145"/>
      <point x="945" y="98"/>
      <point x="945" y="-12" type="curve" smooth="yes"/>
      <point x="945" y="-136"/>
      <point x="897" y="-172"/>
      <point x="822" y="-172" type="curve" smooth="yes"/>
      <point x="724" y="-172"/>
      <point x="695" y="-94"/>
      <point x="695" y="-18" type="curve"/>
      <point x="596" y="-18"/>
      <point x="559" y="-45"/>
      <point x="559" y="-101" type="curve" smooth="yes"/>
      <point x="559" y="-165"/>
      <point x="618" y="-240"/>
    </contour>
    <contour>
      <point x="356" y="80" type="curve" smooth="yes"/>
      <point x="296" y="80"/>
      <point x="274" y="143"/>
      <point x="274" y="270" type="curve" smooth="yes"/>
      <point x="274" y="393"/>
      <point x="296" y="462"/>
      <point x="357" y="462" type="curve" smooth="yes"/>
      <point x="427" y="462"/>
      <point x="448" y="393"/>
      <point x="448" y="271" type="curve" smooth="yes"/>
      <point x="448" y="138"/>
      <point x="427" y="80"/>
    </contour>
  </outline>
</glyph>
<glyph name="uni02AB" format="2">
  <advance width="942"/>
  <unicode hex="02AB"/>
  <anchor x="471" y="0" name="bottom"/>
  <anchor x="471" y="760" name="top"/>
  <outline>
    <contour>
      <point x="24" y="0" type="line"/>
      <point x="920" y="0" type="line"/>
      <point x="926" y="204" type="line"/>
      <point x="843" y="204" type="line"/>
      <point x="835" y="162" type="line" smooth="yes"/>
      <point x="820" y="90"/>
      <point x="794" y="84"/>
      <point x="728" y="84" type="curve" smooth="yes"/>
      <point x="623" y="84" type="line"/>
      <point x="908" y="491" type="line"/>
      <point x="908" y="536" type="line"/>
      <point x="337" y="536" type="line"/>
      <point x="337" y="760" type="line"/>
      <point x="24" y="760" type="line"/>
      <point x="24" y="694" type="line"/>
      <point x="36" y="694" type="line" smooth="yes"/>
      <point x="55" y="694"/>
      <point x="110" y="687"/>
      <point x="110" y="641" type="curve" smooth="yes"/>
      <point x="110" y="135" type="line" smooth="yes"/>
      <point x="110" y="85"/>
      <point x="80" y="66"/>
      <point x="36" y="66" type="curve" smooth="yes"/>
      <point x="24" y="66" type="line"/>
    </contour>
    <contour>
      <point x="338" y="-5" type="line"/>
      <point x="337" y="452" type="line"/>
      <point x="654" y="452" type="line"/>
    </contour>
  </outline>
</glyph>
<glyph name="uni02BE" format="2">
  <advance width="212"/>
  <unicode hex="02BE"/>
  <outline>
    <contour>
      <point x="30" y="579" type="line"/>
      <point x="120" y="579"/>
      <point x="182" y="621"/>
      <point x="182" y="699" type="curve" smooth="yes"/>
      <point x="182" y="777"/>
      <point x="120" y="819"/>
      <point x="30" y="819" type="curve"/>
      <point x="30" y="746" type="line"/>
      <point x="64" y="746"/>
      <point x="93" y="733"/>
      <point x="93" y="699" type="curve" smooth="yes"/>
      <point x="93" y="665"/>
      <point x="64" y="652"/>
      <point x="30" y="652" type="curve"/>
    </contour>
  </outline>
</glyph>
<glyph name="uni02C0" format="2">
  <advance width="416"/>
  <unicode hex="02C0"/>
  <outline>
    <contour>
      <point x="126" y="477" type="line"/>
      <point x="250" y="477" type="line"/>
      <point x="250" y="543" type="line"/>
      <point x="314" y="557"/>
      <point x="376" y="588"/>
      <point x="376" y="647" type="curve" smooth="yes"/>
      <point x="376" y="711"/>
      <point x="326" y="760"/>
      <point x="191" y="760" type="curve" smooth="yes"/>
      <point x="74" y="760"/>
      <point x="28" y="716"/>
      <point x="28" y="674" type="curve" smooth="yes"/>
      <point x="28" y="643"/>
      <point x="54" y="619"/>
      <point x="127" y="619" type="curve"/>
      <point x="127" y="681"/>
      <point x="148" y="704"/>
      <point x="188" y="704" type="curve" smooth="yes"/>
      <point x="222" y="704"/>
      <point x="238" y="686"/>
      <point x="238" y="654" type="curve" smooth="yes"/>
      <point x="238" y="608"/>
      <point x="203" y="584"/>
      <point x="126" y="568" type="curve"/>
    </contour>
  </outline>
</glyph>
<glyph name="uni02D6" format="2">
  <advance width="300"/>
  <unicode hex="02D6"/>
  <outline>
    <contour>
      <point x="44" y="240" type="line"/>
      <point x="256" y="240" type="line"/>
      <point x="256" y="293" type="line"/>
      <point x="44" y="293" type="line"/>
    </contour>
    <contour>
      <point x="124" y="160" type="line"/>
      <point x="177" y="160" type="line"/>
      <point x="177" y="372" type="line"/>
      <point x="124" y="372" type="line"/>
    </contour>
  </outline>
</glyph>
<glyph name="uni02F0" format="2">
  <advance width="381"/>
  <unicode hex="02F0"/>
  <outline>
    <contour>
      <point x="40" y="-240" type="line"/>
      <point x="100" y="-240" type="line"/>
      <point x="136" y="-202"/>
      <point x="166" y="-165"/>
      <point x="191" y="-121" type="curve"/>
      <point x="215" y="-165"/>
      <point x="246" y="-202"/>
      <point x="282" y="-240" type="curve"/>
      <point x="341" y="-240" type="line"/>
      <point x="341" y="-230" type="line"/>
      <point x="285" y="-164"/>
      <point x="253" y="-99"/>
      <point x="219" y="-28" type="curve"/>
      <point x="161" y="-28" type="line"/>
      <point x="129" y="-98"/>
      <point x="95" y="-165"/>
      <point x="40" y="-230" type="curve"/>
    </contour>
  </outline>
</glyph>
<glyph name="uni02F1" format="2">
  <advance width="328"/>
  <unicode hex="02F1"/>
  <outline>
    <contour>
      <point x="276" y="-240" type="curve"/>
      <point x="288" y="-240" type="line"/>
      <point x="288" y="-189" type="line"/>
      <point x="243" y="-158"/>
      <point x="200" y="-132"/>
      <point x="148" y="-111" type="curve"/>
      <point x="200" y="-90"/>
      <point x="243" y="-64"/>
      <point x="288" y="-33" type="curve"/>
      <point x="288" y="18" type="line"/>
      <point x="276" y="18" type="line"/>
      <point x="199" y="-30"/>
      <point x="123" y="-58"/>
      <point x="40" y="-87" type="curve"/>
      <point x="40" y="-136" type="line"/>
      <point x="122" y="-164"/>
      <point x="200" y="-193"/>
    </contour>
  </outline>
</glyph>
<glyph name="ogonekcomb" format="2">
  <unicode hex="0328"/>
  <anchor x="-2" y="0" name="_bottom"/>
  <outline>
    <contour>
      <point x="38" y="-240" type="curve" smooth="yes"/>
      <point x="63" y="-240"/>
      <point x="120" y="-234"/>
      <point x="144" y="-224" type="curve"/>
      <point x="144" y="-148" type="line"/>
      <point x="116" y="-153"/>
      <point x="92" y="-156"/>
      <point x="71" y="-156" type="curve" smooth="yes"/>
      <point x="24" y="-156"/>
      <point x="-9" y="-144"/>
      <point x="-9" y="-115" type="curve" smooth="yes"/>
      <point x="-9" y="-52"/>
      <point x="50" y="-13"/>
      <point x="99" y="0" type="curve"/>
      <point x="-8" y="0" type="line"/>
      <point x="-79" y="-14"/>
      <point x="-146" y="-68"/>
      <point x="-146" y="-130" type="curve" smooth="yes"/>
      <point x="-146" y="-206"/>
      <point x="-85" y="-240"/>
    </contour>
  </outline>
</glyph>
<glyph name="verticallinebelowcomb" format="2">
  <unicode hex="0329"/>
  <anchor x="1" y="0" name="_bottom"/>
  <anchor x="1" y="-241" name="bottom"/>
  <outline>
    <contour>
      <point x="-51" y="-241" type="line"/>
      <point x="52" y="-241" type="line"/>
      <point x="52" y="-52" type="line"/>
      <point x="-51" y="-52" type="line"/>
    </contour>
  </outline>
</glyph>
<glyph name="breveinvertedbelowcomb" format="2">
  <unicode hex="032F"/>
  <anchor x="-2" y="0" name="_bottom"/>
  <anchor x="-2" y="-225" name="bottom"/>
  <outline>
    <contour>
      <point x="-206" y="-225" type="curve"/>
      <point x="-112" y="-225" type="line"/>
      <point x="-99" y="-177"/>
      <point x="-60" y="-157"/>
      <point x="-3" y="-157" type="curve" smooth="yes"/>
      <point x="55" y="-157"/>
      <point x="95" y="-177"/>
      <point x="107" y="-225" type="curve"/>
      <point x="201" y="-225" type="line"/>
      <point x="199" y="-150"/>
      <point x="128" y="-44"/>
      <point x="-3" y="-44" type="curve" smooth="yes"/>
      <point x="-134" y="-44"/>
      <point x="-204" y="-150"/>
    </contour>
  </outline>
</glyph>
<glyph name="squarebelowcomb" format="2">
  <unicode hex="033B"/>
  <anchor x="-1" y="0" name="_bottom"/>
  <anchor x="-1" y="-230" name="bottom"/>
  <outline>
    <contour>
      <point x="-208" y="-230" type="line"/>
      <point x="207" y="-230" type="line"/>
      <point x="207" y="-46" type="line"/>
      <point x="-208" y="-46" type="line"/>
    </contour>
    <contour>
      <point x="-153" y="-183" type="line"/>
      <point x="-153" y="-92" type="line"/>
      <point x="152" y="-92" type="line"/>
      <point x="152" y="-183" type="line"/>
    </contour>
  </outline>
</glyph>
<glyph name="lefthalfringabovecomb" format="2">
  <unicode hex="0351"/>
  <anchor x="1" y="536" name="_top"/>
  <anchor x="1" y="816" name="top"/>
  <outline>
    <contour>
      <point x="74" y="588" type="curve"/>
      <point x="74" y="650" type="line"/>
      <point x="42" y="650"/>
      <point x="5" y="658"/>
      <point x="5" y="702" type="curve" smooth="yes"/>
      <point x="5" y="746"/>
      <point x="39" y="755"/>
      <point x="74" y="755" type="curve"/>
      <point x="74" y="816" type="line"/>
      <point x="-4" y="816"/>
      <point x="-73" y="780"/>
      <point x="-73" y="702" type="curve" smooth="yes"/>
      <point x="-73" y="626"/>
      <point x="-4" y="588"/>
    </contour>
  </outline>
</glyph>
<glyph name="xbelowcomb" format="2">
  <unicode hex="0353"/>
  <anchor x="0" y="0" name="_bottom"/>
  <anchor x="0" y="-240" name="bottom"/>
  <outline>
    <contour>
      <point x="-68" y="-240" type="line"/>
      <point x="0" y="-182" type="line"/>
      <point x="67" y="-240" type="line"/>
      <point x="112" y="-202" type="line"/>
      <point x="44" y="-144" type="line"/>
      <point x="112" y="-85" type="line"/>
      <point x="68" y="-48" type="line"/>
      <point x="0" y="-106" type="line"/>
      <point x="-68" y="-48" type="line"/>
      <point x="-112" y="-85" type="line"/>
      <point x="-43" y="-144" type="line"/>
      <point x="-112" y="-202" type="line"/>
    </contour>
  </outline>
</glyph>
<glyph name="doubleringbelowcomb" format="2">
  <unicode hex="035A"/>
  <anchor x="1" y="0" name="_bottom"/>
  <anchor x="1" y="-280" name="bottom"/>
  <outline>
    <contour>
      <point x="-84" y="-280" type="curve" smooth="yes"/>
      <point x="-48" y="-280"/>
      <point x="-20" y="-263"/>
      <point x="0" y="-235" type="curve"/>
      <point x="20" y="-263"/>
      <point x="49" y="-280"/>
      <point x="84" y="-280" type="curve" smooth="yes"/>
      <point x="150" y="-280"/>
      <point x="201" y="-232"/>
      <point x="201" y="-140" type="curve" smooth="yes"/>
      <point x="201" y="-47"/>
      <point x="150" y="0"/>
      <point x="84" y="0" type="curve" smooth="yes"/>
      <point x="49" y="0"/>
      <point x="20" y="-17"/>
      <point x="0" y="-45" type="curve"/>
      <point x="-21" y="-16"/>
      <point x="-53" y="0"/>
      <point x="-84" y="0" type="curve" smooth="yes"/>
      <point x="-149" y="0"/>
      <point x="-200" y="-47"/>
      <point x="-200" y="-140" type="curve" smooth="yes"/>
      <point x="-200" y="-232"/>
      <point x="-149" y="-280"/>
    </contour>
    <contour>
      <point x="-85" y="-213" type="curve" smooth="yes"/>
      <point x="-114" y="-213"/>
      <point x="-141" y="-192"/>
      <point x="-141" y="-140" type="curve" smooth="yes"/>
      <point x="-141" y="-87"/>
      <point x="-114" y="-67"/>
      <point x="-85" y="-67" type="curve" smooth="yes"/>
      <point x="-55" y="-67"/>
      <point x="-28" y="-87"/>
      <point x="-28" y="-140" type="curve" smooth="yes"/>
      <point x="-28" y="-192"/>
      <point x="-55" y="-213"/>
    </contour>
    <contour>
      <point x="84" y="-213" type="curve" smooth="yes"/>
      <point x="55" y="-213"/>
      <point x="29" y="-192"/>
      <point x="29" y="-140" type="curve" smooth="yes"/>
      <point x="29" y="-87"/>
      <point x="55" y="-67"/>
      <point x="84" y="-67" type="curve" smooth="yes"/>
      <point x="114" y="-67"/>
      <point x="141" y="-87"/>
      <point x="141" y="-140" type="curve" smooth="yes"/>
      <point x="141" y="-192"/>
      <point x="114" y="-213"/>
    </contour>
  </outline>
</glyph>
<glyph name="doublemacroncomb" format="2">
  <unicode hex="035E"/>
  <anchor x="0" y="536" name="_top"/>
  <anchor x="0" y="706" name="top"/>
  <outline>
    <contour>
      <point x="-344" y="647" type="line"/>
      <point x="344" y="647" type="line"/>
      <point x="344" y="706" type="line"/>
      <point x="-344" y="706" type="line"/>
    </contour>
  </outline>
</glyph>
<glyph name="Omega" format="2">
  <advance width="990"/>
  <unicode hex="03A9"/>
  <anchor x="496" y="0" name="bottom"/>
  <anchor x="496" y="714" name="top"/>
  <anchor x="20" y="714" name="topleft"/>
  <outline>
    <contour>
      <point x="61" y="0" type="line"/>
      <point x="457" y="0" type="line"/>
      <point x="449" y="280" type="line"/>
      <point x="361" y="290"/>
      <point x="328" y="356"/>
      <point x="328" y="463" type="curve" smooth="yes"/>
      <point x="328" y="580"/>
      <point x="374" y="647"/>
      <point x="494" y="647" type="curve" smooth="yes"/>
      <point x="615" y="647"/>
      <point x="658" y="580"/>
      <point x="658" y="463" type="curve" smooth="yes"/>
      <point x="658" y="356"/>
      <point x="625" y="290"/>
      <point x="536" y="280" type="curve"/>
      <point x="528" y="0" type="line"/>
      <point x="928" y="0" type="line"/>
      <point x="936" y="237" type="line"/>
      <point x="869" y="237" type="line"/>
      <point x="859" y="204" type="line" smooth="yes"/>
      <point x="846" y="160"/>
      <point x="815" y="142"/>
      <point x="730" y="142" type="curve" smooth="yes"/>
      <point x="608" y="142" type="line"/>
      <point x="611" y="219" type="line"/>
      <point x="809" y="246"/>
      <point x="913" y="331"/>
      <point x="913" y="465" type="curve" smooth="yes"/>
      <point x="913" y="622"/>
      <point x="764" y="725"/>
      <point x="496" y="725" type="curve" smooth="yes"/>
      <point x="213" y="725"/>
      <point x="76" y="622"/>
      <point x="76" y="465" type="curve" smooth="yes"/>
      <point x="76" y="334"/>
      <point x="177" y="249"/>
      <point x="375" y="222" type="curve"/>
      <point x="379" y="137" type="line"/>
      <point x="257" y="137" type="line" smooth="yes"/>
      <point x="170" y="137"/>
      <point x="139" y="154"/>
      <point x="130" y="199" type="curve" smooth="yes"/>
      <point x="119" y="232" type="line"/>
      <point x="53" y="232" type="line"/>
    </contour>
  </outline>
</glyph>
<glyph name="alpha" format="2">
  <advance width="789"/>
  <unicode hex="03B1"/>
  <anchor x="395" y="0" name="bottom"/>
  <anchor x="395" y="536" name="top"/>
  <outline>
    <contour>
      <point x="284" y="-10" type="curve" smooth="yes"/>
      <point x="388" y="-10"/>
      <point x="450" y="21"/>
      <point x="488" y="85" type="curve"/>
      <point x="497" y="85" type="line"/>
      <point x="517" y="29"/>
      <point x="546" y="0"/>
      <point x="654" y="0" type="curve" smooth="yes"/>
      <point x="771" y="0" type="line"/>
      <point x="771" y="66" type="line"/>
      <point x="762" y="66" type="line" smooth="yes"/>
      <point x="700" y="66"/>
      <point x="678" y="89"/>
      <point x="678" y="182" type="curve"/>
      <point x="678" y="328" type="line"/>
      <point x="678" y="409"/>
      <point x="694" y="500"/>
      <point x="708" y="536" type="curve"/>
      <point x="559" y="536" type="line"/>
      <point x="523" y="500"/>
      <point x="512" y="479"/>
      <point x="500" y="454" type="curve"/>
      <point x="490" y="454" type="line"/>
      <point x="461" y="503"/>
      <point x="409" y="546"/>
      <point x="307" y="546" type="curve" smooth="yes"/>
      <point x="152" y="546"/>
      <point x="48" y="460"/>
      <point x="48" y="267" type="curve" smooth="yes"/>
      <point x="48" y="75"/>
      <point x="132" y="-10"/>
    </contour>
    <contour>
      <point x="358" y="80" type="curve" smooth="yes"/>
      <point x="299" y="80"/>
      <point x="276" y="144"/>
      <point x="276" y="269" type="curve" smooth="yes"/>
      <point x="276" y="397"/>
      <point x="302" y="460"/>
      <point x="366" y="460" type="curve"/>
      <point x="407" y="460"/>
      <point x="443" y="426"/>
      <point x="457" y="342" type="curve"/>
      <point x="457" y="306" type="line"/>
      <point x="457" y="178"/>
      <point x="429" y="80"/>
    </contour>
  </outline>
</glyph>
<glyph name="eta" format="2">
  <advance width="810"/>
  <unicode hex="03B7"/>
  <anchor x="406" y="-240" name="bottom"/>
  <anchor x="406" y="536" name="top"/>
  <outline>
    <contour>
      <point x="526" y="-240" type="curve"/>
      <point x="731" y="-240" type="line"/>
      <point x="718" y="-215"/>
      <point x="706" y="-142"/>
      <point x="706" y="-67" type="curve" smooth="yes"/>
      <point x="706" y="354" type="line" smooth="yes"/>
      <point x="706" y="493"/>
      <point x="640" y="552"/>
      <point x="500" y="552" type="curve" smooth="yes"/>
      <point x="397" y="552"/>
      <point x="347" y="500"/>
      <point x="315" y="447" type="curve"/>
      <point x="312" y="447" type="line"/>
      <point x="305" y="478"/>
      <point x="290" y="514"/>
      <point x="273" y="536" type="curve"/>
      <point x="69" y="536" type="line"/>
      <point x="86" y="505"/>
      <point x="104" y="452"/>
      <point x="104" y="351" type="curve" smooth="yes"/>
      <point x="104" y="0" type="line"/>
      <point x="331" y="0" type="line"/>
      <point x="331" y="279" type="line" smooth="yes"/>
      <point x="331" y="390"/>
      <point x="347" y="440"/>
      <point x="409" y="440" type="curve" smooth="yes"/>
      <point x="455" y="440"/>
      <point x="480" y="412"/>
      <point x="480" y="326" type="curve" smooth="yes"/>
      <point x="480" y="-69" type="line" smooth="yes"/>
      <point x="480" y="-140"/>
      <point x="498" y="-219"/>
    </contour>
  </outline>
</glyph>
<glyph name="phi1" format="2">
  <advance width="901"/>
  <unicode hex="03D5"/>
  <anchor x="451" y="-240" name="bottom"/>
  <anchor x="451" y="760" name="top"/>
  <anchor x="881" y="536" name="topright"/>
  <outline>
    <contour>
      <point x="416" y="-240" type="line"/>
      <point x="486" y="-240" type="line"/>
      <point x="486" y="-9" type="line"/>
      <point x="738" y="-3"/>
      <point x="853" y="88"/>
      <point x="853" y="269" type="curve" smooth="yes"/>
      <point x="853" y="449"/>
      <point x="725" y="539"/>
      <point x="486" y="545" type="curve"/>
      <point x="486" y="760" type="line"/>
      <point x="416" y="760" type="line"/>
      <point x="416" y="545" type="line"/>
      <point x="164" y="539"/>
      <point x="48" y="449"/>
      <point x="48" y="269" type="curve" smooth="yes"/>
      <point x="48" y="88"/>
      <point x="175" y="-3"/>
      <point x="416" y="-9" type="curve"/>
    </contour>
    <contour>
      <point x="416" y="65" type="line"/>
      <point x="308" y="76"/>
      <point x="282" y="134"/>
      <point x="282" y="269" type="curve" smooth="yes"/>
      <point x="282" y="404"/>
      <point x="306" y="460"/>
      <point x="416" y="470" type="curve"/>
    </contour>
    <contour>
      <point x="486" y="65" type="curve"/>
      <point x="486" y="469" type="line"/>
      <point x="593" y="459"/>
      <point x="619" y="403"/>
      <point x="619" y="269" type="curve" smooth="yes"/>
      <point x="619" y="134"/>
      <point x="595" y="76"/>
    </contour>
  </outline>
</glyph>
<glyph name="afii10053" format="2">
  <advance width="825"/>
  <unicode hex="0404"/>
  <anchor x="412" y="0" name="bottom"/>
  <anchor x="412" y="714" name="top"/>
  <outline>
    <contour>
      <point x="502" y="-10" type="curve" smooth="yes"/>
      <point x="721" y="-10"/>
      <point x="775" y="81"/>
      <point x="775" y="146" type="curve" smooth="yes"/>
      <point x="775" y="161"/>
      <point x="768" y="185"/>
      <point x="758" y="194" type="curve"/>
      <point x="718" y="150"/>
      <point x="651" y="89"/>
      <point x="538" y="89" type="curve" smooth="yes"/>
      <point x="375" y="89"/>
      <point x="315" y="142"/>
      <point x="307" y="318" type="curve"/>
      <point x="547" y="318" type="line"/>
      <point x="547" y="391" type="line"/>
      <point x="307" y="391" type="line"/>
      <point x="313" y="556"/>
      <point x="354" y="647"/>
      <point x="473" y="647" type="curve" smooth="yes"/>
      <point x="566" y="647"/>
      <point x="596" y="565"/>
      <point x="596" y="496" type="curve"/>
      <point x="717" y="496"/>
      <point x="774" y="545"/>
      <point x="774" y="604" type="curve" smooth="yes"/>
      <point x="774" y="671"/>
      <point x="678" y="724"/>
      <point x="486" y="724" type="curve" smooth="yes"/>
      <point x="207" y="724"/>
      <point x="63" y="573"/>
      <point x="63" y="358" type="curve" smooth="yes"/>
      <point x="63" y="137"/>
      <point x="204" y="-10"/>
    </contour>
  </outline>
</glyph>
<glyph name="afii10145" format="2">
  <advance width="981"/>
  <unicode hex="040F"/>
  <anchor x="492" y="-210" name="bottom"/>
  <anchor x="492" y="714" name="top"/>
  <outline>
    <contour>
      <point x="445" y="-210" type="curve"/>
      <point x="540" y="-210" type="line"/>
      <point x="540" y="-62"/>
      <point x="576" y="0"/>
      <point x="660" y="0" type="curve" smooth="yes"/>
      <point x="958" y="0" type="line"/>
      <point x="958" y="66" type="line"/>
      <point x="864" y="66" type="line" smooth="yes"/>
      <point x="867" y="66"/>
      <point x="851" y="63"/>
      <point x="851" y="123" type="curve" smooth="yes"/>
      <point x="851" y="596" type="line" smooth="yes"/>
      <point x="851" y="653"/>
      <point x="868" y="648"/>
      <point x="864" y="648" type="curve" smooth="yes"/>
      <point x="958" y="648" type="line"/>
      <point x="958" y="714" type="line"/>
      <point x="501" y="714" type="line"/>
      <point x="501" y="648" type="line"/>
      <point x="606" y="648" type="line" smooth="yes"/>
      <point x="604" y="648"/>
      <point x="619" y="651"/>
      <point x="619" y="591" type="curve" smooth="yes"/>
      <point x="619" y="74" type="line"/>
      <point x="364" y="74" type="line"/>
      <point x="364" y="591" type="line" smooth="yes"/>
      <point x="364" y="651"/>
      <point x="379" y="648"/>
      <point x="377" y="648" type="curve" smooth="yes"/>
      <point x="483" y="648" type="line"/>
      <point x="483" y="714" type="line"/>
      <point x="24" y="714" type="line"/>
      <point x="24" y="648" type="line"/>
      <point x="118" y="648" type="line" smooth="yes"/>
      <point x="117" y="648"/>
      <point x="132" y="651"/>
      <point x="132" y="591" type="curve" smooth="yes"/>
      <point x="132" y="119" type="line" smooth="yes"/>
      <point x="132" y="63"/>
      <point x="115" y="66"/>
      <point x="118" y="66" type="curve" smooth="yes"/>
      <point x="24" y="66" type="line"/>
      <point x="24" y="0" type="line"/>
      <point x="323" y="0" type="line" smooth="yes"/>
      <point x="401" y="0"/>
      <point x="445" y="-68"/>
    </contour>
  </outline>
</glyph>
<glyph name="afii10037" format="2">
  <advance width="830"/>
  <unicode hex="0423"/>
  <anchor x="415" y="0" name="bottom"/>
  <anchor x="415" y="714" name="top"/>
  <outline>
    <contour>
      <point x="140" y="0" type="line"/>
      <point x="272" y="0" type="line" smooth="yes"/>
      <point x="451" y="0"/>
      <point x="482" y="50"/>
      <point x="567" y="241" type="curve" smooth="yes"/>
      <point x="715" y="570" type="line" smooth="yes"/>
      <point x="743" y="633"/>
      <point x="766" y="648"/>
      <point x="812" y="648" type="curve" smooth="yes"/>
      <point x="826" y="648" type="line"/>
      <point x="826" y="714" type="line"/>
      <point x="523" y="714" type="line"/>
      <point x="523" y="648" type="line"/>
      <point x="549" y="648" type="line" smooth="yes"/>
      <point x="600" y="648"/>
      <point x="624" y="633"/>
      <point x="624" y="609" type="curve" smooth="yes"/>
      <point x="624" y="587"/>
      <point x="613" y="550"/>
      <point x="592" y="499" type="curve" smooth="yes"/>
      <point x="527" y="350" type="line" smooth="yes"/>
      <point x="519" y="334"/>
      <point x="511" y="317"/>
      <point x="504" y="302" type="curve"/>
      <point x="487" y="338"/>
      <point x="474" y="363"/>
      <point x="446" y="410" type="curve" smooth="yes"/>
      <point x="366" y="533" type="line" smooth="yes"/>
      <point x="348" y="563"/>
      <point x="336" y="583"/>
      <point x="336" y="610" type="curve" smooth="yes"/>
      <point x="336" y="639"/>
      <point x="360" y="648"/>
      <point x="395" y="648" type="curve" smooth="yes"/>
      <point x="443" y="648" type="line"/>
      <point x="443" y="714" type="line"/>
      <point x="0" y="714" type="line"/>
      <point x="0" y="648" type="line"/>
      <point x="13" y="648" type="line" smooth="yes"/>
      <point x="59" y="648"/>
      <point x="75" y="633"/>
      <point x="98" y="595" type="curve" smooth="yes"/>
      <point x="392" y="125" type="line"/>
      <point x="366" y="91"/>
      <point x="295" y="71"/>
      <point x="205" y="71" type="curve" smooth="yes"/>
      <point x="140" y="71" type="line"/>
    </contour>
  </outline>
</glyph>
<glyph name="afii10086" format="2">
  <advance width="1047"/>
  <unicode hex="0444"/>
  <anchor x="523" y="-238" name="bottom"/>
  <anchor x="523" y="760" name="top"/>
  <outline>
    <contour>
      <point x="330" y="-238" type="line"/>
      <point x="720" y="-238" type="line"/>
      <point x="720" y="-172" type="line"/>
      <point x="707" y="-172" type="line" smooth="yes"/>
      <point x="658" y="-172"/>
      <point x="634" y="-156"/>
      <point x="634" y="-106" type="curve" smooth="yes"/>
      <point x="634" y="-2" type="line"/>
      <point x="860" y="7"/>
      <point x="998" y="117"/>
      <point x="998" y="269" type="curve" smooth="yes"/>
      <point x="998" y="417"/>
      <point x="853" y="527"/>
      <point x="634" y="535" type="curve"/>
      <point x="634" y="760" type="line"/>
      <point x="330" y="760" type="line"/>
      <point x="330" y="694" type="line"/>
      <point x="344" y="694" type="line" smooth="yes"/>
      <point x="386" y="694"/>
      <point x="418" y="675"/>
      <point x="418" y="629" type="curve" smooth="yes"/>
      <point x="418" y="538" type="line"/>
      <point x="187" y="529"/>
      <point x="48" y="420"/>
      <point x="48" y="269" type="curve" smooth="yes"/>
      <point x="48" y="117"/>
      <point x="196" y="7"/>
      <point x="418" y="-2" type="curve"/>
      <point x="418" y="-106" type="line" smooth="yes"/>
      <point x="418" y="-156"/>
      <point x="392" y="-172"/>
      <point x="344" y="-172" type="curve" smooth="yes"/>
      <point x="330" y="-172" type="line"/>
    </contour>
    <contour>
      <point x="417" y="75" type="line"/>
      <point x="321" y="87"/>
      <point x="266" y="159"/>
      <point x="266" y="269" type="curve" smooth="yes"/>
      <point x="266" y="379"/>
      <point x="321" y="447"/>
      <point x="417" y="458" type="curve"/>
    </contour>
    <contour>
      <point x="634" y="77" type="curve"/>
      <point x="634" y="458" type="line"/>
      <point x="724" y="446"/>
      <point x="780" y="375"/>
      <point x="780" y="269" type="curve" smooth="yes"/>
      <point x="780" y="162"/>
      <point x="725" y="89"/>
    </contour>
  </outline>
</glyph>
<glyph name="afii10096" format="2">
  <advance width="1131"/>
  <unicode hex="044E"/>
  <anchor x="565" y="0" name="bottom"/>
  <anchor x="565" y="536" name="top"/>
  <outline>
    <contour>
      <point x="734" y="-10" type="curve" smooth="yes"/>
      <point x="948" y="-10"/>
      <point x="1060" y="83"/>
      <point x="1060" y="272" type="curve" smooth="yes"/>
      <point x="1060" y="461"/>
      <point x="938" y="552"/>
      <point x="737" y="552" type="curve" smooth="yes"/>
      <point x="538" y="552"/>
      <point x="426" y="474"/>
      <point x="412" y="311" type="curve"/>
      <point x="328" y="311" type="line"/>
      <point x="328" y="407" type="line" smooth="yes"/>
      <point x="328" y="453"/>
      <point x="343" y="470"/>
      <point x="383" y="470" type="curve" smooth="yes"/>
      <point x="388" y="470" type="line"/>
      <point x="388" y="536" type="line"/>
      <point x="18" y="536" type="line"/>
      <point x="18" y="470" type="line"/>
      <point x="30" y="470" type="line" smooth="yes"/>
      <point x="75" y="470"/>
      <point x="102" y="455"/>
      <point x="102" y="408" type="curve" smooth="yes"/>
      <point x="102" y="129" type="line" smooth="yes"/>
      <point x="102" y="80"/>
      <point x="76" y="66"/>
      <point x="30" y="66" type="curve" smooth="yes"/>
      <point x="18" y="66" type="line"/>
      <point x="18" y="0" type="line"/>
      <point x="388" y="0" type="line"/>
      <point x="388" y="66" type="line"/>
      <point x="384" y="66" type="line" smooth="yes"/>
      <point x="345" y="66"/>
      <point x="328" y="80"/>
      <point x="328" y="129" type="curve" smooth="yes"/>
      <point x="328" y="241" type="line"/>
      <point x="412" y="241" type="line"/>
      <point x="424" y="73"/>
      <point x="544" y="-10"/>
    </contour>
    <contour>
      <point x="736" y="66" type="curve" smooth="yes"/>
      <point x="666" y="66"/>
      <point x="641" y="137"/>
      <point x="641" y="272" type="curve" smooth="yes"/>
      <point x="641" y="407"/>
      <point x="665" y="475"/>
      <point x="735" y="475" type="curve" smooth="yes"/>
      <point x="805" y="475"/>
      <point x="831" y="407"/>
      <point x="831" y="272" type="curve" smooth="yes"/>
      <point x="831" y="137"/>
      <point x="806" y="66"/>
    </contour>
  </outline>
</glyph>
<glyph name="afii10099" format="2">
  <advance width="793"/>
  <unicode hex="0452"/>
  <anchor x="396" y="-240" name="bottom"/>
  <anchor x="396" y="760" name="top"/>
  <outline>
    <contour>
      <point x="357" y="-240" type="line"/>
      <point x="382" y="-240" type="line" smooth="yes"/>
      <point x="568" y="-240"/>
      <point x="701" y="-187"/>
      <point x="703" y="-10" type="curve" smooth="yes"/>
      <point x="703" y="317" type="line"/>
      <point x="703" y="451"/>
      <point x="632" y="507"/>
      <point x="514" y="507" type="curve" smooth="yes"/>
      <point x="429" y="507"/>
      <point x="376" y="485"/>
      <point x="337" y="439" type="curve"/>
      <point x="329" y="439" type="line"/>
      <point x="333" y="470"/>
      <point x="336" y="516"/>
      <point x="336" y="557" type="curve" smooth="yes"/>
      <point x="336" y="560" type="line"/>
      <point x="504" y="560" type="line"/>
      <point x="504" y="620" type="line"/>
      <point x="336" y="620" type="line"/>
      <point x="336" y="760" type="line"/>
      <point x="18" y="760" type="line"/>
      <point x="18" y="694" type="line"/>
      <point x="36" y="694" type="line" smooth="yes"/>
      <point x="78" y="694"/>
      <point x="109" y="683"/>
      <point x="109" y="641" type="curve" smooth="yes"/>
      <point x="109" y="620" type="line"/>
      <point x="12" y="620" type="line"/>
      <point x="12" y="560" type="line"/>
      <point x="109" y="560" type="line"/>
      <point x="109" y="132" type="line" smooth="yes"/>
      <point x="109" y="75"/>
      <point x="80" y="66"/>
      <point x="35" y="66" type="curve" smooth="yes"/>
      <point x="25" y="66" type="line"/>
      <point x="25" y="0" type="line"/>
      <point x="415" y="0" type="line"/>
      <point x="415" y="66" type="line"/>
      <point x="403" y="66" type="line"/>
      <point x="351" y="66"/>
      <point x="338" y="77"/>
      <point x="338" y="129" type="curve" smooth="yes"/>
      <point x="338" y="251" type="line" smooth="yes"/>
      <point x="338" y="313"/>
      <point x="346" y="397"/>
      <point x="409" y="397" type="curve" smooth="yes"/>
      <point x="459" y="397"/>
      <point x="476" y="349"/>
      <point x="476" y="264" type="curve" smooth="yes"/>
      <point x="476" y="11" type="line" smooth="yes"/>
      <point x="476" y="-119"/>
      <point x="436" y="-160"/>
      <point x="364" y="-160" type="curve" smooth="yes"/>
      <point x="357" y="-160" type="line"/>
    </contour>
  </outline>
</glyph>
<glyph name="afii10101" format="2">
  <advance width="645"/>
  <unicode hex="0454"/>
  <anchor x="323" y="0" name="bottom"/>
  <anchor x="323" y="536" name="top"/>
  <outline>
    <contour>
      <point x="354" y="-10" type="curve" smooth="yes"/>
      <point x="530" y="-10"/>
      <point x="591" y="53"/>
      <point x="591" y="109" type="curve" smooth="yes"/>
      <point x="591" y="167"/>
      <point x="541" y="168"/>
      <point x="507" y="169" type="curve"/>
      <point x="480" y="119"/>
      <point x="475" y="79"/>
      <point x="427" y="79" type="curve" smooth="yes"/>
      <point x="327" y="79"/>
      <point x="280" y="108"/>
      <point x="274" y="229" type="curve"/>
      <point x="421" y="229" type="line"/>
      <point x="421" y="309" type="line"/>
      <point x="274" y="309" type="line"/>
      <point x="279" y="462"/>
      <point x="321" y="478"/>
      <point x="371" y="478" type="curve" smooth="yes"/>
      <point x="427" y="478"/>
      <point x="445" y="448"/>
      <point x="445" y="373" type="curve"/>
      <point x="565" y="373"/>
      <point x="596" y="388"/>
      <point x="596" y="432" type="curve" smooth="yes"/>
      <point x="596" y="497"/>
      <point x="522" y="552"/>
      <point x="352" y="552" type="curve" smooth="yes"/>
      <point x="182" y="552"/>
      <point x="48" y="485"/>
      <point x="48" y="268" type="curve" smooth="yes"/>
      <point x="48" y="51"/>
      <point x="171" y="-10"/>
    </contour>
  </outline>
</glyph>
<glyph name="uni0461" format="2">
  <advance width="1044"/>
  <unicode hex="0461"/>
  <anchor x="522" y="0" name="bottom"/>
  <anchor x="522" y="536" name="top"/>
  <outline>
    <contour>
      <point x="289" y="0" type="curve"/>
      <point x="429" y="0" type="line"/>
      <point x="564" y="196" type="line"/>
      <point x="587" y="134"/>
      <point x="615" y="46"/>
      <point x="626" y="0" type="curve"/>
      <point x="775" y="0" type="line"/>
      <point x="933" y="197"/>
      <point x="1006" y="301"/>
      <point x="1006" y="421" type="curve" smooth="yes"/>
      <point x="1006" y="504"/>
      <point x="971" y="546"/>
      <point x="905" y="546" type="curve" smooth="yes"/>
      <point x="845" y="546"/>
      <point x="815" y="512"/>
      <point x="815" y="464" type="curve"/>
      <point x="856" y="455"/>
      <point x="881" y="419"/>
      <point x="881" y="378" type="curve" smooth="yes"/>
      <point x="881" y="302"/>
      <point x="836" y="243"/>
      <point x="776" y="160" type="curve"/>
      <point x="733" y="310"/>
      <point x="680" y="462"/>
      <point x="642" y="536" type="curve"/>
      <point x="423" y="536" type="line"/>
      <point x="459" y="470"/>
      <point x="499" y="373"/>
      <point x="528" y="289" type="curve"/>
      <point x="438" y="170" type="line"/>
      <point x="349" y="410"/>
      <point x="304" y="550"/>
      <point x="180" y="550" type="curve" smooth="yes"/>
      <point x="93" y="550"/>
      <point x="35" y="519"/>
      <point x="0" y="494" type="curve"/>
      <point x="30" y="435" type="line"/>
      <point x="39" y="440"/>
      <point x="52" y="445"/>
      <point x="71" y="445" type="curve" smooth="yes"/>
      <point x="112" y="445"/>
      <point x="157" y="402"/>
    </contour>
  </outline>
</glyph>
<glyph name="uni0469" format="2">
  <advance width="1190"/>
  <unicode hex="0469"/>
  <anchor x="627" y="0" name="bottom"/>
  <anchor x="627" y="536" name="top"/>
  <outline>
    <contour>
      <point x="18" y="0" type="line"/>
      <point x="319" y="0" type="line"/>
      <point x="319" y="241" type="line"/>
      <point x="563" y="241" type="line"/>
      <point x="593" y="311" type="line"/>
      <point x="319" y="311" type="line"/>
      <point x="319" y="395" type="line" smooth="yes"/>
      <point x="319" y="450"/>
      <point x="344" y="470"/>
      <point x="383" y="470" type="curve" smooth="yes"/>
      <point x="395" y="470" type="line"/>
      <point x="395" y="536" type="line"/>
      <point x="18" y="536" type="line"/>
      <point x="18" y="470" type="line"/>
      <point x="31" y="470" type="line" smooth="yes"/>
      <point x="75" y="470"/>
      <point x="105" y="451"/>
      <point x="105" y="396" type="curve" smooth="yes"/>
      <point x="105" y="141" type="line" smooth="yes"/>
      <point x="105" y="86"/>
      <point x="75" y="66"/>
      <point x="31" y="66" type="curve" smooth="yes"/>
      <point x="18" y="66" type="line"/>
    </contour>
    <component base="uni0467" xOffset="346"/>
  </outline>
</glyph>
<glyph name="uni046B" format="2">
  <advance width="1055"/>
  <unicode hex="046B"/>
  <anchor x="528" y="0" name="bottom"/>
  <anchor x="528" y="536" name="top"/>
  <outline>
    <contour>
      <point x="0" y="-2" type="line"/>
      <point x="64" y="-2" type="line" smooth="yes"/>
      <point x="169" y="-2"/>
      <point x="250" y="8"/>
      <point x="297" y="93" type="curve" smooth="yes"/>
      <point x="349" y="187" type="line" smooth="yes"/>
      <point x="371" y="224"/>
      <point x="386" y="243"/>
      <point x="415" y="243" type="curve"/>
      <point x="415" y="122" type="line" smooth="yes"/>
      <point x="415" y="83"/>
      <point x="397" y="67"/>
      <point x="362" y="65" type="curve" smooth="yes"/>
      <point x="348" y="65" type="line"/>
      <point x="348" y="-2" type="line"/>
      <point x="707" y="-2" type="line"/>
      <point x="707" y="65" type="line"/>
      <point x="696" y="65" type="line" smooth="yes"/>
      <point x="655" y="65"/>
      <point x="640" y="85"/>
      <point x="640" y="128" type="curve" smooth="yes"/>
      <point x="640" y="243" type="line"/>
      <point x="667" y="243"/>
      <point x="684" y="226"/>
      <point x="706" y="187" type="curve" smooth="yes"/>
      <point x="757" y="93" type="line" smooth="yes"/>
      <point x="803" y="8"/>
      <point x="885" y="-2"/>
      <point x="991" y="-2" type="curve" smooth="yes"/>
      <point x="1055" y="-2" type="line"/>
      <point x="1055" y="65" type="line"/>
      <point x="1048" y="65" type="line" smooth="yes"/>
      <point x="1012" y="65"/>
      <point x="997" y="78"/>
      <point x="968" y="118" type="curve" smooth="yes"/>
      <point x="904" y="209" type="line" smooth="yes"/>
      <point x="868" y="258"/>
      <point x="827" y="299"/>
      <point x="684" y="303" type="curve"/>
      <point x="897" y="488" type="line"/>
      <point x="897" y="537" type="line"/>
      <point x="175" y="537" type="line"/>
      <point x="175" y="482" type="line"/>
      <point x="390" y="303" type="line"/>
      <point x="232" y="300"/>
      <point x="181" y="261"/>
      <point x="144" y="203" type="curve" smooth="yes"/>
      <point x="87" y="118" type="line" smooth="yes"/>
      <point x="60" y="78"/>
      <point x="41" y="65"/>
      <point x="6" y="65" type="curve"/>
      <point x="0" y="65" type="line"/>
    </contour>
    <contour>
      <point x="593" y="335" type="line"/>
      <point x="441" y="468" type="line"/>
      <point x="752" y="468" type="line"/>
      <point x="600" y="335" type="line"/>
    </contour>
  </outline>
</glyph>
<glyph name="uni046D" format="2">
  <advance width="1405"/>
  <unicode hex="046D"/>
  <anchor x="702" y="0" name="bottom"/>
  <anchor x="702" y="536" name="top"/>
  <outline>
    <contour>
      <point x="15" y="0" type="line"/>
      <point x="316" y="0" type="line"/>
      <point x="316" y="235" type="line"/>
      <point x="548" y="235" type="line"/>
      <point x="518" y="216"/>
      <point x="493" y="194"/>
      <point x="471" y="161" type="curve" smooth="yes"/>
      <point x="439" y="118" type="line" smooth="yes"/>
      <point x="412" y="79"/>
      <point x="393" y="65"/>
      <point x="358" y="65" type="curve" smooth="yes"/>
      <point x="352" y="65" type="line"/>
      <point x="352" y="-2" type="line"/>
      <point x="416" y="-2" type="line" smooth="yes"/>
      <point x="521" y="-2"/>
      <point x="602" y="8"/>
      <point x="649" y="93" type="curve" smooth="yes"/>
      <point x="700" y="187" type="line" smooth="yes"/>
      <point x="723" y="226"/>
      <point x="738" y="245"/>
      <point x="767" y="245" type="curve"/>
      <point x="767" y="122" type="line" smooth="yes"/>
      <point x="767" y="83"/>
      <point x="750" y="67"/>
      <point x="715" y="65" type="curve" smooth="yes"/>
      <point x="700" y="65" type="line"/>
      <point x="700" y="-2" type="line"/>
      <point x="1059" y="-2" type="line"/>
      <point x="1059" y="65" type="line"/>
      <point x="1047" y="65" type="line" smooth="yes"/>
      <point x="1007" y="65"/>
      <point x="991" y="85"/>
      <point x="991" y="128" type="curve" smooth="yes"/>
      <point x="991" y="245" type="line"/>
      <point x="1019" y="245"/>
      <point x="1035" y="227"/>
      <point x="1058" y="187" type="curve" smooth="yes"/>
      <point x="1109" y="93" type="line" smooth="yes"/>
      <point x="1155" y="8"/>
      <point x="1237" y="-2"/>
      <point x="1342" y="-2" type="curve" smooth="yes"/>
      <point x="1406" y="-2" type="line"/>
      <point x="1406" y="65" type="line"/>
      <point x="1399" y="65" type="line" smooth="yes"/>
      <point x="1364" y="65"/>
      <point x="1349" y="78"/>
      <point x="1320" y="118" type="curve" smooth="yes"/>
      <point x="1256" y="209" type="line" smooth="yes"/>
      <point x="1219" y="259"/>
      <point x="1179" y="300"/>
      <point x="1036" y="304" type="curve"/>
      <point x="1249" y="488" type="line"/>
      <point x="1249" y="537" type="line"/>
      <point x="527" y="537" type="line"/>
      <point x="527" y="482" type="line"/>
      <point x="750" y="305" type="line"/>
      <point x="316" y="305" type="line"/>
      <point x="316" y="407" type="line" smooth="yes"/>
      <point x="316" y="463"/>
      <point x="362" y="470"/>
      <point x="381" y="470" type="curve" smooth="yes"/>
      <point x="392" y="470" type="line"/>
      <point x="392" y="536" type="line"/>
      <point x="15" y="536" type="line"/>
      <point x="15" y="470" type="line"/>
      <point x="28" y="470" type="line" smooth="yes"/>
      <point x="49" y="470"/>
      <point x="102" y="463"/>
      <point x="102" y="408" type="curve" smooth="yes"/>
      <point x="102" y="129" type="line" smooth="yes"/>
      <point x="102" y="74"/>
      <point x="49" y="66"/>
      <point x="28" y="66" type="curve" smooth="yes"/>
      <point x="15" y="66" type="line"/>
    </contour>
    <contour>
      <point x="945" y="335" type="line"/>
      <point x="794" y="468" type="line"/>
      <point x="1104" y="468" type="line"/>
      <point x="952" y="335" type="line"/>
    </contour>
  </outline>
</glyph>
<glyph name="uni0473" format="2">
  <advance width="760"/>
  <unicode hex="0473"/>
  <anchor x="380" y="0" name="bottom"/>
  <anchor x="380" y="536" name="top"/>
  <outline>
    <contour>
      <point x="378" y="-10" type="curve" smooth="yes"/>
      <point x="599" y="-10"/>
      <point x="711" y="84"/>
      <point x="711" y="272" type="curve" smooth="yes"/>
      <point x="711" y="460"/>
      <point x="589" y="552"/>
      <point x="381" y="552" type="curve" smooth="yes"/>
      <point x="167" y="552"/>
      <point x="48" y="460"/>
      <point x="48" y="272" type="curve" smooth="yes"/>
      <point x="48" y="84"/>
      <point x="177" y="-10"/>
    </contour>
    <contour>
      <point x="382" y="66" type="curve" smooth="yes"/>
      <point x="318" y="66"/>
      <point x="284" y="119"/>
      <point x="280" y="224" type="curve"/>
      <point x="296" y="234"/>
      <point x="310" y="243"/>
      <point x="326" y="243" type="curve" smooth="yes"/>
      <point x="350" y="243"/>
      <point x="377" y="205"/>
      <point x="407" y="205" type="curve" smooth="yes"/>
      <point x="432" y="205"/>
      <point x="455" y="224"/>
      <point x="481" y="247" type="curve"/>
      <point x="478" y="129"/>
      <point x="454" y="66"/>
    </contour>
    <contour>
      <point x="433" y="300" type="curve" smooth="yes"/>
      <point x="410" y="300"/>
      <point x="380" y="337"/>
      <point x="351" y="337" type="curve" smooth="yes"/>
      <point x="324" y="337"/>
      <point x="300" y="321"/>
      <point x="278" y="300" type="curve"/>
      <point x="282" y="418"/>
      <point x="314" y="475"/>
      <point x="379" y="475" type="curve" smooth="yes"/>
      <point x="447" y="475"/>
      <point x="475" y="423"/>
      <point x="479" y="318" type="curve"/>
      <point x="463" y="309"/>
      <point x="449" y="300"/>
    </contour>
  </outline>
</glyph>
<glyph name="uni0498" format="2">
  <advance width="731"/>
  <unicode hex="0498"/>
  <anchor x="366" y="-218" name="bottom"/>
  <anchor x="366" y="714" name="top"/>
  <outline>
    <contour>
      <point x="343" y="-218" type="curve" smooth="yes"/>
      <point x="436" y="-218"/>
      <point x="483" y="-181"/>
      <point x="483" y="-123" type="curve" smooth="yes"/>
      <point x="483" y="-77"/>
      <point x="448" y="-39"/>
      <point x="397" y="-9" type="curve"/>
      <point x="573" y="3"/>
      <point x="710" y="66"/>
      <point x="710" y="205" type="curve" smooth="yes"/>
      <point x="710" y="332"/>
      <point x="570" y="377"/>
      <point x="480" y="378" type="curve"/>
      <point x="589" y="399"/>
      <point x="680" y="449"/>
      <point x="680" y="545" type="curve" smooth="yes"/>
      <point x="680" y="661"/>
      <point x="567" y="724"/>
      <point x="359" y="724" type="curve" smooth="yes"/>
      <point x="155" y="724"/>
      <point x="64" y="654"/>
      <point x="64" y="589" type="curve" smooth="yes"/>
      <point x="64" y="500"/>
      <point x="148" y="486"/>
      <point x="248" y="486" type="curve"/>
      <point x="248" y="592"/>
      <point x="271" y="650"/>
      <point x="358" y="650" type="curve" smooth="yes"/>
      <point x="426" y="650"/>
      <point x="460" y="610"/>
      <point x="460" y="542" type="curve" smooth="yes"/>
      <point x="460" y="442"/>
      <point x="408" y="406"/>
      <point x="281" y="406" type="curve" smooth="yes"/>
      <point x="175" y="406" type="line"/>
      <point x="175" y="331" type="line"/>
      <point x="288" y="331" type="line" smooth="yes"/>
      <point x="442" y="331"/>
      <point x="495" y="283"/>
      <point x="495" y="190" type="curve" smooth="yes"/>
      <point x="495" y="114"/>
      <point x="439" y="65"/>
      <point x="345" y="65" type="curve" smooth="yes"/>
      <point x="238" y="65"/>
      <point x="184" y="134"/>
      <point x="172" y="271" type="curve"/>
      <point x="74" y="271"/>
      <point x="25" y="227"/>
      <point x="25" y="160" type="curve" smooth="yes"/>
      <point x="25" y="68"/>
      <point x="105" y="0"/>
      <point x="292" y="-10" type="curve"/>
      <point x="337" y="-47"/>
      <point x="356" y="-84"/>
      <point x="356" y="-116" type="curve" smooth="yes"/>
      <point x="356" y="-145"/>
      <point x="332" y="-159"/>
      <point x="307" y="-159" type="curve" smooth="yes"/>
      <point x="285" y="-159"/>
      <point x="270" y="-155"/>
      <point x="259" y="-151" type="curve"/>
      <point x="253" y="-160"/>
      <point x="251" y="-167"/>
      <point x="251" y="-177" type="curve" smooth="yes"/>
      <point x="251" y="-203"/>
      <point x="286" y="-218"/>
    </contour>
  </outline>
</glyph>
<glyph name="uni04A5" format="2">
  <advance width="945"/>
  <unicode hex="04A5"/>
  <anchor x="472" y="0" name="bottom"/>
  <anchor x="472" y="536" name="top"/>
  <outline>
    <contour>
      <point x="18" y="0" type="line"/>
      <point x="388" y="0" type="line"/>
      <point x="388" y="66" type="line"/>
      <point x="384" y="66" type="line" smooth="yes"/>
      <point x="345" y="66"/>
      <point x="328" y="80"/>
      <point x="328" y="129" type="curve" smooth="yes"/>
      <point x="328" y="241" type="line"/>
      <point x="493" y="241" type="line"/>
      <point x="493" y="129" type="line" smooth="yes"/>
      <point x="493" y="80"/>
      <point x="477" y="66"/>
      <point x="438" y="66" type="curve" smooth="yes"/>
      <point x="433" y="66" type="line"/>
      <point x="433" y="0" type="line"/>
      <point x="806" y="0" type="line"/>
      <point x="806" y="66" type="line"/>
      <point x="793" y="66" type="line" smooth="yes"/>
      <point x="749" y="66"/>
      <point x="720" y="81"/>
      <point x="720" y="129" type="curve" smooth="yes"/>
      <point x="720" y="455" type="line"/>
      <point x="745" y="455" type="line" smooth="yes"/>
      <point x="805" y="455"/>
      <point x="822" y="438"/>
      <point x="829" y="373" type="curve" smooth="yes"/>
      <point x="835" y="325" type="line"/>
      <point x="933" y="325" type="line"/>
      <point x="926" y="536" type="line"/>
      <point x="433" y="536" type="line"/>
      <point x="433" y="470" type="line"/>
      <point x="438" y="470" type="line" smooth="yes"/>
      <point x="477" y="470"/>
      <point x="493" y="455"/>
      <point x="493" y="408" type="curve" smooth="yes"/>
      <point x="493" y="311" type="line"/>
      <point x="328" y="311" type="line"/>
      <point x="328" y="407" type="line" smooth="yes"/>
      <point x="328" y="453"/>
      <point x="343" y="470"/>
      <point x="382" y="470" type="curve" smooth="yes"/>
      <point x="388" y="470" type="line"/>
      <point x="388" y="536" type="line"/>
      <point x="18" y="536" type="line"/>
      <point x="18" y="470" type="line"/>
      <point x="30" y="470" type="line" smooth="yes"/>
      <point x="75" y="470"/>
      <point x="102" y="455"/>
      <point x="102" y="408" type="curve" smooth="yes"/>
      <point x="102" y="129" type="line" smooth="yes"/>
      <point x="102" y="80"/>
      <point x="76" y="66"/>
      <point x="30" y="66" type="curve" smooth="yes"/>
      <point x="18" y="66" type="line"/>
    </contour>
  </outline>
</glyph>
<glyph name="uni04AD" format="2">
  <advance width="678"/>
  <unicode hex="04AD"/>
  <anchor x="339" y="-198" name="bottom"/>
  <anchor x="339" y="536" name="top"/>
  <outline>
    <contour>
      <point x="485" y="-198" type="line"/>
      <point x="557" y="-198" type="line"/>
      <point x="557" y="65" type="line"/>
      <point x="524" y="65" type="line" smooth="yes"/>
      <point x="479" y="65"/>
      <point x="453" y="85"/>
      <point x="453" y="131" type="curve" smooth="yes"/>
      <point x="453" y="455" type="line"/>
      <point x="479" y="455" type="line" smooth="yes"/>
      <point x="539" y="455"/>
      <point x="555" y="437"/>
      <point x="563" y="374" type="curve" smooth="yes"/>
      <point x="569" y="329" type="line"/>
      <point x="667" y="329" type="line"/>
      <point x="660" y="536" type="line"/>
      <point x="19" y="536" type="line"/>
      <point x="11" y="329" type="line"/>
      <point x="109" y="329" type="line"/>
      <point x="115" y="374" type="line" smooth="yes"/>
      <point x="123" y="437"/>
      <point x="137" y="455"/>
      <point x="201" y="455" type="curve" smooth="yes"/>
      <point x="226" y="455" type="line"/>
      <point x="226" y="133" type="line" smooth="yes"/>
      <point x="226" y="88"/>
      <point x="196" y="66"/>
      <point x="150" y="66" type="curve" smooth="yes"/>
      <point x="136" y="66" type="line"/>
      <point x="136" y="0" type="line"/>
      <point x="365" y="0" type="line" smooth="yes"/>
      <point x="446" y="0"/>
      <point x="471" y="-17"/>
      <point x="480" y="-141" type="curve" smooth="yes"/>
    </contour>
  </outline>
</glyph>
<glyph name="uni04AF" format="2">
  <advance width="730"/>
  <unicode hex="04AF"/>
  <anchor x="365" y="-239" name="bottom"/>
  <anchor x="365" y="536" name="top"/>
  <outline>
    <contour>
      <point x="187" y="-239" type="line"/>
      <point x="580" y="-239" type="line"/>
      <point x="580" y="-173" type="line"/>
      <point x="566" y="-173" type="line" smooth="yes"/>
      <point x="523" y="-173"/>
      <point x="493" y="-154"/>
      <point x="493" y="-104" type="curve" smooth="yes"/>
      <point x="493" y="16" type="line"/>
      <point x="634" y="392" type="line" smooth="yes"/>
      <point x="657" y="458"/>
      <point x="674" y="470"/>
      <point x="708" y="470" type="curve" smooth="yes"/>
      <point x="729" y="470" type="line"/>
      <point x="729" y="536" type="line"/>
      <point x="471" y="536" type="line"/>
      <point x="471" y="470" type="line"/>
      <point x="496" y="470" type="line" smooth="yes"/>
      <point x="529" y="470"/>
      <point x="543" y="458"/>
      <point x="543" y="444" type="curve" smooth="yes"/>
      <point x="543" y="427"/>
      <point x="537" y="409"/>
      <point x="532" y="394" type="curve" smooth="yes"/>
      <point x="460" y="191" type="line" smooth="yes"/>
      <point x="448" y="162"/>
      <point x="442" y="150"/>
      <point x="437" y="120" type="curve"/>
      <point x="431" y="150"/>
      <point x="426" y="155"/>
      <point x="413" y="189" type="curve" smooth="yes"/>
      <point x="335" y="397" type="line"/>
      <point x="331" y="404"/>
      <point x="322" y="425"/>
      <point x="322" y="445" type="curve" smooth="yes"/>
      <point x="322" y="458"/>
      <point x="332" y="470"/>
      <point x="366" y="470" type="curve" smooth="yes"/>
      <point x="409" y="470" type="line"/>
      <point x="409" y="536" type="line"/>
      <point x="8" y="536" type="line"/>
      <point x="8" y="470" type="line"/>
      <point x="63" y="470"/>
      <point x="81" y="463"/>
      <point x="95" y="428" type="curve" smooth="yes"/>
      <point x="273" y="16" type="line"/>
      <point x="273" y="-100" type="line" smooth="yes"/>
      <point x="273" y="-154"/>
      <point x="244" y="-173"/>
      <point x="199" y="-173" type="curve" smooth="yes"/>
      <point x="187" y="-173" type="line"/>
    </contour>
  </outline>
</glyph>
<glyph name="uni04B7" format="2">
  <advance width="790"/>
  <unicode hex="04B7"/>
  <anchor x="396" y="0" name="bottom"/>
  <anchor x="396" y="536" name="top"/>
  <outline>
    <contour>
      <point x="703" y="-198" type="line"/>
      <point x="776" y="-198" type="line"/>
      <point x="776" y="65" type="line"/>
      <point x="759" y="65" type="line" smooth="yes"/>
      <point x="713" y="65"/>
      <point x="688" y="85"/>
      <point x="688" y="131" type="curve" smooth="yes"/>
      <point x="688" y="398" type="line" smooth="yes"/>
      <point x="688" y="446"/>
      <point x="712" y="470"/>
      <point x="754" y="470" type="curve" smooth="yes"/>
      <point x="771" y="470" type="line"/>
      <point x="771" y="536" type="line"/>
      <point x="404" y="536" type="line"/>
      <point x="404" y="470" type="line"/>
      <point x="413" y="470" type="line" smooth="yes"/>
      <point x="448" y="470"/>
      <point x="461" y="456"/>
      <point x="461" y="408" type="curve" smooth="yes"/>
      <point x="461" y="292" type="line"/>
      <point x="433" y="282"/>
      <point x="404" y="275"/>
      <point x="373" y="275" type="curve" smooth="yes"/>
      <point x="338" y="275"/>
      <point x="312" y="290"/>
      <point x="312" y="333" type="curve" smooth="yes"/>
      <point x="312" y="410" type="line" smooth="yes"/>
      <point x="312" y="454"/>
      <point x="326" y="470"/>
      <point x="360" y="470" type="curve" smooth="yes"/>
      <point x="368" y="470" type="line"/>
      <point x="368" y="536" type="line"/>
      <point x="8" y="536" type="line"/>
      <point x="8" y="470" type="line"/>
      <point x="19" y="470" type="line" smooth="yes"/>
      <point x="68" y="470"/>
      <point x="85" y="440"/>
      <point x="85" y="402" type="curve" smooth="yes"/>
      <point x="85" y="312" type="line" smooth="yes"/>
      <point x="85" y="222"/>
      <point x="152" y="175"/>
      <point x="275" y="175" type="curve" smooth="yes"/>
      <point x="367" y="175"/>
      <point x="423" y="200"/>
      <point x="461" y="213" type="curve"/>
      <point x="461" y="133" type="line" smooth="yes"/>
      <point x="461" y="74"/>
      <point x="430" y="66"/>
      <point x="379" y="66" type="curve" smooth="yes"/>
      <point x="355" y="66" type="line"/>
      <point x="355" y="0" type="line"/>
      <point x="576" y="0" type="line" smooth="yes"/>
      <point x="659" y="0"/>
      <point x="683" y="-21"/>
      <point x="698" y="-149" type="curve" smooth="yes"/>
    </contour>
  </outline>
</glyph>
<glyph name="uni04BE" format="2">
  <advance width="1039"/>
  <unicode hex="04BE"/>
  <anchor x="650" y="-210" name="bottom"/>
  <anchor x="620" y="714" name="top"/>
  <outline>
    <contour>
      <point x="598" y="-210" type="curve"/>
      <point x="692" y="-210" type="line"/>
      <point x="692" y="-40"/>
      <point x="702" y="-13"/>
      <point x="806" y="10" type="curve"/>
      <point x="895" y="34"/>
      <point x="956" y="72"/>
      <point x="956" y="121" type="curve" smooth="yes"/>
      <point x="956" y="145"/>
      <point x="949" y="158"/>
      <point x="939" y="168" type="curve"/>
      <point x="875" y="123"/>
      <point x="793" y="89"/>
      <point x="699" y="89" type="curve" smooth="yes"/>
      <point x="557" y="89"/>
      <point x="470" y="137"/>
      <point x="461" y="335" type="curve"/>
      <point x="975" y="335" type="line"/>
      <point x="975" y="365" type="line" smooth="yes"/>
      <point x="975" y="590"/>
      <point x="880" y="725"/>
      <point x="614" y="725" type="curve" smooth="yes"/>
      <point x="387" y="725"/>
      <point x="241" y="604"/>
      <point x="223" y="403" type="curve"/>
      <point x="167" y="403"/>
      <point x="136" y="419"/>
      <point x="136" y="464" type="curve" smooth="yes"/>
      <point x="136" y="485"/>
      <point x="141" y="502"/>
      <point x="149" y="516" type="curve"/>
      <point x="140" y="522"/>
      <point x="121" y="529"/>
      <point x="100" y="529" type="curve" smooth="yes"/>
      <point x="51" y="529"/>
      <point x="11" y="505"/>
      <point x="11" y="455" type="curve" smooth="yes"/>
      <point x="11" y="373"/>
      <point x="85" y="335"/>
      <point x="223" y="335" type="curve"/>
      <point x="231" y="173"/>
      <point x="315" y="55"/>
      <point x="484" y="11" type="curve"/>
      <point x="596" y="-17"/>
      <point x="598" y="-42"/>
    </contour>
    <contour>
      <point x="466" y="403" type="line"/>
      <point x="471" y="591"/>
      <point x="521" y="647"/>
      <point x="602" y="647" type="curve" smooth="yes"/>
      <point x="693" y="647"/>
      <point x="727" y="590"/>
      <point x="729" y="403" type="curve"/>
    </contour>
  </outline>
</glyph>
<glyph name="uni04E0" format="2">
  <advance width="731"/>
  <unicode hex="04E0"/>
  <anchor x="366" y="0" name="bottom"/>
  <anchor x="366" y="714" name="top"/>
  <outline>
    <contour>
      <point x="339" y="-11" type="curve" smooth="yes"/>
      <point x="560" y="-11"/>
      <point x="710" y="62"/>
      <point x="710" y="215" type="curve" smooth="yes"/>
      <point x="710" y="349"/>
      <point x="590" y="413"/>
      <point x="406" y="417" type="curve"/>
      <point x="652" y="607" type="line"/>
      <point x="652" y="714" type="line"/>
      <point x="100" y="714" type="line"/>
      <point x="90" y="453" type="line"/>
      <point x="182" y="453" type="line"/>
      <point x="187" y="499" type="line" smooth="yes"/>
      <point x="192" y="555"/>
      <point x="215" y="577"/>
      <point x="285" y="577" type="curve" smooth="yes"/>
      <point x="497" y="577" type="line"/>
      <point x="273" y="406" type="line"/>
      <point x="273" y="343" type="line"/>
      <point x="331" y="343" type="line" smooth="yes"/>
      <point x="435" y="343"/>
      <point x="495" y="301"/>
      <point x="495" y="210" type="curve" smooth="yes"/>
      <point x="495" y="99"/>
      <point x="440" y="65"/>
      <point x="342" y="65" type="curve" smooth="yes"/>
      <point x="219" y="65"/>
      <point x="179" y="173"/>
      <point x="179" y="271" type="curve"/>
      <point x="100" y="271"/>
      <point x="32" y="246"/>
      <point x="32" y="163" type="curve" smooth="yes"/>
      <point x="32" y="82"/>
      <point x="86" y="-11"/>
    </contour>
  </outline>
</glyph>
<glyph name="uni04F7" format="2">
  <advance width="622"/>
  <unicode hex="04F7"/>
  <anchor x="312" y="-198" name="bottom"/>
  <anchor x="312" y="536" name="top"/>
  <outline>
    <contour>
      <point x="343" y="-198" type="line"/>
      <point x="415" y="-198" type="line"/>
      <point x="415" y="65" type="line"/>
      <point x="398" y="65" type="line" smooth="yes"/>
      <point x="353" y="65"/>
      <point x="328" y="85"/>
      <point x="328" y="127" type="curve" smooth="yes"/>
      <point x="328" y="460" type="line"/>
      <point x="405" y="460" type="line" smooth="yes"/>
      <point x="470" y="460"/>
      <point x="484" y="432"/>
      <point x="489" y="391" type="curve" smooth="yes"/>
      <point x="501" y="321" type="line"/>
      <point x="598" y="321" type="line"/>
      <point x="598" y="536" type="line"/>
      <point x="15" y="536" type="line"/>
      <point x="15" y="470" type="line"/>
      <point x="28" y="470" type="line" smooth="yes"/>
      <point x="72" y="470"/>
      <point x="102" y="459"/>
      <point x="102" y="403" type="curve" smooth="yes"/>
      <point x="102" y="129" type="line" smooth="yes"/>
      <point x="102" y="84"/>
      <point x="84" y="66"/>
      <point x="28" y="66" type="curve" smooth="yes"/>
      <point x="15" y="66" type="line"/>
      <point x="15" y="0" type="line"/>
      <point x="227" y="0" type="line" smooth="yes"/>
      <point x="305" y="0"/>
      <point x="328" y="-16"/>
      <point x="337" y="-126" type="curve" smooth="yes"/>
    </contour>
  </outline>
</glyph>
<glyph name="uni0516" format="2">
  <advance width="1141"/>
  <unicode hex="0516"/>
  <anchor x="571" y="0" name="bottom"/>
  <anchor x="571" y="714" name="top"/>
  <outline>
    <contour>
      <point x="24" y="0" type="line"/>
      <point x="496" y="0" type="line"/>
      <point x="496" y="66" type="line"/>
      <point x="418" y="66" type="line" smooth="yes"/>
      <point x="389" y="66"/>
      <point x="364" y="72"/>
      <point x="364" y="118" type="curve" smooth="yes"/>
      <point x="364" y="267" type="line"/>
      <point x="390" y="267" type="line" smooth="yes"/>
      <point x="489" y="267"/>
      <point x="567" y="280"/>
      <point x="624" y="301" type="curve"/>
      <point x="738" y="168" type="line" smooth="yes"/>
      <point x="775" y="125"/>
      <point x="777" y="114"/>
      <point x="777" y="99" type="curve" smooth="yes"/>
      <point x="777" y="77"/>
      <point x="754" y="66"/>
      <point x="707" y="66" type="curve" smooth="yes"/>
      <point x="701" y="66" type="line"/>
      <point x="701" y="0" type="line"/>
      <point x="1137" y="0" type="line"/>
      <point x="1137" y="66" type="line"/>
      <point x="1122" y="66" type="line" smooth="yes"/>
      <point x="1093" y="66"/>
      <point x="1060" y="79"/>
      <point x="1028" y="119" type="curve" smooth="yes"/>
      <point x="814" y="393" type="line"/>
      <point x="964" y="580" type="line" smooth="yes"/>
      <point x="1007" y="634"/>
      <point x="1023" y="648"/>
      <point x="1069" y="648" type="curve" smooth="yes"/>
      <point x="1079" y="648" type="line"/>
      <point x="1079" y="714" type="line"/>
      <point x="803" y="714" type="line"/>
      <point x="803" y="648" type="line"/>
      <point x="809" y="648" type="line" smooth="yes"/>
      <point x="845" y="648"/>
      <point x="875" y="643"/>
      <point x="875" y="619" type="curve" smooth="yes"/>
      <point x="875" y="601"/>
      <point x="855" y="570"/>
      <point x="846" y="558" type="curve" smooth="yes"/>
      <point x="765" y="452" type="line"/>
      <point x="768" y="467"/>
      <point x="769" y="482"/>
      <point x="769" y="499" type="curve" smooth="yes"/>
      <point x="769" y="644"/>
      <point x="658" y="714"/>
      <point x="416" y="714" type="curve" smooth="yes"/>
      <point x="24" y="714" type="line"/>
      <point x="24" y="648" type="line"/>
      <point x="77" y="648" type="line" smooth="yes"/>
      <point x="102" y="648"/>
      <point x="132" y="641"/>
      <point x="132" y="595" type="curve" smooth="yes"/>
      <point x="132" y="123" type="line" smooth="yes"/>
      <point x="132" y="73"/>
      <point x="104" y="66"/>
      <point x="71" y="66" type="curve" smooth="yes"/>
      <point x="24" y="66" type="line"/>
    </contour>
    <contour>
      <point x="363" y="338" type="line"/>
      <point x="363" y="642" type="line"/>
      <point x="396" y="642" type="line" smooth="yes"/>
      <point x="485" y="642"/>
      <point x="527" y="595"/>
      <point x="527" y="495" type="curve" smooth="yes"/>
      <point x="527" y="383"/>
      <point x="481" y="338"/>
      <point x="380" y="338" type="curve" smooth="yes"/>
    </contour>
  </outline>
</glyph>
<glyph name="uni0520" format="2">
  <advance width="1248"/>
  <unicode hex="0520"/>
  <anchor x="624" y="-251" name="bottom"/>
  <anchor x="624" y="714" name="top"/>
  <outline>
    <contour>
      <point x="835" y="-251" type="curve" smooth="yes"/>
      <point x="1090" y="-251"/>
      <point x="1215" y="-103"/>
      <point x="1215" y="88" type="curve" smooth="yes"/>
      <point x="1215" y="251"/>
      <point x="1102" y="395"/>
      <point x="835" y="395" type="curve" smooth="yes"/>
      <point x="801" y="395"/>
      <point x="753" y="391"/>
      <point x="738" y="392" type="curve"/>
      <point x="738" y="591" type="line" smooth="yes"/>
      <point x="738" y="641"/>
      <point x="753" y="648"/>
      <point x="794" y="648" type="curve" smooth="yes"/>
      <point x="842" y="648" type="line"/>
      <point x="842" y="714" type="line"/>
      <point x="178" y="714" type="line"/>
      <point x="178" y="648" type="line"/>
      <point x="195" y="648" type="line" smooth="yes"/>
      <point x="246" y="648"/>
      <point x="288" y="648"/>
      <point x="288" y="612" type="curve" smooth="yes"/>
      <point x="288" y="601"/>
      <point x="267" y="346"/>
      <point x="224" y="218" type="curve" smooth="yes"/>
      <point x="200" y="145"/>
      <point x="166" y="101"/>
      <point x="114" y="101" type="curve" smooth="yes"/>
      <point x="84" y="101"/>
      <point x="62" y="112"/>
      <point x="62" y="148" type="curve"/>
      <point x="34" y="148"/>
      <point x="-1" y="136"/>
      <point x="-1" y="82" type="curve" smooth="yes"/>
      <point x="-1" y="29"/>
      <point x="42" y="-7"/>
      <point x="111" y="-7" type="curve" smooth="yes"/>
      <point x="188" y="-7"/>
      <point x="258" y="23"/>
      <point x="299" y="146" type="curve" smooth="yes"/>
      <point x="345" y="275"/>
      <point x="373" y="492"/>
      <point x="383" y="658" type="curve"/>
      <point x="505" y="658" type="line"/>
      <point x="505" y="123" type="line" smooth="yes"/>
      <point x="505" y="73"/>
      <point x="491" y="66"/>
      <point x="449" y="66" type="curve" smooth="yes"/>
      <point x="409" y="66" type="line"/>
      <point x="409" y="0" type="line"/>
      <point x="838" y="0" type="line"/>
      <point x="838" y="66" type="line"/>
      <point x="794" y="66" type="line" smooth="yes"/>
      <point x="755" y="66"/>
      <point x="738" y="72"/>
      <point x="738" y="112" type="curve" smooth="yes"/>
      <point x="738" y="322" type="line"/>
      <point x="745" y="320"/>
      <point x="759" y="322"/>
      <point x="779" y="322" type="curve" smooth="yes"/>
      <point x="926" y="322"/>
      <point x="964" y="208"/>
      <point x="964" y="92" type="curve" smooth="yes"/>
      <point x="964" y="-66"/>
      <point x="935" y="-175"/>
      <point x="837" y="-175" type="curve" smooth="yes"/>
      <point x="759" y="-175"/>
      <point x="739" y="-128"/>
      <point x="730" y="-53" type="curve"/>
      <point x="634" y="-53"/>
      <point x="592" y="-88"/>
      <point x="592" y="-128" type="curve" smooth="yes"/>
      <point x="592" y="-205"/>
      <point x="667" y="-251"/>
    </contour>
  </outline>
</glyph>
<glyph name="uni0529" format="2">
  <advance width="808"/>
  <unicode hex="0529"/>
  <anchor x="405" y="-240" name="bottom"/>
  <anchor x="405" y="536" name="top"/>
  <outline>
    <contour>
      <point x="-19" y="-240" type="line"/>
      <point x="7" y="-240" type="line" smooth="yes"/>
      <point x="193" y="-240"/>
      <point x="329" y="-187"/>
      <point x="329" y="-8" type="curve" smooth="yes"/>
      <point x="329" y="241" type="line"/>
      <point x="493" y="241" type="line"/>
      <point x="493" y="129" type="line" smooth="yes"/>
      <point x="493" y="80"/>
      <point x="477" y="66"/>
      <point x="438" y="66" type="curve" smooth="yes"/>
      <point x="433" y="66" type="line"/>
      <point x="433" y="0" type="line"/>
      <point x="806" y="0" type="line"/>
      <point x="806" y="66" type="line"/>
      <point x="793" y="66" type="line" smooth="yes"/>
      <point x="749" y="66"/>
      <point x="720" y="86"/>
      <point x="720" y="129" type="curve" smooth="yes"/>
      <point x="720" y="407" type="line" smooth="yes"/>
      <point x="720" y="453"/>
      <point x="749" y="470"/>
      <point x="793" y="470" type="curve" smooth="yes"/>
      <point x="806" y="470" type="line"/>
      <point x="806" y="536" type="line"/>
      <point x="433" y="536" type="line"/>
      <point x="433" y="470" type="line"/>
      <point x="438" y="470" type="line" smooth="yes"/>
      <point x="477" y="470"/>
      <point x="493" y="455"/>
      <point x="493" y="408" type="curve" smooth="yes"/>
      <point x="493" y="311" type="line"/>
      <point x="329" y="311" type="line"/>
      <point x="329" y="407" type="line" smooth="yes"/>
      <point x="329" y="453"/>
      <point x="342" y="470"/>
      <point x="383" y="470" type="curve" smooth="yes"/>
      <point x="388" y="470" type="line"/>
      <point x="388" y="536" type="line"/>
      <point x="18" y="536" type="line"/>
      <point x="18" y="470" type="line"/>
      <point x="30" y="470" type="line" smooth="yes"/>
      <point x="75" y="470"/>
      <point x="102" y="455"/>
      <point x="102" y="408" type="curve" smooth="yes"/>
      <point x="102" y="-23" type="line" smooth="yes"/>
      <point x="102" y="-130"/>
      <point x="62" y="-160"/>
      <point x="-12" y="-160" type="curve" smooth="yes"/>
      <point x="-19" y="-160" type="line"/>
    </contour>
  </outline>
</glyph>
<glyph name="uni052F" format="2">
  <advance width="823"/>
  <unicode hex="052F"/>
  <anchor x="411" y="-210" name="bottom"/>
  <anchor x="411" y="536" name="top"/>
  <outline>
    <contour>
      <point x="714" y="-210" type="line"/>
      <point x="809" y="-210" type="line"/>
      <point x="809" y="62" type="line"/>
      <point x="782" y="62" type="line" smooth="yes"/>
      <point x="739" y="64"/>
      <point x="698" y="70"/>
      <point x="698" y="108" type="curve" smooth="yes"/>
      <point x="698" y="407" type="line" smooth="yes"/>
      <point x="698" y="462"/>
      <point x="750" y="470"/>
      <point x="771" y="470" type="curve" smooth="yes"/>
      <point x="785" y="470" type="line"/>
      <point x="785" y="536" type="line"/>
      <point x="166" y="536" type="line"/>
      <point x="166" y="470" type="line"/>
      <point x="181" y="470" type="line" smooth="yes"/>
      <point x="232" y="470"/>
      <point x="268" y="461"/>
      <point x="268" y="408" type="curve" smooth="yes"/>
      <point x="268" y="358"/>
      <point x="243" y="273"/>
      <point x="225" y="218" type="curve" smooth="yes"/>
      <point x="186" y="92"/>
      <point x="148" y="92"/>
      <point x="117" y="92" type="curve" smooth="yes"/>
      <point x="92" y="92"/>
      <point x="74" y="103"/>
      <point x="74" y="134" type="curve"/>
      <point x="48" y="134"/>
      <point x="0" y="118"/>
      <point x="0" y="63" type="curve" smooth="yes"/>
      <point x="0" y="19"/>
      <point x="39" y="-7"/>
      <point x="101" y="-7" type="curve" smooth="yes"/>
      <point x="189" y="-7"/>
      <point x="242" y="30"/>
      <point x="285" y="155" type="curve" smooth="yes"/>
      <point x="319" y="254"/>
      <point x="339" y="355"/>
      <point x="353" y="466" type="curve"/>
      <point x="471" y="466" type="line"/>
      <point x="471" y="129" type="line" smooth="yes"/>
      <point x="471" y="74"/>
      <point x="425" y="66"/>
      <point x="408" y="66" type="curve" smooth="yes"/>
      <point x="386" y="66" type="line"/>
      <point x="386" y="0" type="line"/>
      <point x="598" y="0" type="line" smooth="yes"/>
      <point x="672" y="0"/>
      <point x="696" y="-27"/>
      <point x="705" y="-125" type="curve" smooth="yes"/>
    </contour>
  </outline>
</glyph>
<glyph name="uni1AB7" format="2">
  <unicode hex="1AB7"/>
  <anchor x="-204" y="0" name="_bottom"/>
  <anchor x="-204" y="-253" name="bottom"/>
  <outline>
    <contour>
      <point x="-203" y="-253" type="curve" smooth="yes"/>
      <point x="-160" y="-253"/>
      <point x="-110" y="-229"/>
      <point x="-110" y="-206" type="curve" smooth="yes"/>
      <point x="-110" y="-199"/>
      <point x="-112" y="-176"/>
      <point x="-118" y="-171" type="curve"/>
      <point x="-126" y="-174"/>
      <point x="-139" y="-178"/>
      <point x="-157" y="-178" type="curve" smooth="yes"/>
      <point x="-177" y="-178"/>
      <point x="-195" y="-176"/>
      <point x="-195" y="-146" type="curve" smooth="yes"/>
      <point x="-195" y="-40" type="line"/>
      <point x="-299" y="-40" type="line"/>
      <point x="-299" y="-171" type="line" smooth="yes"/>
      <point x="-299" y="-241"/>
      <point x="-258" y="-253"/>
    </contour>
  </outline>
</glyph>
<glyph name="uni1C81" format="2">
  <advance width="774"/>
  <unicode hex="1C81"/>
  <anchor x="389" y="-210" name="bottom"/>
  <anchor x="389" y="536" name="top"/>
  <outline>
    <contour>
      <point x="20" y="-210" type="line"/>
      <point x="117" y="-210" type="line"/>
      <point x="128" y="-76" type="line" smooth="yes"/>
      <point x="138" y="36"/>
      <point x="164" y="75"/>
      <point x="238" y="75" type="curve" smooth="yes"/>
      <point x="528" y="75" type="line" smooth="yes"/>
      <point x="608" y="75"/>
      <point x="627" y="35"/>
      <point x="633" y="-70" type="curve" smooth="yes"/>
      <point x="640" y="-210" type="line"/>
      <point x="738" y="-210" type="line"/>
      <point x="738" y="137" type="line"/>
      <point x="703" y="137" type="line" smooth="yes"/>
      <point x="648" y="137"/>
      <point x="630" y="156"/>
      <point x="630" y="206" type="curve" smooth="yes"/>
      <point x="630" y="395" type="line" smooth="yes"/>
      <point x="630" y="450"/>
      <point x="647" y="470"/>
      <point x="692" y="470" type="curve" smooth="yes"/>
      <point x="716" y="470" type="line"/>
      <point x="716" y="536" type="line"/>
      <point x="126" y="536" type="line"/>
      <point x="126" y="470" type="line"/>
      <point x="122" y="470" type="line" smooth="yes"/>
      <point x="175" y="470"/>
      <point x="218" y="460"/>
      <point x="218" y="416" type="curve" smooth="yes"/>
      <point x="218" y="391"/>
      <point x="201" y="327"/>
      <point x="179" y="271" type="curve" smooth="yes"/>
      <point x="158" y="221"/>
      <point x="131" y="175"/>
      <point x="109" y="145" type="curve"/>
      <point x="20" y="145" type="line"/>
    </contour>
    <contour>
      <point x="197" y="145" type="line"/>
      <point x="258" y="246"/>
      <point x="293" y="389"/>
      <point x="307" y="466" type="curve"/>
      <point x="414" y="466" type="line"/>
      <point x="414" y="145" type="line"/>
    </contour>
  </outline>
</glyph>
<glyph name="uni1C84" format="2">
  <advance width="746"/>
  <unicode hex="1C84"/>
  <anchor x="373" y="0" name="bottom"/>
  <anchor x="373" y="714" name="top"/>
  <outline>
    <contour>
      <point x="126" y="0" type="line"/>
      <point x="579" y="0" type="line"/>
      <point x="579" y="66" type="line"/>
      <point x="542" y="66" type="line" smooth="yes"/>
      <point x="508" y="66"/>
      <point x="480" y="72"/>
      <point x="480" y="100" type="curve" smooth="yes"/>
      <point x="480" y="107"/>
      <point x="482" y="116"/>
      <point x="487" y="127" type="curve" smooth="yes"/>
      <point x="690" y="630" type="line"/>
      <point x="690" y="714" type="line"/>
      <point x="62" y="714" type="line"/>
      <point x="57" y="497" type="line"/>
      <point x="148" y="497" type="line"/>
      <point x="158" y="582" type="line" smooth="yes"/>
      <point x="164" y="625"/>
      <point x="185" y="640"/>
      <point x="255" y="640" type="curve" smooth="yes"/>
      <point x="475" y="640" type="line"/>
      <point x="263" y="128" type="line" smooth="yes"/>
      <point x="243" y="77"/>
      <point x="218" y="66"/>
      <point x="163" y="66" type="curve" smooth="yes"/>
      <point x="126" y="66" type="line"/>
    </contour>
  </outline>
</glyph>
<glyph name="uni1D00" format="2">
  <advance width="774"/>
  <unicode hex="1D00"/>
  <anchor x="387" y="0" name="bottom"/>
  <anchor x="387" y="536" name="top"/>
  <outline>
    <contour>
      <point x="7" y="0" type="line"/>
      <point x="272" y="0" type="line"/>
      <point x="272" y="70" type="line"/>
      <point x="238" y="70" type="line" smooth="yes"/>
      <point x="211" y="70"/>
      <point x="196" y="81"/>
      <point x="196" y="98" type="curve" smooth="yes"/>
      <point x="196" y="108"/>
      <point x="197" y="118"/>
      <point x="205" y="134" type="curve" smooth="yes"/>
      <point x="223" y="170" type="line"/>
      <point x="437" y="170" type="line"/>
      <point x="454" y="137" type="line" smooth="yes"/>
      <point x="458" y="126"/>
      <point x="464" y="110"/>
      <point x="464" y="94" type="curve" smooth="yes"/>
      <point x="464" y="77"/>
      <point x="450" y="70"/>
      <point x="422" y="70" type="curve" smooth="yes"/>
      <point x="390" y="70" type="line"/>
      <point x="390" y="0" type="line"/>
      <point x="767" y="0" type="line"/>
      <point x="767" y="70" type="line"/>
      <point x="750" y="70" type="line" smooth="yes"/>
      <point x="721" y="70"/>
      <point x="693" y="89"/>
      <point x="670" y="139" type="curve" smooth="yes"/>
      <point x="488" y="536" type="line"/>
      <point x="289" y="536" type="line"/>
      <point x="91" y="120" type="line" smooth="yes"/>
      <point x="71" y="80"/>
      <point x="44" y="70"/>
      <point x="12" y="70" type="curve" smooth="yes"/>
      <point x="7" y="70" type="line"/>
    </contour>
    <contour>
      <point x="245" y="229" type="line"/>
      <point x="297" y="351" type="line" smooth="yes"/>
      <point x="309" y="375"/>
      <point x="319" y="400"/>
      <point x="329" y="427" type="curve"/>
      <point x="333" y="427" type="line"/>
      <point x="342" y="400"/>
      <point x="351" y="376"/>
      <point x="362" y="356" type="curve" smooth="yes"/>
      <point x="415" y="229" type="line"/>
    </contour>
  </outline>
</glyph>
<glyph name="uni1D0D" format="2">
  <advance width="919"/>
  <unicode hex="1D0D"/>
  <anchor x="459" y="0" name="bottom"/>
  <anchor x="459" y="536" name="top"/>
  <outline>
    <contour>
      <point x="17" y="0" type="line"/>
      <point x="264" y="0" type="line"/>
      <point x="264" y="70" type="line"/>
      <point x="259" y="70" type="line" smooth="yes"/>
      <point x="209" y="70"/>
      <point x="189" y="77"/>
      <point x="189" y="111" type="curve" smooth="yes"/>
      <point x="189" y="445" type="line"/>
      <point x="194" y="445" type="line"/>
      <point x="363" y="0" type="line"/>
      <point x="444" y="0" type="line"/>
      <point x="600" y="442" type="line"/>
      <point x="605" y="442" type="line"/>
      <point x="605" y="105" type="line" smooth="yes"/>
      <point x="605" y="82"/>
      <point x="591" y="70"/>
      <point x="556" y="70" type="curve" smooth="yes"/>
      <point x="549" y="70" type="line"/>
      <point x="549" y="0" type="line"/>
      <point x="903" y="0" type="line"/>
      <point x="903" y="70" type="line"/>
      <point x="860" y="70" type="line" smooth="yes"/>
      <point x="830" y="70"/>
      <point x="818" y="82"/>
      <point x="818" y="103" type="curve" smooth="yes"/>
      <point x="818" y="432" type="line" smooth="yes"/>
      <point x="818" y="456"/>
      <point x="834" y="465"/>
      <point x="855" y="465" type="curve" smooth="yes"/>
      <point x="903" y="465" type="line"/>
      <point x="903" y="536" type="line"/>
      <point x="563" y="536" type="line"/>
      <point x="468" y="289" type="line"/>
      <point x="463" y="289" type="line"/>
      <point x="359" y="536" type="line"/>
      <point x="17" y="536" type="line"/>
      <point x="17" y="465" type="line"/>
      <point x="62" y="465" type="line" smooth="yes"/>
      <point x="85" y="465"/>
      <point x="102" y="456"/>
      <point x="102" y="428" type="curve" smooth="yes"/>
      <point x="102" y="115" type="line" smooth="yes"/>
      <point x="102" y="88"/>
      <point x="85" y="70"/>
      <point x="54" y="70" type="curve" smooth="yes"/>
      <point x="17" y="70" type="line"/>
    </contour>
  </outline>
</glyph>
<glyph name="uni1D6D" format="2">
  <advance width="787"/>
  <unicode hex="1D6D"/>
  <outline>
    <contour>
      <point x="283" y="-10" type="curve" smooth="yes"/>
      <point x="375" y="-10"/>
      <point x="429" y="18"/>
      <point x="464" y="63" type="curve"/>
      <point x="471" y="63" type="line"/>
      <point x="512" y="0" type="line"/>
      <point x="768" y="0" type="line"/>
      <point x="768" y="66" type="line"/>
      <point x="759" y="66" type="line" smooth="yes"/>
      <point x="702" y="66"/>
      <point x="675" y="87"/>
      <point x="675" y="151" type="curve" smooth="yes"/>
      <point x="675" y="760" type="line"/>
      <point x="346" y="760" type="line"/>
      <point x="346" y="694" type="line"/>
      <point x="354" y="694" type="line" smooth="yes"/>
      <point x="406" y="694"/>
      <point x="448" y="689"/>
      <point x="448" y="639" type="curve" smooth="yes"/>
      <point x="448" y="556" type="line" smooth="yes"/>
      <point x="448" y="565"/>
      <point x="448" y="458"/>
      <point x="451" y="428" type="curve"/>
      <point x="445" y="428" type="line"/>
      <point x="412" y="463"/>
      <point x="365" y="490"/>
      <point x="280" y="490" type="curve" smooth="yes"/>
      <point x="132" y="490"/>
      <point x="46" y="400"/>
      <point x="46" y="237" type="curve" smooth="yes"/>
      <point x="46" y="75"/>
      <point x="132" y="-10"/>
    </contour>
    <contour>
      <point x="356" y="80" type="curve" smooth="yes"/>
      <point x="296" y="80"/>
      <point x="274" y="143"/>
      <point x="274" y="240" type="curve" smooth="yes"/>
      <point x="274" y="334"/>
      <point x="296" y="402"/>
      <point x="357" y="402" type="curve" smooth="yes"/>
      <point x="427" y="402"/>
      <point x="448" y="334"/>
      <point x="448" y="241" type="curve" smooth="yes"/>
      <point x="448" y="138"/>
      <point x="427" y="80"/>
    </contour>
    <contour>
      <point x="285" y="509" type="curve"/>
      <point x="378" y="509" type="line"/>
      <point x="378" y="543"/>
      <point x="393" y="566"/>
      <point x="431" y="566" type="curve" smooth="yes"/>
      <point x="517" y="566"/>
      <point x="592" y="509"/>
      <point x="688" y="509" type="curve" smooth="yes"/>
      <point x="806" y="509"/>
      <point x="849" y="570"/>
      <point x="850" y="676" type="curve"/>
      <point x="758" y="676" type="line"/>
      <point x="758" y="640"/>
      <point x="741" y="621"/>
      <point x="704" y="621" type="curve" smooth="yes"/>
      <point x="620" y="621"/>
      <point x="543" y="677"/>
      <point x="449" y="677" type="curve" smooth="yes"/>
      <point x="335" y="677"/>
      <point x="286" y="615"/>
    </contour>
  </outline>
</glyph>
<glyph name="uni1D6F" format="2">
  <advance width="1184"/>
  <unicode hex="1D6F"/>
  <anchor x="592" y="536" name="top"/>
  <anchor x="1145" y="536" name="topright"/>
  <anchor x="592" y="0" name="bottom"/>
  <outline>
    <contour>
      <point x="-51" y="185" type="curve"/>
      <point x="43" y="185" type="line"/>
      <point x="43" y="218"/>
      <point x="58" y="240"/>
      <point x="120" y="240" type="curve" smooth="yes"/>
      <point x="345" y="240"/>
      <point x="810" y="173"/>
      <point x="1057" y="173" type="curve" smooth="yes"/>
      <point x="1198" y="173"/>
      <point x="1241" y="255"/>
      <point x="1242" y="359" type="curve"/>
      <point x="1151" y="359" type="line"/>
      <point x="1151" y="325"/>
      <point x="1133" y="304"/>
      <point x="1073" y="304" type="curve" smooth="yes"/>
      <point x="838" y="304"/>
      <point x="372" y="371"/>
      <point x="137" y="371" type="curve" smooth="yes"/>
      <point x="0" y="371"/>
      <point x="-49" y="289"/>
    </contour>
    <component base="m"/>
  </outline>
</glyph>
<glyph name="uni1D7D" format="2">
  <advance width="779"/>
  <unicode hex="1D7D"/>
  <anchor x="389" y="536" name="top"/>
  <anchor x="749" y="536" name="topright"/>
  <anchor x="389" y="-217" name="bottom"/>
  <outline>
    <contour>
      <point x="-8" y="226" type="line"/>
      <point x="810" y="226" type="line"/>
      <point x="810" y="304" type="line"/>
      <point x="-8" y="304" type="line"/>
    </contour>
    <component base="p"/>
  </outline>
</glyph>
<glyph name="uni1D8C" format="2">
  <advance width="730"/>
  <unicode hex="1D8C"/>
  <outline>
    <contour>
      <point x="441" y="-209" type="curve" smooth="yes"/>
      <point x="533" y="-209"/>
      <point x="584" y="-152"/>
      <point x="584" y="-15" type="curve" smooth="yes"/>
      <point x="584" y="65" type="line"/>
      <point x="501" y="65" type="line"/>
      <point x="636" y="403" type="line" smooth="yes"/>
      <point x="656" y="455"/>
      <point x="673" y="470"/>
      <point x="702" y="470" type="curve" smooth="yes"/>
      <point x="732" y="470" type="line"/>
      <point x="732" y="536" type="line"/>
      <point x="471" y="536" type="line"/>
      <point x="471" y="470" type="line"/>
      <point x="496" y="470" type="line" smooth="yes"/>
      <point x="531" y="470"/>
      <point x="543" y="455"/>
      <point x="543" y="445" type="curve" smooth="yes"/>
      <point x="543" y="427"/>
      <point x="538" y="415"/>
      <point x="533" y="400" type="curve" smooth="yes"/>
      <point x="456" y="186" type="line" smooth="yes"/>
      <point x="451" y="178"/>
      <point x="443" y="162"/>
      <point x="437" y="138" type="curve"/>
      <point x="431" y="168"/>
      <point x="422" y="183"/>
      <point x="407" y="216" type="curve" smooth="yes"/>
      <point x="332" y="406" type="line" smooth="yes"/>
      <point x="328" y="417"/>
      <point x="322" y="430"/>
      <point x="322" y="444" type="curve" smooth="yes"/>
      <point x="322" y="461"/>
      <point x="334" y="470"/>
      <point x="368" y="470" type="curve" smooth="yes"/>
      <point x="409" y="470" type="line"/>
      <point x="409" y="536" type="line"/>
      <point x="8" y="536" type="line"/>
      <point x="8" y="470" type="line"/>
      <point x="62" y="470"/>
      <point x="80" y="461"/>
      <point x="96" y="428" type="curve" smooth="yes"/>
      <point x="277" y="0" type="line"/>
      <point x="498" y="0" type="line"/>
      <point x="498" y="-24" type="line" smooth="yes"/>
      <point x="498" y="-78"/>
      <point x="471" y="-106"/>
      <point x="421" y="-106" type="curve" smooth="yes"/>
      <point x="396" y="-106"/>
      <point x="379" y="-99"/>
      <point x="364" y="-90" type="curve"/>
      <point x="353" y="-99"/>
      <point x="347" y="-118"/>
      <point x="347" y="-134" type="curve" smooth="yes"/>
      <point x="347" y="-178"/>
      <point x="382" y="-209"/>
    </contour>
  </outline>
</glyph>
<glyph name="uni1D8F" format="2">
  <advance width="729"/>
  <unicode hex="1D8F"/>
  <anchor x="364" y="536" name="top"/>
  <anchor x="709" y="536" name="topright"/>
  <anchor x="364" y="0" name="bottom"/>
  <outline>
    <contour>
      <point x="762" y="-209" type="curve" smooth="yes"/>
      <point x="820" y="-209"/>
      <point x="855" y="-178"/>
      <point x="855" y="-134" type="curve" smooth="yes"/>
      <point x="855" y="-118"/>
      <point x="849" y="-99"/>
      <point x="838" y="-90" type="curve"/>
      <point x="823" y="-99"/>
      <point x="807" y="-106"/>
      <point x="781" y="-106" type="curve" smooth="yes"/>
      <point x="731" y="-106"/>
      <point x="705" y="-77"/>
      <point x="705" y="-24" type="curve" smooth="yes"/>
      <point x="705" y="66" type="line"/>
      <point x="618" y="66" type="line"/>
      <point x="618" y="-15" type="line" smooth="yes"/>
      <point x="618" y="-152"/>
      <point x="670" y="-209"/>
    </contour>
    <component base="a"/>
  </outline>
</glyph>
<glyph name="dottedacute" format="2">
  <unicode hex="1DC1"/>
  <anchor x="7" y="536" name="_top"/>
  <anchor x="7" y="856" name="top"/>
  <outline>
    <contour>
      <point x="-104" y="574" type="line"/>
      <point x="-40" y="574" type="line"/>
      <point x="11" y="640"/>
      <point x="95" y="772"/>
      <point x="107" y="828" type="curve"/>
      <point x="107" y="844" type="line"/>
      <point x="-44" y="844" type="line"/>
      <point x="-51" y="773"/>
      <point x="-81" y="654"/>
      <point x="-104" y="596" type="curve"/>
    </contour>
    <contour>
      <point x="-211" y="561" type="curve" smooth="yes"/>
      <point x="-170" y="561"/>
      <point x="-131" y="585"/>
      <point x="-131" y="654" type="curve" smooth="yes"/>
      <point x="-131" y="724"/>
      <point x="-170" y="748"/>
      <point x="-211" y="748" type="curve" smooth="yes"/>
      <point x="-251" y="748"/>
      <point x="-290" y="724"/>
      <point x="-290" y="654" type="curve" smooth="yes"/>
      <point x="-290" y="585"/>
      <point x="-251" y="561"/>
    </contour>
    <contour>
      <point x="225" y="669" type="curve" smooth="yes"/>
      <point x="263" y="669"/>
      <point x="302" y="693"/>
      <point x="302" y="762" type="curve" smooth="yes"/>
      <point x="302" y="832"/>
      <point x="263" y="856"/>
      <point x="225" y="856" type="curve" smooth="yes"/>
      <point x="182" y="856"/>
      <point x="144" y="832"/>
      <point x="144" y="762" type="curve" smooth="yes"/>
      <point x="144" y="693"/>
      <point x="182" y="669"/>
    </contour>
  </outline>
</glyph>
<glyph name="gravemacron" format="2">
  <unicode hex="1DC5"/>
  <anchor x="-8" y="536" name="_top"/>
  <anchor x="-8" y="743" name="top"/>
  <outline>
    <contour>
      <point x="-30" y="585" type="line"/>
      <point x="180" y="585" type="line"/>
      <point x="180" y="678" type="line"/>
      <point x="-6" y="678" type="line"/>
      <point x="-148" y="743" type="line"/>
      <point x="-195" y="665" type="line"/>
    </contour>
  </outline>
</glyph>
<glyph name="acutemacron" format="2">
  <unicode hex="1DC7"/>
  <anchor x="-8" y="536" name="_top"/>
  <anchor x="-8" y="729" name="top"/>
  <outline>
    <contour>
      <point x="-148" y="570" type="line"/>
      <point x="-6" y="637" type="line"/>
      <point x="180" y="637" type="line"/>
      <point x="180" y="729" type="line"/>
      <point x="-30" y="729" type="line"/>
      <point x="-195" y="649" type="line"/>
    </contour>
  </outline>
</glyph>
<glyph name="doublecircumflexabove" format="2">
  <unicode hex="1DCD"/>
  <anchor x="0" y="340" name="_top"/>
  <anchor x="0" y="994" name="top"/>
  <outline>
    <contour>
      <point x="-338" y="798" type="line"/>
      <point x="-268" y="798" type="line"/>
      <point x="-180" y="818"/>
      <point x="-84" y="852"/>
      <point x="-3" y="885" type="curve"/>
      <point x="73" y="853"/>
      <point x="174" y="821"/>
      <point x="270" y="798" type="curve"/>
      <point x="338" y="798" type="line"/>
      <point x="338" y="840" type="line"/>
      <point x="250" y="882"/>
      <point x="122" y="947"/>
      <point x="61" y="994" type="curve"/>
      <point x="-62" y="994" type="line"/>
      <point x="-122" y="947"/>
      <point x="-249" y="881"/>
      <point x="-338" y="840" type="curve"/>
    </contour>
  </outline>
</glyph>
<glyph name="ogonekabove" format="2">
  <unicode hex="1DCE"/>
  <anchor x="-336" y="536" name="_top"/>
  <anchor x="-336" y="776" name="top"/>
  <outline>
    <contour>
      <point x="-436" y="536" type="curve"/>
      <point x="-330" y="536" type="line"/>
      <point x="-258" y="550"/>
      <point x="-192" y="604"/>
      <point x="-192" y="666" type="curve" smooth="yes"/>
      <point x="-192" y="742"/>
      <point x="-252" y="776"/>
      <point x="-376" y="776" type="curve" smooth="yes"/>
      <point x="-401" y="776"/>
      <point x="-457" y="770"/>
      <point x="-481" y="760" type="curve"/>
      <point x="-481" y="684" type="line"/>
      <point x="-454" y="689"/>
      <point x="-429" y="692"/>
      <point x="-408" y="692" type="curve" smooth="yes"/>
      <point x="-361" y="692"/>
      <point x="-327" y="678"/>
      <point x="-327" y="651" type="curve" smooth="yes"/>
      <point x="-327" y="588"/>
      <point x="-387" y="549"/>
    </contour>
  </outline>
</glyph>
<glyph name="urabove" format="2">
  <unicode hex="1DD1"/>
  <anchor x="1" y="536" name="_top"/>
  <anchor x="1" y="832" name="top"/>
  <outline>
    <contour>
      <point x="128" y="578" type="curve" smooth="yes"/>
      <point x="215" y="578"/>
      <point x="274" y="637"/>
      <point x="274" y="705" type="curve" smooth="yes"/>
      <point x="274" y="780"/>
      <point x="211" y="831"/>
      <point x="112" y="831" type="curve"/>
      <point x="112" y="746" type="line"/>
      <point x="152" y="745"/>
      <point x="178" y="728"/>
      <point x="178" y="705" type="curve" smooth="yes"/>
      <point x="178" y="681"/>
      <point x="160" y="663"/>
      <point x="125" y="663" type="curve" smooth="yes"/>
      <point x="90" y="663"/>
      <point x="68" y="686"/>
      <point x="33" y="737" type="curve" smooth="yes"/>
      <point x="-17" y="808"/>
      <point x="-64" y="832"/>
      <point x="-126" y="832" type="curve" smooth="yes"/>
      <point x="-215" y="832"/>
      <point x="-273" y="775"/>
      <point x="-273" y="706" type="curve" smooth="yes"/>
      <point x="-273" y="629"/>
      <point x="-209" y="580"/>
      <point x="-111" y="580" type="curve"/>
      <point x="-111" y="664" type="line"/>
      <point x="-158" y="665"/>
      <point x="-177" y="683"/>
      <point x="-177" y="706" type="curve" smooth="yes"/>
      <point x="-177" y="730"/>
      <point x="-159" y="748"/>
      <point x="-125" y="748" type="curve" smooth="yes"/>
      <point x="-89" y="748"/>
      <point x="-68" y="722"/>
      <point x="-32" y="675" type="curve" smooth="yes"/>
      <point x="16" y="610"/>
      <point x="70" y="578"/>
    </contour>
  </outline>
</glyph>
<glyph name="uni1FEE" format="2">
  <advance width="673"/>
  <unicode hex="1FEE"/>
  <anchor x="337" y="536" name="_top"/>
  <outline>
    <contour>
      <point x="229" y="609" type="line"/>
      <point x="338" y="609" type="line"/>
      <point x="389" y="657"/>
      <point x="445" y="715"/>
      <point x="488" y="780" type="curve"/>
      <point x="488" y="794" type="line"/>
      <point x="289" y="794" type="line"/>
      <point x="278" y="740"/>
      <point x="252" y="671"/>
      <point x="229" y="622" type="curve"/>
    </contour>
    <contour>
      <point x="128" y="586" type="curve" smooth="yes"/>
      <point x="170" y="586"/>
      <point x="209" y="605"/>
      <point x="209" y="663" type="curve" smooth="yes"/>
      <point x="209" y="722"/>
      <point x="170" y="740"/>
      <point x="128" y="740" type="curve" smooth="yes"/>
      <point x="88" y="740"/>
      <point x="49" y="722"/>
      <point x="49" y="663" type="curve" smooth="yes"/>
      <point x="49" y="605"/>
      <point x="88" y="586"/>
    </contour>
    <contour>
      <point x="546" y="586" type="curve" smooth="yes"/>
      <point x="584" y="586"/>
      <point x="623" y="605"/>
      <point x="623" y="663" type="curve" smooth="yes"/>
      <point x="623" y="722"/>
      <point x="584" y="740"/>
      <point x="546" y="740" type="curve" smooth="yes"/>
      <point x="503" y="740"/>
      <point x="464" y="722"/>
      <point x="464" y="663" type="curve" smooth="yes"/>
      <point x="464" y="605"/>
      <point x="503" y="586"/>
    </contour>
  </outline>
</glyph>
<glyph name="quotedblleft" format="2">
  <advance width="604"/>
  <unicode hex="201C"/>
  <outline>
    <contour>
      <point x="436" y="379" type="curve" smooth="yes"/>
      <point x="487" y="379"/>
      <point x="526" y="407"/>
      <point x="526" y="460" type="curve" smooth="yes"/>
      <point x="526" y="563"/>
      <point x="441" y="549"/>
      <point x="441" y="586" type="curve"/>
      <point x="441" y="625"/>
      <point x="476" y="628"/>
      <point x="537" y="649" type="curve"/>
      <point x="537" y="712" type="line"/>
      <point x="377" y="677"/>
      <point x="316" y="601"/>
      <point x="316" y="516" type="curve" smooth="yes"/>
      <point x="316" y="434"/>
      <point x="358" y="379"/>
    </contour>
    <contour>
      <point x="186" y="379" type="curve" smooth="yes"/>
      <point x="237" y="379"/>
      <point x="275" y="407"/>
      <point x="275" y="460" type="curve" smooth="yes"/>
      <point x="275" y="563"/>
      <point x="190" y="549"/>
      <point x="190" y="586" type="curve"/>
      <point x="190" y="625"/>
      <point x="225" y="628"/>
      <point x="287" y="649" type="curve"/>
      <point x="287" y="712" type="line"/>
      <point x="126" y="677"/>
      <point x="66" y="601"/>
      <point x="66" y="516" type="curve" smooth="yes"/>
      <point x="66" y="434"/>
      <point x="108" y="379"/>
    </contour>
  </outline>
</glyph>
<glyph name="blackrightbullet" format="2">
  <advance width="737"/>
  <unicode hex="204D"/>
  <outline>
    <contour>
      <point x="48" y="188" type="line"/>
      <point x="479" y="188" type="line" smooth="yes"/>
      <point x="611" y="188"/>
      <point x="690" y="259"/>
      <point x="690" y="366" type="curve" smooth="yes"/>
      <point x="690" y="473"/>
      <point x="611" y="544"/>
      <point x="479" y="544" type="curve" smooth="yes"/>
      <point x="48" y="544" type="line"/>
      <point x="48" y="489" type="line"/>
      <point x="63" y="489" type="line" smooth="yes"/>
      <point x="148" y="489"/>
      <point x="158" y="486"/>
      <point x="158" y="439" type="curve" smooth="yes"/>
      <point x="158" y="293" type="line" smooth="yes"/>
      <point x="158" y="253"/>
      <point x="145" y="243"/>
      <point x="63" y="243" type="curve" smooth="yes"/>
      <point x="48" y="243" type="line"/>
    </contour>
    <contour>
      <point x="249" y="252" type="line"/>
      <point x="249" y="480" type="line"/>
      <point x="360" y="480" type="line"/>
      <point x="360" y="252" type="line"/>
    </contour>
  </outline>
</glyph>
<glyph name="uni20B0" format="2">
  <advance width="808"/>
  <unicode hex="20B0"/>
  <outline>
    <contour>
      <point x="479" y="-240" type="curve" smooth="yes"/>
      <point x="630" y="-240"/>
      <point x="742" y="-155"/>
      <point x="742" y="-5" type="curve" smooth="yes"/>
      <point x="742" y="109"/>
      <point x="651" y="233"/>
      <point x="599" y="308" type="curve"/>
      <point x="673" y="387"/>
      <point x="728" y="463"/>
      <point x="728" y="548" type="curve" smooth="yes"/>
      <point x="728" y="653"/>
      <point x="662" y="725"/>
      <point x="526" y="725" type="curve" smooth="yes"/>
      <point x="383" y="725"/>
      <point x="289" y="655"/>
      <point x="289" y="506" type="curve" smooth="yes"/>
      <point x="289" y="425"/>
      <point x="335" y="333"/>
      <point x="411" y="211" type="curve"/>
      <point x="371" y="170" type="line"/>
      <point x="238" y="383" type="line"/>
      <point x="7" y="0" type="line"/>
      <point x="119" y="0" type="line"/>
      <point x="205" y="136" type="line"/>
      <point x="332" y="-35" type="line"/>
      <point x="461" y="124" type="line"/>
      <point x="501" y="83"/>
      <point x="553" y="-23"/>
      <point x="553" y="-96" type="curve" smooth="yes"/>
      <point x="553" y="-138"/>
      <point x="530" y="-167"/>
      <point x="481" y="-167" type="curve" smooth="yes"/>
      <point x="423" y="-167"/>
      <point x="408" y="-123"/>
      <point x="408" y="-44" type="curve"/>
      <point x="324" y="-44"/>
      <point x="258" y="-59"/>
      <point x="258" y="-119" type="curve" smooth="yes"/>
      <point x="258" y="-193"/>
      <point x="340" y="-240"/>
    </contour>
    <contour>
      <point x="540" y="411" type="curve"/>
      <point x="504" y="467"/>
      <point x="486" y="542"/>
      <point x="486" y="575" type="curve" smooth="yes"/>
      <point x="486" y="627"/>
      <point x="504" y="653"/>
      <point x="540" y="653" type="curve" smooth="yes"/>
      <point x="572" y="653"/>
      <point x="594" y="627"/>
      <point x="594" y="566" type="curve" smooth="yes"/>
      <point x="594" y="534"/>
      <point x="582" y="473"/>
    </contour>
  </outline>
</glyph>
<glyph name="spesmilo" format="2">
  <advance width="672"/>
  <unicode hex="20B7"/>
  <outline>
    <contour>
      <point x="146" y="-89" type="line"/>
      <point x="216" y="-89" type="line"/>
      <point x="216" y="-4" type="line"/>
      <point x="229" y="-4"/>
      <point x="245" y="-5"/>
      <point x="264" y="-6" type="curve"/>
      <point x="264" y="-89" type="line"/>
      <point x="334" y="-89" type="line"/>
      <point x="334" y="-11" type="line"/>
      <point x="350" y="-9"/>
      <point x="366" y="-9"/>
      <point x="381" y="-7" type="curve"/>
      <point x="381" y="-89" type="line"/>
      <point x="451" y="-89" type="line"/>
      <point x="451" y="4" type="line"/>
      <point x="574" y="38"/>
      <point x="644" y="128"/>
      <point x="644" y="230" type="curve" smooth="yes"/>
      <point x="644" y="322"/>
      <point x="618" y="394"/>
      <point x="442" y="459" type="curve" smooth="yes"/>
      <point x="268" y="521"/>
      <point x="250" y="564"/>
      <point x="250" y="597" type="curve" smooth="yes"/>
      <point x="250" y="644"/>
      <point x="297" y="649"/>
      <point x="343" y="649" type="curve" smooth="yes"/>
      <point x="423" y="649"/>
      <point x="453" y="546"/>
      <point x="453" y="499" type="curve"/>
      <point x="576" y="499"/>
      <point x="633" y="551"/>
      <point x="633" y="603" type="curve" smooth="yes"/>
      <point x="633" y="676"/>
      <point x="562" y="724"/>
      <point x="371" y="724" type="curve" smooth="yes"/>
      <point x="191" y="724"/>
      <point x="64" y="643"/>
      <point x="64" y="512" type="curve" smooth="yes"/>
      <point x="64" y="426"/>
      <point x="113" y="359"/>
      <point x="290" y="298" type="curve" smooth="yes"/>
      <point x="416" y="252"/>
      <point x="491" y="211"/>
      <point x="491" y="151" type="curve" smooth="yes"/>
      <point x="491" y="123"/>
      <point x="475" y="106"/>
      <point x="451" y="96" type="curve"/>
      <point x="451" y="167" type="line" smooth="yes"/>
      <point x="451" y="222"/>
      <point x="414" y="243"/>
      <point x="373" y="243" type="curve" smooth="yes"/>
      <point x="349" y="243"/>
      <point x="325" y="240"/>
      <point x="309" y="216" type="curve"/>
      <point x="307" y="216" type="line"/>
      <point x="301" y="239"/>
      <point x="280" y="243"/>
      <point x="257" y="243" type="curve" smooth="yes"/>
      <point x="228" y="243"/>
      <point x="204" y="238"/>
      <point x="192" y="215" type="curve"/>
      <point x="189" y="215" type="line"/>
      <point x="184" y="235"/>
      <point x="163" y="243"/>
      <point x="130" y="243" type="curve" smooth="yes"/>
      <point x="76" y="243"/>
      <point x="35" y="208"/>
      <point x="35" y="166" type="curve" smooth="yes"/>
      <point x="35" y="109"/>
      <point x="50" y="45"/>
      <point x="146" y="13" type="curve"/>
    </contour>
    <contour>
      <point x="146" y="90" type="line"/>
      <point x="110" y="106"/>
      <point x="103" y="128"/>
      <point x="103" y="170" type="curve" smooth="yes"/>
      <point x="103" y="181"/>
      <point x="109" y="192"/>
      <point x="126" y="192" type="curve" smooth="yes"/>
      <point x="147" y="192"/>
      <point x="146" y="175"/>
      <point x="146" y="165" type="curve" smooth="yes"/>
    </contour>
    <contour>
      <point x="264" y="74" type="line"/>
      <point x="245" y="76"/>
      <point x="230" y="76"/>
      <point x="216" y="76" type="curve"/>
      <point x="216" y="173" type="line" smooth="yes"/>
      <point x="216" y="188"/>
      <point x="221" y="192"/>
      <point x="237" y="192" type="curve" smooth="yes"/>
      <point x="255" y="192"/>
      <point x="264" y="189"/>
      <point x="264" y="165" type="curve" smooth="yes"/>
    </contour>
    <contour>
      <point x="334" y="74" type="curve"/>
      <point x="334" y="167" type="line" smooth="yes"/>
      <point x="334" y="190"/>
      <point x="337" y="192"/>
      <point x="354" y="192" type="curve" smooth="yes"/>
      <point x="372" y="192"/>
      <point x="381" y="189"/>
      <point x="381" y="165" type="curve" smooth="yes"/>
      <point x="381" y="74" type="line"/>
      <point x="364" y="74"/>
      <point x="349" y="73"/>
    </contour>
  </outline>
</glyph>
<glyph name="manat" format="2">
  <advance width="744"/>
  <unicode hex="20BC"/>
  <outline>
    <contour>
      <point x="61" y="0" type="line"/>
      <point x="250" y="0" type="line"/>
      <point x="250" y="154" type="line" smooth="yes"/>
      <point x="250" y="430"/>
      <point x="274" y="422"/>
      <point x="363" y="422" type="curve"/>
      <point x="363" y="0" type="line"/>
      <point x="382" y="0" type="line"/>
      <point x="382" y="420" type="line"/>
      <point x="465" y="412"/>
      <point x="495" y="416"/>
      <point x="495" y="154" type="curve" smooth="yes"/>
      <point x="495" y="0" type="line"/>
      <point x="683" y="0" type="line"/>
      <point x="683" y="138" type="line" smooth="yes"/>
      <point x="683" y="428"/>
      <point x="647" y="535"/>
      <point x="382" y="531" type="curve"/>
      <point x="382" y="636" type="line"/>
      <point x="363" y="636" type="line"/>
      <point x="363" y="531" type="line"/>
      <point x="114" y="527"/>
      <point x="61" y="418"/>
      <point x="61" y="138" type="curve" smooth="yes"/>
    </contour>
  </outline>
</glyph>
<glyph name="ruble" format="2">
  <advance width="688"/>
  <unicode hex="20BD"/>
  <outline>
    <contour>
      <point x="19" y="0" type="line"/>
      <point x="480" y="0" type="line"/>
      <point x="480" y="66" type="line"/>
      <point x="364" y="66" type="line" smooth="yes"/>
      <point x="345" y="66"/>
      <point x="326" y="74"/>
      <point x="326" y="140" type="curve" smooth="yes"/>
      <point x="326" y="171" type="line"/>
      <point x="461" y="171" type="line"/>
      <point x="461" y="242" type="line"/>
      <point x="326" y="242" type="line"/>
      <point x="326" y="292" type="line"/>
      <point x="329" y="292" type="line" smooth="yes"/>
      <point x="586" y="292"/>
      <point x="668" y="388"/>
      <point x="668" y="516" type="curve" smooth="yes"/>
      <point x="668" y="641"/>
      <point x="569" y="714"/>
      <point x="335" y="714" type="curve" smooth="yes"/>
      <point x="19" y="714" type="line"/>
      <point x="19" y="648" type="line"/>
      <point x="62" y="648" type="line" smooth="yes"/>
      <point x="80" y="648"/>
      <point x="95" y="641"/>
      <point x="95" y="595" type="curve" smooth="yes"/>
      <point x="95" y="242" type="line"/>
      <point x="14" y="242" type="line"/>
      <point x="14" y="171" type="line"/>
      <point x="95" y="171" type="line"/>
      <point x="95" y="123" type="line" smooth="yes"/>
      <point x="95" y="73"/>
      <point x="82" y="66"/>
      <point x="62" y="66" type="curve" smooth="yes"/>
      <point x="19" y="66" type="line"/>
    </contour>
    <contour>
      <point x="326" y="364" type="line"/>
      <point x="326" y="642" type="line"/>
      <point x="335" y="642" type="line" smooth="yes"/>
      <point x="404" y="642"/>
      <point x="431" y="603"/>
      <point x="431" y="512" type="curve" smooth="yes"/>
      <point x="431" y="393"/>
      <point x="409" y="364"/>
      <point x="328" y="364" type="curve" smooth="yes"/>
    </contour>
  </outline>
</glyph>
<glyph name="uni2117" format="2">
  <advance width="985"/>
  <unicode hex="2117"/>
  <outline>
    <contour>
      <point x="294" y="141" type="line"/>
      <point x="567" y="141" type="line"/>
      <point x="567" y="204" type="line"/>
      <point x="511" y="204" type="line" smooth="yes"/>
      <point x="481" y="204"/>
      <point x="454" y="206"/>
      <point x="454" y="229" type="curve" smooth="yes"/>
      <point x="454" y="276" type="line"/>
      <point x="556" y="276" type="line" smooth="yes"/>
      <point x="686" y="276"/>
      <point x="745" y="326"/>
      <point x="745" y="426" type="curve" smooth="yes"/>
      <point x="745" y="533"/>
      <point x="683" y="585"/>
      <point x="544" y="585" type="curve" smooth="yes"/>
      <point x="294" y="585" type="line"/>
      <point x="294" y="527" type="line"/>
      <point x="310" y="527" type="line" smooth="yes"/>
      <point x="330" y="527"/>
      <point x="349" y="523"/>
      <point x="349" y="492" type="curve" smooth="yes"/>
      <point x="349" y="239" type="line" smooth="yes"/>
      <point x="349" y="208"/>
      <point x="330" y="204"/>
      <point x="310" y="204" type="curve" smooth="yes"/>
      <point x="294" y="204" type="line"/>
    </contour>
    <contour>
      <point x="454" y="336" type="line"/>
      <point x="454" y="517" type="line"/>
      <point x="540" y="517" type="line" smooth="yes"/>
      <point x="607" y="517"/>
      <point x="633" y="493"/>
      <point x="633" y="427" type="curve" smooth="yes"/>
      <point x="633" y="366"/>
      <point x="609" y="336"/>
      <point x="543" y="336" type="curve" smooth="yes"/>
    </contour>
    <contour>
      <point x="491" y="-10" type="curve" smooth="yes"/>
      <point x="731" y="-10"/>
      <point x="929" y="117"/>
      <point x="929" y="356" type="curve" smooth="yes"/>
      <point x="929" y="599"/>
      <point x="729" y="725"/>
      <point x="490" y="725" type="curve" smooth="yes"/>
      <point x="251" y="725"/>
      <point x="57" y="597"/>
      <point x="57" y="358" type="curve" smooth="yes"/>
      <point x="57" y="112"/>
      <point x="256" y="-10"/>
    </contour>
    <contour>
      <point x="490" y="60" type="curve" smooth="yes"/>
      <point x="295" y="60"/>
      <point x="138" y="153"/>
      <point x="138" y="355" type="curve" smooth="yes"/>
      <point x="138" y="555"/>
      <point x="292" y="655"/>
      <point x="492" y="655" type="curve" smooth="yes"/>
      <point x="693" y="655"/>
      <point x="848" y="550"/>
      <point x="848" y="358" type="curve" smooth="yes"/>
      <point x="848" y="167"/>
      <point x="698" y="60"/>
    </contour>
  </outline>
</glyph>
<glyph name="informationsource" format="2">
  <advance width="410"/>
  <unicode hex="2139"/>
  <outline>
    <contour>
      <point x="20" y="0" type="line"/>
      <point x="390" y="0" type="line"/>
      <point x="390" y="53" type="line"/>
      <point x="377" y="53" type="line" smooth="yes"/>
      <point x="343" y="53"/>
      <point x="294" y="61"/>
      <point x="294" y="118" type="curve" smooth="yes"/>
      <point x="294" y="536" type="line"/>
      <point x="20" y="536" type="line"/>
      <point x="20" y="483" type="line"/>
      <point x="34" y="483" type="line" smooth="yes"/>
      <point x="67" y="483"/>
      <point x="117" y="475"/>
      <point x="117" y="422" type="curve" smooth="yes"/>
      <point x="117" y="118" type="line" smooth="yes"/>
      <point x="117" y="61"/>
      <point x="68" y="53"/>
      <point x="34" y="53" type="curve" smooth="yes"/>
      <point x="20" y="53" type="line"/>
    </contour>
    <contour>
      <point x="199" y="626" type="curve" smooth="yes"/>
      <point x="253" y="626"/>
      <point x="300" y="649"/>
      <point x="300" y="698" type="curve" smooth="yes"/>
      <point x="300" y="749"/>
      <point x="253" y="770"/>
      <point x="199" y="770" type="curve" smooth="yes"/>
      <point x="144" y="770"/>
      <point x="101" y="749"/>
      <point x="101" y="698" type="curve"/>
      <point x="101" y="649"/>
      <point x="144" y="626"/>
    </contour>
  </outline>
</glyph>
<glyph name="uni2C62" format="2">
  <advance width="790"/>
  <unicode hex="2C62"/>
  <anchor x="396" y="0" name="bottom"/>
  <anchor x="396" y="714" name="top"/>
  <anchor x="770" y="714" name="topright"/>
  <anchor x="396" y="357" name="center"/>
  <outline>
    <contour>
      <point x="-32" y="278" type="curve"/>
      <point x="60" y="278" type="line"/>
      <point x="61" y="313"/>
      <point x="76" y="338"/>
      <point x="114" y="338" type="curve" smooth="yes"/>
      <point x="199" y="338"/>
      <point x="275" y="266"/>
      <point x="370" y="266" type="curve" smooth="yes"/>
      <point x="488" y="266"/>
      <point x="531" y="339"/>
      <point x="532" y="445" type="curve"/>
      <point x="440" y="445" type="line"/>
      <point x="441" y="410"/>
      <point x="423" y="386"/>
      <point x="387" y="386" type="curve" smooth="yes"/>
      <point x="303" y="386"/>
      <point x="226" y="458"/>
      <point x="132" y="458" type="curve" smooth="yes"/>
      <point x="17" y="458"/>
      <point x="-31" y="384"/>
    </contour>
    <component base="L"/>
  </outline>
</glyph>
<glyph name="uni2C63" format="2">
  <advance width="773"/>
  <unicode hex="2C63"/>
  <anchor x="387" y="0" name="bottom"/>
  <anchor x="387" y="714" name="top"/>
  <anchor x="783" y="714" name="topright"/>
  <outline>
    <contour>
      <point x="785" y="443" type="line"/>
      <point x="455" y="583" type="line"/>
      <point x="-313" y="519" type="line"/>
      <point x="17" y="379" type="line"/>
    </contour>
    <component base="P"/>
  </outline>
</glyph>
<glyph name="uni2C69" format="2">
  <advance width="945"/>
  <unicode hex="2C69"/>
  <anchor x="473" y="0" name="bottom"/>
  <anchor x="473" y="714" name="top"/>
  <outline>
    <contour>
      <point x="861" y="-210" type="curve"/>
      <point x="936" y="-210" type="line"/>
      <point x="936" y="66" type="line"/>
      <point x="897" y="66" type="line" smooth="yes"/>
      <point x="835" y="66"/>
      <point x="815" y="97"/>
      <point x="762" y="165" type="curve" smooth="yes"/>
      <point x="545" y="440" type="line"/>
      <point x="699" y="567" type="line" smooth="yes"/>
      <point x="751" y="611"/>
      <point x="805" y="649"/>
      <point x="875" y="649" type="curve"/>
      <point x="875" y="714" type="line"/>
      <point x="521" y="714" type="line"/>
      <point x="521" y="649" type="line"/>
      <point x="575" y="649"/>
      <point x="594" y="638"/>
      <point x="594" y="610" type="curve" smooth="yes"/>
      <point x="594" y="571"/>
      <point x="571" y="542"/>
      <point x="519" y="500" type="curve" smooth="yes"/>
      <point x="364" y="376" type="line"/>
      <point x="364" y="605" type="line" smooth="yes"/>
      <point x="364" y="629"/>
      <point x="382" y="648"/>
      <point x="410" y="648" type="curve" smooth="yes"/>
      <point x="450" y="648" type="line"/>
      <point x="450" y="714" type="line"/>
      <point x="24" y="714" type="line"/>
      <point x="24" y="648" type="line"/>
      <point x="82" y="648" type="line" smooth="yes"/>
      <point x="111" y="648"/>
      <point x="132" y="629"/>
      <point x="132" y="606" type="curve" smooth="yes"/>
      <point x="132" y="112" type="line" smooth="yes"/>
      <point x="132" y="84"/>
      <point x="106" y="66"/>
      <point x="75" y="66" type="curve" smooth="yes"/>
      <point x="24" y="66" type="line"/>
      <point x="24" y="0" type="line"/>
      <point x="450" y="0" type="line"/>
      <point x="450" y="66" type="line"/>
      <point x="422" y="66" type="line" smooth="yes"/>
      <point x="390" y="66"/>
      <point x="364" y="85"/>
      <point x="364" y="109" type="curve" smooth="yes"/>
      <point x="364" y="300" type="line"/>
      <point x="390" y="295" type="line"/>
      <point x="508" y="138" type="line" smooth="yes"/>
      <point x="582" y="38"/>
      <point x="631" y="2"/>
      <point x="742" y="-3" type="curve" smooth="yes"/>
      <point x="838" y="-1"/>
      <point x="856" y="-20"/>
    </contour>
  </outline>
</glyph>
<glyph name="uni2C6D" format="2">
  <advance width="1016"/>
  <unicode hex="2C6D"/>
  <anchor x="509" y="0" name="bottom"/>
  <anchor x="509" y="714" name="top"/>
  <outline>
    <contour>
      <point x="420" y="-10" type="curve" smooth="yes"/>
      <point x="569" y="-10"/>
      <point x="641" y="58"/>
      <point x="667" y="113" type="curve"/>
      <point x="672" y="113" type="line"/>
      <point x="689" y="-2" type="line"/>
      <point x="991" y="-2" type="line"/>
      <point x="991" y="64" type="line"/>
      <point x="948" y="64" type="line" smooth="yes"/>
      <point x="901" y="64"/>
      <point x="884" y="84"/>
      <point x="884" y="117" type="curve" smooth="yes"/>
      <point x="884" y="596" type="line" smooth="yes"/>
      <point x="884" y="629"/>
      <point x="901" y="648"/>
      <point x="948" y="648" type="curve" smooth="yes"/>
      <point x="991" y="648" type="line"/>
      <point x="991" y="714" type="line"/>
      <point x="689" y="714" type="line"/>
      <point x="673" y="614" type="line"/>
      <point x="668" y="614" type="line"/>
      <point x="640" y="653"/>
      <point x="587" y="725"/>
      <point x="435" y="725" type="curve" smooth="yes"/>
      <point x="207" y="725"/>
      <point x="63" y="580"/>
      <point x="63" y="359" type="curve" smooth="yes"/>
      <point x="63" y="139"/>
      <point x="175" y="-10"/>
    </contour>
    <contour>
      <point x="484" y="71" type="curve" smooth="yes"/>
      <point x="370" y="71"/>
      <point x="307" y="164"/>
      <point x="307" y="358" type="curve" smooth="yes"/>
      <point x="307" y="541"/>
      <point x="365" y="647"/>
      <point x="490" y="647" type="curve" smooth="yes"/>
      <point x="609" y="647"/>
      <point x="657" y="556"/>
      <point x="657" y="358" type="curve" smooth="yes"/>
      <point x="657" y="189"/>
      <point x="611" y="71"/>
    </contour>
  </outline>
</glyph>
<glyph name="uni2C73" format="2">
  <advance width="1071"/>
  <unicode hex="2C73"/>
  <anchor x="535" y="0" name="bottom"/>
  <anchor x="535" y="536" name="top"/>
  <outline>
    <contour>
      <point x="226" y="0" type="line"/>
      <point x="379" y="0" type="line"/>
      <point x="490" y="229" type="line"/>
      <point x="593" y="0" type="line"/>
      <point x="743" y="0" type="line"/>
      <point x="832" y="235" type="line" smooth="yes"/>
      <point x="878" y="366"/>
      <point x="902" y="433"/>
      <point x="968" y="433" type="curve" smooth="yes"/>
      <point x="989" y="433"/>
      <point x="1014" y="427"/>
      <point x="1024" y="406" type="curve"/>
      <point x="1042" y="414"/>
      <point x="1059" y="439"/>
      <point x="1059" y="468" type="curve" smooth="yes"/>
      <point x="1059" y="505"/>
      <point x="1028" y="542"/>
      <point x="959" y="542" type="curve" smooth="yes"/>
      <point x="852" y="542"/>
      <point x="823" y="490"/>
      <point x="784" y="374" type="curve" smooth="yes"/>
      <point x="748" y="265" type="line" smooth="yes"/>
      <point x="735" y="224"/>
      <point x="727" y="200"/>
      <point x="723" y="187" type="curve"/>
      <point x="719" y="187" type="line"/>
      <point x="716" y="202"/>
      <point x="710" y="216"/>
      <point x="704" y="234" type="curve" smooth="yes"/>
      <point x="591" y="529" type="line"/>
      <point x="515" y="529" type="line"/>
      <point x="396" y="264" type="line" smooth="yes"/>
      <point x="385" y="243"/>
      <point x="372" y="219"/>
      <point x="367" y="188" type="curve"/>
      <point x="363" y="188" type="line"/>
      <point x="358" y="216"/>
      <point x="346" y="253"/>
      <point x="330" y="301" type="curve" smooth="yes"/>
      <point x="302" y="382" type="line" smooth="yes"/>
      <point x="297" y="397"/>
      <point x="293" y="417"/>
      <point x="293" y="428" type="curve" smooth="yes"/>
      <point x="293" y="461"/>
      <point x="316" y="470"/>
      <point x="363" y="470" type="curve" smooth="yes"/>
      <point x="378" y="470" type="line"/>
      <point x="378" y="536" type="line"/>
      <point x="-7" y="536" type="line"/>
      <point x="-7" y="470" type="line"/>
      <point x="-2" y="470" type="line" smooth="yes"/>
      <point x="44" y="470"/>
      <point x="61" y="458"/>
      <point x="80" y="417" type="curve" smooth="yes"/>
    </contour>
  </outline>
</glyph>
<glyph name="uni2DF5" format="2">
  <unicode hex="2DF5"/>
  <anchor x="0" y="536" name="_top"/>
  <anchor x="0" y="834" name="top"/>
  <anchor x="299" y="834" name="topright"/>
  <outline>
    <contour>
      <point x="-134" y="616" type="curve" smooth="yes"/>
      <point x="-62" y="616"/>
      <point x="-24" y="645"/>
      <point x="-24" y="667" type="curve" smooth="yes"/>
      <point x="-24" y="672"/>
      <point x="-26" y="684"/>
      <point x="-36" y="689" type="curve"/>
      <point x="-50" y="670"/>
      <point x="-82" y="652"/>
      <point x="-126" y="652" type="curve" smooth="yes"/>
      <point x="-156" y="652"/>
      <point x="-169" y="676"/>
      <point x="-169" y="727" type="curve" smooth="yes"/>
      <point x="-169" y="784"/>
      <point x="-151" y="802"/>
      <point x="-105" y="802" type="curve" smooth="yes"/>
      <point x="75" y="802" type="line"/>
      <point x="75" y="673" type="line" smooth="yes"/>
      <point x="75" y="655"/>
      <point x="63" y="646"/>
      <point x="41" y="646" type="curve" smooth="yes"/>
      <point x="36" y="646" type="line"/>
      <point x="36" y="620" type="line"/>
      <point x="219" y="620" type="line"/>
      <point x="219" y="646" type="line"/>
      <point x="209" y="646" type="line" smooth="yes"/>
      <point x="190" y="646"/>
      <point x="178" y="655"/>
      <point x="178" y="673" type="curve" smooth="yes"/>
      <point x="178" y="802" type="line"/>
      <point x="190" y="802" type="line" smooth="yes"/>
      <point x="217" y="802"/>
      <point x="223" y="796"/>
      <point x="227" y="773" type="curve" smooth="yes"/>
      <point x="231" y="751" type="line"/>
      <point x="273" y="751" type="line"/>
      <point x="272" y="834" type="line"/>
      <point x="-108" y="834" type="line" smooth="yes"/>
      <point x="-207" y="834"/>
      <point x="-273" y="811"/>
      <point x="-273" y="728" type="curve" smooth="yes"/>
      <point x="-273" y="640"/>
      <point x="-216" y="616"/>
    </contour>
  </outline>
</glyph>
<glyph name="leftsubstitutionbracket" format="2">
  <advance width="399"/>
  <unicode hex="2E02"/>
  <outline>
    <contour>
      <point x="59" y="246" type="line"/>
      <point x="142" y="246" type="line"/>
      <point x="142" y="558" type="line"/>
      <point x="340" y="662" type="line"/>
      <point x="297" y="724" type="line"/>
      <point x="59" y="597" type="line"/>
    </contour>
  </outline>
</glyph>
<glyph name="dottedobelos" format="2">
  <advance width="875"/>
  <unicode hex="2E13"/>
  <outline>
    <contour>
      <point x="81" y="0" type="line"/>
      <point x="179" y="0" type="line"/>
      <point x="793" y="714" type="line"/>
      <point x="694" y="714" type="line"/>
    </contour>
    <contour>
      <point x="228" y="390" type="curve" smooth="yes"/>
      <point x="271" y="390"/>
      <point x="306" y="419"/>
      <point x="306" y="457" type="curve" smooth="yes"/>
      <point x="306" y="495"/>
      <point x="271" y="525"/>
      <point x="228" y="525" type="curve" smooth="yes"/>
      <point x="185" y="525"/>
      <point x="148" y="495"/>
      <point x="148" y="457" type="curve" smooth="yes"/>
      <point x="148" y="419"/>
      <point x="185" y="390"/>
    </contour>
    <contour>
      <point x="645" y="191" type="curve" smooth="yes"/>
      <point x="688" y="191"/>
      <point x="723" y="220"/>
      <point x="723" y="258" type="curve" smooth="yes"/>
      <point x="723" y="296"/>
      <point x="688" y="326"/>
      <point x="645" y="326" type="curve" smooth="yes"/>
      <point x="602" y="326"/>
      <point x="566" y="296"/>
      <point x="566" y="258" type="curve" smooth="yes"/>
      <point x="566" y="220"/>
      <point x="602" y="191"/>
    </contour>
  </outline>
</glyph>
<glyph name="twodotsoveronedotpunctuation" format="2">
  <advance width="686"/>
  <unicode hex="2E2A"/>
  <outline>
    <contour>
      <point x="540" y="287" type="curve" smooth="yes"/>
      <point x="600" y="287"/>
      <point x="652" y="310"/>
      <point x="652" y="383" type="curve" smooth="yes"/>
      <point x="652" y="460"/>
      <point x="600" y="478"/>
      <point x="540" y="478" type="curve" smooth="yes"/>
      <point x="477" y="478"/>
      <point x="427" y="460"/>
      <point x="427" y="383" type="curve" smooth="yes"/>
      <point x="427" y="310"/>
      <point x="477" y="287"/>
    </contour>
    <contour>
      <point x="327" y="-14" type="curve" smooth="yes"/>
      <point x="387" y="-14"/>
      <point x="438" y="8"/>
      <point x="438" y="82" type="curve" smooth="yes"/>
      <point x="438" y="158"/>
      <point x="387" y="176"/>
      <point x="327" y="176" type="curve" smooth="yes"/>
      <point x="264" y="176"/>
      <point x="214" y="158"/>
      <point x="214" y="82" type="curve" smooth="yes"/>
      <point x="214" y="8"/>
      <point x="264" y="-14"/>
    </contour>
    <contour>
      <point x="141" y="287" type="curve" smooth="yes"/>
      <point x="202" y="287"/>
      <point x="253" y="310"/>
      <point x="253" y="383" type="curve" smooth="yes"/>
      <point x="253" y="460"/>
      <point x="202" y="478"/>
      <point x="141" y="478" type="curve" smooth="yes"/>
      <point x="78" y="478"/>
      <point x="28" y="460"/>
      <point x="28" y="383" type="curve" smooth="yes"/>
      <point x="28" y="310"/>
      <point x="78" y="287"/>
    </contour>
  </outline>
</glyph>
<glyph name="uniA649" format="2">
  <advance width="739"/>
  <unicode hex="A649"/>
  <outline>
    <contour>
      <point x="15" y="0" type="line"/>
      <point x="265" y="0" type="line"/>
      <point x="265" y="65" type="line"/>
      <point x="244" y="65" type="line" smooth="yes"/>
      <point x="196" y="65"/>
      <point x="180" y="83"/>
      <point x="180" y="129" type="curve" smooth="yes"/>
      <point x="180" y="154" type="line" smooth="yes"/>
      <point x="180" y="221"/>
      <point x="215" y="262"/>
      <point x="295" y="262" type="curve" smooth="yes"/>
      <point x="372" y="262"/>
      <point x="411" y="224"/>
      <point x="411" y="151" type="curve" smooth="yes"/>
      <point x="411" y="132" type="line" smooth="yes"/>
      <point x="411" y="88"/>
      <point x="397" y="65"/>
      <point x="347" y="65" type="curve" smooth="yes"/>
      <point x="327" y="65" type="line"/>
      <point x="327" y="0" type="line"/>
      <point x="723" y="0" type="line"/>
      <point x="723" y="65" type="line"/>
      <point x="703" y="65" type="line" smooth="yes"/>
      <point x="657" y="65"/>
      <point x="639" y="86"/>
      <point x="639" y="129" type="curve" smooth="yes"/>
      <point x="639" y="147" type="line" smooth="yes"/>
      <point x="639" y="245"/>
      <point x="576" y="300"/>
      <point x="470" y="315" type="curve"/>
      <point x="470" y="351" type="line"/>
      <point x="568" y="351" type="line"/>
      <point x="568" y="423" type="line"/>
      <point x="470" y="423" type="line"/>
      <point x="470" y="437" type="line" smooth="yes"/>
      <point x="470" y="456"/>
      <point x="484" y="470"/>
      <point x="529" y="470" type="curve" smooth="yes"/>
      <point x="568" y="470" type="line"/>
      <point x="568" y="535" type="line"/>
      <point x="148" y="535" type="line"/>
      <point x="148" y="470" type="line"/>
      <point x="181" y="470" type="line" smooth="yes"/>
      <point x="226" y="470"/>
      <point x="243" y="458"/>
      <point x="243" y="437" type="curve" smooth="yes"/>
      <point x="243" y="423" type="line"/>
      <point x="148" y="423" type="line"/>
      <point x="148" y="351" type="line"/>
      <point x="243" y="351" type="line"/>
      <point x="243" y="315" type="line"/>
      <point x="154" y="299"/>
      <point x="100" y="246"/>
      <point x="100" y="155" type="curve" smooth="yes"/>
      <point x="100" y="132" type="line" smooth="yes"/>
      <point x="100" y="86"/>
      <point x="85" y="65"/>
      <point x="35" y="65" type="curve" smooth="yes"/>
      <point x="15" y="65" type="line"/>
    </contour>
  </outline>
</glyph>
<glyph name="uniA64C" format="2">
  <advance width="1335"/>
  <unicode hex="A64C"/>
  <outline>
    <contour>
      <point x="416" y="-10" type="curve" smooth="yes"/>
      <point x="532" y="-10"/>
      <point x="617" y="29"/>
      <point x="667" y="81" type="curve"/>
      <point x="717" y="28"/>
      <point x="785" y="-10"/>
      <point x="907" y="-10" type="curve" smooth="yes"/>
      <point x="1142" y="-10"/>
      <point x="1268" y="132"/>
      <point x="1268" y="372" type="curve" smooth="yes"/>
      <point x="1268" y="622"/>
      <point x="1153" y="724"/>
      <point x="926" y="724" type="curve" smooth="yes"/>
      <point x="813" y="724"/>
      <point x="710" y="696"/>
      <point x="710" y="589" type="curve" smooth="yes"/>
      <point x="710" y="544"/>
      <point x="745" y="507"/>
      <point x="853" y="507" type="curve"/>
      <point x="859" y="606"/>
      <point x="881" y="647"/>
      <point x="926" y="647" type="curve" smooth="yes"/>
      <point x="983" y="647"/>
      <point x="1024" y="566"/>
      <point x="1024" y="357" type="curve" smooth="yes"/>
      <point x="1024" y="186"/>
      <point x="964" y="85"/>
      <point x="850" y="85" type="curve" smooth="yes"/>
      <point x="765" y="85"/>
      <point x="715" y="124"/>
      <point x="689" y="188" type="curve"/>
      <point x="646" y="188" type="line"/>
      <point x="620" y="124"/>
      <point x="570" y="85"/>
      <point x="485" y="85" type="curve" smooth="yes"/>
      <point x="371" y="85"/>
      <point x="311" y="184"/>
      <point x="311" y="357" type="curve" smooth="yes"/>
      <point x="311" y="566"/>
      <point x="352" y="647"/>
      <point x="409" y="647" type="curve" smooth="yes"/>
      <point x="455" y="647"/>
      <point x="476" y="606"/>
      <point x="482" y="507" type="curve"/>
      <point x="590" y="509"/>
      <point x="625" y="545"/>
      <point x="625" y="589" type="curve" smooth="yes"/>
      <point x="625" y="696"/>
      <point x="522" y="724"/>
      <point x="421" y="724" type="curve" smooth="yes"/>
      <point x="193" y="724"/>
      <point x="67" y="610"/>
      <point x="67" y="360" type="curve" smooth="yes"/>
      <point x="67" y="120"/>
      <point x="182" y="-10"/>
    </contour>
  </outline>
</glyph>
<glyph name="uniA672" format="2">
  <unicode hex="A672"/>
  <outline>
    <contour>
      <point x="-28" y="497" type="line"/>
      <point x="28" y="497" type="line"/>
      <point x="28" y="594" type="line"/>
      <point x="154" y="594" type="line"/>
      <point x="154" y="635" type="line"/>
      <point x="28" y="635" type="line"/>
      <point x="28" y="729" type="line"/>
      <point x="-28" y="729" type="line"/>
      <point x="-28" y="635" type="line"/>
      <point x="-153" y="635" type="line"/>
      <point x="-153" y="594" type="line"/>
      <point x="-28" y="594" type="line"/>
    </contour>
    <contour>
      <point x="-198" y="-197" type="line"/>
      <point x="-142" y="-197" type="line"/>
      <point x="-142" y="36" type="line"/>
      <point x="-198" y="36" type="line"/>
    </contour>
    <contour>
      <point x="-494" y="57" type="line"/>
      <point x="-211" y="57" type="line"/>
      <point x="-211" y="98" type="line"/>
      <point x="-494" y="98" type="line"/>
    </contour>
    <contour>
      <point x="-28" y="-197" type="line"/>
      <point x="28" y="-197" type="line"/>
      <point x="28" y="36" type="line"/>
      <point x="-28" y="36" type="line"/>
    </contour>
    <contour>
      <point x="-494" y="252" type="line"/>
      <point x="-211" y="252" type="line"/>
      <point x="-211" y="293" type="line"/>
      <point x="-494" y="293" type="line"/>
    </contour>
    <contour>
      <point x="144" y="-197" type="line"/>
      <point x="199" y="-197" type="line"/>
      <point x="199" y="36" type="line"/>
      <point x="144" y="36" type="line"/>
    </contour>
    <contour>
      <point x="-494" y="447" type="line"/>
      <point x="-211" y="447" type="line"/>
      <point x="-211" y="488" type="line"/>
      <point x="-494" y="488" type="line"/>
    </contour>
    <contour>
      <point x="211" y="57" type="line"/>
      <point x="496" y="57" type="line"/>
      <point x="496" y="98" type="line"/>
      <point x="211" y="98" type="line"/>
    </contour>
    <contour>
      <point x="211" y="252" type="line"/>
      <point x="496" y="252" type="line"/>
      <point x="496" y="293" type="line"/>
      <point x="211" y="293" type="line"/>
    </contour>
    <contour>
      <point x="211" y="447" type="line"/>
      <point x="496" y="447" type="line"/>
      <point x="496" y="488" type="line"/>
      <point x="211" y="488" type="line"/>
    </contour>
  </outline>
</glyph>
